<ttFont>
    <TTGlyph name="A" xMin="27" yMin="0" xMax="531" yMax="695">
      <contour>
        <pt x="27" y="0" on="1"/>
        <pt x="382" y="695" on="1"/>
        <pt x="508" y="695" on="1"/>
        <pt x="531" y="0" on="1"/>
        <pt x="470" y="0" on="1"/>
        <pt x="462" y="191" on="1"/>
        <pt x="188" y="191" on="1"/>
        <pt x="89" y="0" on="1"/>
      </contour>
      <contour>
        <pt x="417" y="640" on="1"/>
        <pt x="215" y="245" on="1"/>
        <pt x="462" y="245" on="1"/>
        <pt x="449" y="640" on="1"/>
      </contour>
    </TTGlyph>
    <TTGlyph name="AE" xMin="27" yMin="0" xMax="905" yMax="697">
      <contour>
        <pt x="357" y="0" on="1"/>
        <pt x="401" y="191" on="1"/>
        <pt x="185" y="191" on="1"/>
        <pt x="86" y="0" on="1"/>
        <pt x="27" y="0" on="1"/>
        <pt x="382" y="697" on="1"/>
        <pt x="905" y="697" on="1"/>
        <pt x="893" y="640" on="1"/>
        <pt x="567" y="642" on="1"/>
        <pt x="504" y="382" on="1"/>
        <pt x="774" y="382" on="1"/>
        <pt x="762" y="326" on="1"/>
        <pt x="492" y="326" on="1"/>
        <pt x="428" y="57" on="1"/>
        <pt x="753" y="57" on="1"/>
        <pt x="741" y="0" on="1"/>
      </contour>
      <contour>
        <pt x="412" y="640" on="1"/>
        <pt x="212" y="247" on="1"/>
        <pt x="414" y="247" on="1"/>
        <pt x="509" y="640" on="1"/>
      </contour>
    </TTGlyph>
    <TTGlyph name="AEacute" xMin="27" yMin="0" xMax="905" yMax="930">
      <contour>
        <pt x="357" y="0" on="1"/>
        <pt x="401" y="191" on="1"/>
        <pt x="185" y="191" on="1"/>
        <pt x="86" y="0" on="1"/>
        <pt x="27" y="0" on="1"/>
        <pt x="382" y="697" on="1"/>
        <pt x="905" y="697" on="1"/>
        <pt x="893" y="640" on="1"/>
        <pt x="567" y="642" on="1"/>
        <pt x="504" y="382" on="1"/>
        <pt x="774" y="382" on="1"/>
        <pt x="762" y="326" on="1"/>
        <pt x="492" y="326" on="1"/>
        <pt x="428" y="57" on="1"/>
        <pt x="753" y="57" on="1"/>
        <pt x="741" y="0" on="1"/>
      </contour>
      <contour>
        <pt x="412" y="640" on="1"/>
        <pt x="212" y="247" on="1"/>
        <pt x="414" y="247" on="1"/>
        <pt x="509" y="640" on="1"/>
      </contour>
      <contour>
        <pt x="560" y="790" on="1"/>
        <pt x="552" y="835" on="1"/>
        <pt x="771" y="930" on="1"/>
        <pt x="780" y="878" on="1"/>
      </contour>
    </TTGlyph>
    <TTGlyph name="Aacute" xMin="27" yMin="0" xMax="616" yMax="930">
      <contour>
        <pt x="396" y="790" on="1"/>
        <pt x="388" y="835" on="1"/>
        <pt x="607" y="930" on="1"/>
        <pt x="616" y="878" on="1"/>
      </contour>
      <contour>
        <pt x="27" y="0" on="1"/>
        <pt x="382" y="695" on="1"/>
        <pt x="508" y="695" on="1"/>
        <pt x="531" y="0" on="1"/>
        <pt x="470" y="0" on="1"/>
        <pt x="462" y="191" on="1"/>
        <pt x="188" y="191" on="1"/>
        <pt x="89" y="0" on="1"/>
      </contour>
      <contour>
        <pt x="417" y="640" on="1"/>
        <pt x="215" y="245" on="1"/>
        <pt x="462" y="245" on="1"/>
        <pt x="449" y="640" on="1"/>
      </contour>
    </TTGlyph>
    <TTGlyph name="Abreve" xMin="27" yMin="0" xMax="623" yMax="921">
      <contour>
        <pt x="406" y="921" on="1"/>
        <pt x="404" y="909" on="0"/>
        <pt x="404" y="875" on="0"/>
        <pt x="432" y="846" on="0"/>
        <pt x="504" y="846" on="0"/>
        <pt x="561" y="888" on="0"/>
        <pt x="570" y="921" on="1"/>
        <pt x="623" y="921" on="1"/>
        <pt x="606" y="862" on="0"/>
        <pt x="521" y="798" on="0"/>
        <pt x="398" y="798" on="0"/>
        <pt x="370" y="829" on="1"/>
        <pt x="350" y="851" on="0"/>
        <pt x="350" y="889" on="1"/>
        <pt x="350" y="904" on="0"/>
        <pt x="353" y="921" on="1"/>
      </contour>
      <contour>
        <pt x="27" y="0" on="1"/>
        <pt x="382" y="695" on="1"/>
        <pt x="508" y="695" on="1"/>
        <pt x="531" y="0" on="1"/>
        <pt x="470" y="0" on="1"/>
        <pt x="462" y="191" on="1"/>
        <pt x="188" y="191" on="1"/>
        <pt x="89" y="0" on="1"/>
      </contour>
      <contour>
        <pt x="417" y="640" on="1"/>
        <pt x="215" y="245" on="1"/>
        <pt x="462" y="245" on="1"/>
        <pt x="449" y="640" on="1"/>
      </contour>
    </TTGlyph>
    <TTGlyph name="Acircumflex" xMin="27" yMin="0" xMax="599" yMax="931">
      <contour>
        <pt x="311" y="797" on="1"/>
        <pt x="472" y="931" on="1"/>
        <pt x="502" y="931" on="1"/>
        <pt x="599" y="797" on="1"/>
        <pt x="543" y="797" on="1"/>
        <pt x="482" y="883" on="1"/>
        <pt x="377" y="797" on="1"/>
      </contour>
      <contour>
        <pt x="27" y="0" on="1"/>
        <pt x="382" y="695" on="1"/>
        <pt x="508" y="695" on="1"/>
        <pt x="531" y="0" on="1"/>
        <pt x="470" y="0" on="1"/>
        <pt x="462" y="191" on="1"/>
        <pt x="188" y="191" on="1"/>
        <pt x="89" y="0" on="1"/>
      </contour>
      <contour>
        <pt x="417" y="640" on="1"/>
        <pt x="215" y="245" on="1"/>
        <pt x="462" y="245" on="1"/>
        <pt x="449" y="640" on="1"/>
      </contour>
    </TTGlyph>
    <TTGlyph name="Adieresis" xMin="27" yMin="0" xMax="602" yMax="903">
      <contour>
        <pt x="349" y="820" on="1"/>
        <pt x="367" y="903" on="1"/>
        <pt x="417" y="903" on="1"/>
        <pt x="397" y="820" on="1"/>
      </contour>
      <contour>
        <pt x="533" y="820" on="1"/>
        <pt x="553" y="903" on="1"/>
        <pt x="602" y="903" on="1"/>
        <pt x="582" y="820" on="1"/>
      </contour>
      <contour>
        <pt x="27" y="0" on="1"/>
        <pt x="382" y="695" on="1"/>
        <pt x="508" y="695" on="1"/>
        <pt x="531" y="0" on="1"/>
        <pt x="470" y="0" on="1"/>
        <pt x="462" y="191" on="1"/>
        <pt x="188" y="191" on="1"/>
        <pt x="89" y="0" on="1"/>
      </contour>
      <contour>
        <pt x="417" y="640" on="1"/>
        <pt x="215" y="245" on="1"/>
        <pt x="462" y="245" on="1"/>
        <pt x="449" y="640" on="1"/>
      </contour>
    </TTGlyph>
    <TTGlyph name="Agrave" xMin="27" yMin="0" xMax="533" yMax="925">
      <contour>
        <pt x="358" y="925" on="1"/>
        <pt x="533" y="830" on="1"/>
        <pt x="507" y="787" on="1"/>
        <pt x="329" y="875" on="1"/>
      </contour>
      <contour>
        <pt x="27" y="0" on="1"/>
        <pt x="382" y="695" on="1"/>
        <pt x="508" y="695" on="1"/>
        <pt x="531" y="0" on="1"/>
        <pt x="470" y="0" on="1"/>
        <pt x="462" y="191" on="1"/>
        <pt x="188" y="191" on="1"/>
        <pt x="89" y="0" on="1"/>
      </contour>
      <contour>
        <pt x="417" y="640" on="1"/>
        <pt x="215" y="245" on="1"/>
        <pt x="462" y="245" on="1"/>
        <pt x="449" y="640" on="1"/>
      </contour>
    </TTGlyph>
    <TTGlyph name="Amacron" xMin="27" yMin="0" xMax="618" yMax="881">
      <contour>
        <pt x="322" y="835" on="1"/>
        <pt x="332" y="881" on="1"/>
        <pt x="618" y="881" on="1"/>
        <pt x="606" y="835" on="1"/>
      </contour>
      <contour>
        <pt x="27" y="0" on="1"/>
        <pt x="382" y="695" on="1"/>
        <pt x="508" y="695" on="1"/>
        <pt x="531" y="0" on="1"/>
        <pt x="470" y="0" on="1"/>
        <pt x="462" y="191" on="1"/>
        <pt x="188" y="191" on="1"/>
        <pt x="89" y="0" on="1"/>
      </contour>
      <contour>
        <pt x="417" y="640" on="1"/>
        <pt x="215" y="245" on="1"/>
        <pt x="462" y="245" on="1"/>
        <pt x="449" y="640" on="1"/>
      </contour>
    </TTGlyph>
    <TTGlyph name="Aogonek" xMin="27" yMin="-202" xMax="532" yMax="695">
      <contour>
        <pt x="531" y="0" on="1"/>
        <pt x="528" y="0" on="1"/>
        <pt x="497" y="-24" on="0"/>
        <pt x="434" y="-101" on="0"/>
        <pt x="434" y="-126" on="1"/>
        <pt x="434" y="-148" on="0"/>
        <pt x="462" y="-148" on="1"/>
        <pt x="513" y="-142" on="1"/>
        <pt x="507" y="-193" on="1"/>
        <pt x="465" y="-202" on="0"/>
        <pt x="436" y="-202" on="1"/>
        <pt x="368" y="-202" on="0"/>
        <pt x="368" y="-142" on="1"/>
        <pt x="368" y="-109" on="0"/>
        <pt x="432" y="-29" on="0"/>
        <pt x="470" y="3" on="1"/>
        <pt x="462" y="191" on="1"/>
        <pt x="188" y="191" on="1"/>
        <pt x="89" y="0" on="1"/>
        <pt x="27" y="0" on="1"/>
        <pt x="382" y="695" on="1"/>
        <pt x="508" y="695" on="1"/>
        <pt x="531" y="3" on="1"/>
        <pt x="532" y="3" on="1"/>
        <pt x="531" y="2" on="1"/>
      </contour>
      <contour>
        <pt x="417" y="640" on="1"/>
        <pt x="215" y="245" on="1"/>
        <pt x="462" y="245" on="1"/>
        <pt x="449" y="640" on="1"/>
      </contour>
    </TTGlyph>
    <TTGlyph name="Aring" xMin="27" yMin="0" xMax="559" yMax="841">
      <contour>
        <pt x="370" y="671" on="1"/>
        <pt x="354" y="688" on="0"/>
        <pt x="354" y="728" on="0"/>
        <pt x="359" y="745" on="1"/>
        <pt x="372" y="792" on="0"/>
        <pt x="435" y="841" on="0"/>
        <pt x="524" y="841" on="0"/>
        <pt x="545" y="817" on="1"/>
        <pt x="558" y="802" on="0"/>
        <pt x="558" y="782" on="1"/>
        <pt x="558" y="710" on="0"/>
        <pt x="508" y="673" on="1"/>
        <pt x="531" y="0" on="1"/>
        <pt x="470" y="0" on="1"/>
        <pt x="462" y="191" on="1"/>
        <pt x="188" y="191" on="1"/>
        <pt x="89" y="0" on="1"/>
        <pt x="27" y="0" on="1"/>
      </contour>
      <contour>
        <pt x="417" y="640" on="1"/>
        <pt x="215" y="245" on="1"/>
        <pt x="462" y="245" on="1"/>
        <pt x="449" y="640" on="1"/>
      </contour>
      <contour>
        <pt x="398" y="728" on="1"/>
        <pt x="398" y="702" on="0"/>
        <pt x="425" y="695" on="1"/>
        <pt x="463" y="695" on="1"/>
        <pt x="502" y="704" on="0"/>
        <pt x="513" y="745" on="1"/>
        <pt x="514" y="752" on="0"/>
        <pt x="514" y="774" on="0"/>
        <pt x="494" y="798" on="0"/>
        <pt x="469" y="798" on="1"/>
        <pt x="412" y="798" on="0"/>
        <pt x="400" y="745" on="1"/>
        <pt x="398" y="736" on="0"/>
      </contour>
    </TTGlyph>
    <TTGlyph name="Aringacute" xMin="27" yMin="0" xMax="614" yMax="1021">
      <contour>
        <pt x="370" y="671" on="1"/>
        <pt x="354" y="688" on="0"/>
        <pt x="354" y="728" on="0"/>
        <pt x="359" y="745" on="1"/>
        <pt x="372" y="792" on="0"/>
        <pt x="435" y="841" on="0"/>
        <pt x="524" y="841" on="0"/>
        <pt x="545" y="817" on="1"/>
        <pt x="558" y="802" on="0"/>
        <pt x="558" y="782" on="1"/>
        <pt x="558" y="710" on="0"/>
        <pt x="508" y="673" on="1"/>
        <pt x="531" y="0" on="1"/>
        <pt x="470" y="0" on="1"/>
        <pt x="462" y="191" on="1"/>
        <pt x="188" y="191" on="1"/>
        <pt x="89" y="0" on="1"/>
        <pt x="27" y="0" on="1"/>
      </contour>
      <contour>
        <pt x="417" y="640" on="1"/>
        <pt x="215" y="245" on="1"/>
        <pt x="462" y="245" on="1"/>
        <pt x="449" y="640" on="1"/>
      </contour>
      <contour>
        <pt x="395" y="881" on="1"/>
        <pt x="389" y="927" on="1"/>
        <pt x="607" y="1021" on="1"/>
        <pt x="614" y="968" on="1"/>
      </contour>
      <contour>
        <pt x="398" y="728" on="1"/>
        <pt x="398" y="702" on="0"/>
        <pt x="425" y="695" on="1"/>
        <pt x="463" y="695" on="1"/>
        <pt x="502" y="704" on="0"/>
        <pt x="513" y="745" on="1"/>
        <pt x="514" y="752" on="0"/>
        <pt x="514" y="774" on="0"/>
        <pt x="494" y="798" on="0"/>
        <pt x="469" y="798" on="1"/>
        <pt x="412" y="798" on="0"/>
        <pt x="400" y="745" on="1"/>
        <pt x="398" y="736" on="0"/>
      </contour>
    </TTGlyph>
    <TTGlyph name="Atilde" xMin="27" yMin="0" xMax="629" yMax="920">
      <contour>
        <pt x="533" y="809" on="1"/>
        <pt x="510" y="809" on="0"/>
        <pt x="408" y="868" on="0"/>
        <pt x="396" y="868" on="1"/>
        <pt x="377" y="868" on="0"/>
        <pt x="324" y="830" on="1"/>
        <pt x="306" y="817" on="1"/>
        <pt x="304" y="861" on="1"/>
        <pt x="371" y="920" on="0"/>
        <pt x="432" y="920" on="0"/>
        <pt x="532" y="862" on="0"/>
        <pt x="542" y="862" on="1"/>
        <pt x="562" y="862" on="0"/>
        <pt x="610" y="898" on="1"/>
        <pt x="626" y="910" on="1"/>
        <pt x="629" y="868" on="1"/>
        <pt x="566" y="809" on="0"/>
      </contour>
      <contour>
        <pt x="27" y="0" on="1"/>
        <pt x="382" y="695" on="1"/>
        <pt x="508" y="695" on="1"/>
        <pt x="531" y="0" on="1"/>
        <pt x="470" y="0" on="1"/>
        <pt x="462" y="191" on="1"/>
        <pt x="188" y="191" on="1"/>
        <pt x="89" y="0" on="1"/>
      </contour>
      <contour>
        <pt x="417" y="640" on="1"/>
        <pt x="215" y="245" on="1"/>
        <pt x="462" y="245" on="1"/>
        <pt x="449" y="640" on="1"/>
      </contour>
    </TTGlyph>
    <TTGlyph name="B" xMin="81" yMin="0" xMax="624" yMax="695">
      <contour>
        <pt x="461" y="695" on="1"/>
        <pt x="543" y="695" on="0"/>
        <pt x="624" y="633" on="0"/>
        <pt x="624" y="487" on="0"/>
        <pt x="548" y="383" on="0"/>
        <pt x="490" y="360" on="1"/>
        <pt x="534" y="344" on="0"/>
        <pt x="578" y="288" on="0"/>
        <pt x="578" y="240" on="1"/>
        <pt x="578" y="129" on="0"/>
        <pt x="441" y="0" on="0"/>
        <pt x="315" y="0" on="1"/>
        <pt x="81" y="0" on="1"/>
        <pt x="241" y="695" on="1"/>
      </contour>
      <contour>
        <pt x="386" y="328" on="1"/>
        <pt x="218" y="328" on="1"/>
        <pt x="155" y="54" on="1"/>
        <pt x="328" y="54" on="1"/>
        <pt x="416" y="54" on="0"/>
        <pt x="514" y="153" on="0"/>
        <pt x="514" y="239" on="1"/>
        <pt x="514" y="289" on="0"/>
        <pt x="447" y="328" on="0"/>
      </contour>
      <contour>
        <pt x="450" y="641" on="1"/>
        <pt x="289" y="641" on="1"/>
        <pt x="230" y="382" on="1"/>
        <pt x="396" y="382" on="1"/>
        <pt x="469" y="382" on="0"/>
        <pt x="561" y="481" on="0"/>
        <pt x="561" y="554" on="1"/>
        <pt x="561" y="603" on="0"/>
        <pt x="509" y="641" on="0"/>
      </contour>
    </TTGlyph>
    <TTGlyph name="C" xMin="115" yMin="-10" xMax="629" yMax="705">
      <contour>
        <pt x="305" y="-10" on="1"/>
        <pt x="115" y="-10" on="0"/>
        <pt x="115" y="189" on="1"/>
        <pt x="115" y="331" on="0"/>
        <pt x="168" y="462" on="1"/>
        <pt x="196" y="531" on="0"/>
        <pt x="275" y="638" on="0"/>
        <pt x="394" y="705" on="0"/>
        <pt x="464" y="705" on="1"/>
        <pt x="533" y="705" on="0"/>
        <pt x="605" y="688" on="1"/>
        <pt x="629" y="683" on="1"/>
        <pt x="615" y="633" on="1"/>
        <pt x="534" y="649" on="0"/>
        <pt x="393" y="649" on="0"/>
        <pt x="283" y="562" on="0"/>
        <pt x="250" y="493" on="1"/>
        <pt x="179" y="348" on="0"/>
        <pt x="179" y="191" on="1"/>
        <pt x="179" y="117" on="0"/>
        <pt x="244" y="46" on="0"/>
        <pt x="314" y="46" on="1"/>
        <pt x="389" y="46" on="0"/>
        <pt x="453" y="58" on="1"/>
        <pt x="476" y="63" on="1"/>
        <pt x="473" y="12" on="1"/>
        <pt x="384" y="-10" on="0"/>
      </contour>
    </TTGlyph>
    <TTGlyph name="Cacute" xMin="115" yMin="-10" xMax="637" yMax="930">
      <contour>
        <pt x="305" y="-10" on="1"/>
        <pt x="115" y="-10" on="0"/>
        <pt x="115" y="189" on="1"/>
        <pt x="115" y="331" on="0"/>
        <pt x="168" y="462" on="1"/>
        <pt x="196" y="531" on="0"/>
        <pt x="275" y="638" on="0"/>
        <pt x="394" y="705" on="0"/>
        <pt x="464" y="705" on="1"/>
        <pt x="533" y="705" on="0"/>
        <pt x="605" y="688" on="1"/>
        <pt x="629" y="683" on="1"/>
        <pt x="615" y="633" on="1"/>
        <pt x="534" y="649" on="0"/>
        <pt x="393" y="649" on="0"/>
        <pt x="283" y="562" on="0"/>
        <pt x="250" y="493" on="1"/>
        <pt x="179" y="348" on="0"/>
        <pt x="179" y="191" on="1"/>
        <pt x="179" y="117" on="0"/>
        <pt x="244" y="46" on="0"/>
        <pt x="314" y="46" on="1"/>
        <pt x="389" y="46" on="0"/>
        <pt x="453" y="58" on="1"/>
        <pt x="476" y="63" on="1"/>
        <pt x="473" y="12" on="1"/>
        <pt x="384" y="-10" on="0"/>
      </contour>
      <contour>
        <pt x="417" y="790" on="1"/>
        <pt x="409" y="835" on="1"/>
        <pt x="628" y="930" on="1"/>
        <pt x="637" y="878" on="1"/>
      </contour>
    </TTGlyph>
    <TTGlyph name="Ccaron" xMin="115" yMin="-10" xMax="663" yMax="930">
      <contour>
        <pt x="305" y="-10" on="1"/>
        <pt x="115" y="-10" on="0"/>
        <pt x="115" y="189" on="1"/>
        <pt x="115" y="331" on="0"/>
        <pt x="168" y="462" on="1"/>
        <pt x="196" y="531" on="0"/>
        <pt x="275" y="638" on="0"/>
        <pt x="394" y="705" on="0"/>
        <pt x="464" y="705" on="1"/>
        <pt x="533" y="705" on="0"/>
        <pt x="605" y="688" on="1"/>
        <pt x="629" y="683" on="1"/>
        <pt x="615" y="633" on="1"/>
        <pt x="534" y="649" on="0"/>
        <pt x="393" y="649" on="0"/>
        <pt x="283" y="562" on="0"/>
        <pt x="250" y="493" on="1"/>
        <pt x="179" y="348" on="0"/>
        <pt x="179" y="191" on="1"/>
        <pt x="179" y="117" on="0"/>
        <pt x="244" y="46" on="0"/>
        <pt x="314" y="46" on="1"/>
        <pt x="389" y="46" on="0"/>
        <pt x="453" y="58" on="1"/>
        <pt x="476" y="63" on="1"/>
        <pt x="473" y="12" on="1"/>
        <pt x="384" y="-10" on="0"/>
      </contour>
      <contour>
        <pt x="663" y="930" on="1"/>
        <pt x="507" y="796" on="1"/>
        <pt x="471" y="796" on="1"/>
        <pt x="373" y="930" on="1"/>
        <pt x="432" y="930" on="1"/>
        <pt x="497" y="841" on="1"/>
        <pt x="600" y="930" on="1"/>
      </contour>
    </TTGlyph>
    <TTGlyph name="Ccedilla" xMin="115" yMin="-207" xMax="629" yMax="705">
      <contour>
        <pt x="297" y="-48" on="1"/>
        <pt x="380" y="-48" on="0"/>
        <pt x="380" y="-102" on="1"/>
        <pt x="380" y="-112" on="0"/>
        <pt x="377" y="-124" on="1"/>
        <pt x="358" y="-207" on="0"/>
        <pt x="273" y="-207" on="1"/>
        <pt x="195" y="-201" on="1"/>
        <pt x="206" y="-157" on="1"/>
        <pt x="245" y="-161" on="0"/>
        <pt x="273" y="-161" on="1"/>
        <pt x="315" y="-161" on="0"/>
        <pt x="325" y="-122" on="1"/>
        <pt x="326" y="-116" on="0"/>
        <pt x="326" y="-111" on="1"/>
        <pt x="326" y="-86" on="0"/>
        <pt x="291" y="-86" on="1"/>
        <pt x="247" y="-86" on="1"/>
        <pt x="266" y="-7" on="1"/>
        <pt x="115" y="12" on="0"/>
        <pt x="115" y="189" on="1"/>
        <pt x="115" y="331" on="0"/>
        <pt x="168" y="462" on="1"/>
        <pt x="196" y="531" on="0"/>
        <pt x="275" y="638" on="0"/>
        <pt x="394" y="705" on="0"/>
        <pt x="464" y="705" on="1"/>
        <pt x="533" y="705" on="0"/>
        <pt x="605" y="688" on="1"/>
        <pt x="629" y="683" on="1"/>
        <pt x="615" y="633" on="1"/>
        <pt x="534" y="649" on="0"/>
        <pt x="393" y="649" on="0"/>
        <pt x="283" y="562" on="0"/>
        <pt x="250" y="493" on="1"/>
        <pt x="179" y="348" on="0"/>
        <pt x="179" y="191" on="1"/>
        <pt x="179" y="117" on="0"/>
        <pt x="244" y="46" on="0"/>
        <pt x="314" y="46" on="1"/>
        <pt x="389" y="46" on="0"/>
        <pt x="453" y="58" on="1"/>
        <pt x="476" y="63" on="1"/>
        <pt x="473" y="12" on="1"/>
        <pt x="384" y="-10" on="0"/>
        <pt x="305" y="-10" on="1"/>
        <pt x="302" y="-10" on="1"/>
        <pt x="292" y="-48" on="1"/>
      </contour>
    </TTGlyph>
    <TTGlyph name="Ccircumflex" xMin="115" yMin="-10" xMax="634" yMax="931">
      <contour>
        <pt x="305" y="-10" on="1"/>
        <pt x="115" y="-10" on="0"/>
        <pt x="115" y="189" on="1"/>
        <pt x="115" y="331" on="0"/>
        <pt x="168" y="462" on="1"/>
        <pt x="196" y="531" on="0"/>
        <pt x="275" y="638" on="0"/>
        <pt x="394" y="705" on="0"/>
        <pt x="464" y="705" on="1"/>
        <pt x="533" y="705" on="0"/>
        <pt x="605" y="688" on="1"/>
        <pt x="629" y="683" on="1"/>
        <pt x="615" y="633" on="1"/>
        <pt x="534" y="649" on="0"/>
        <pt x="393" y="649" on="0"/>
        <pt x="283" y="562" on="0"/>
        <pt x="250" y="493" on="1"/>
        <pt x="179" y="348" on="0"/>
        <pt x="179" y="191" on="1"/>
        <pt x="179" y="117" on="0"/>
        <pt x="244" y="46" on="0"/>
        <pt x="314" y="46" on="1"/>
        <pt x="389" y="46" on="0"/>
        <pt x="453" y="58" on="1"/>
        <pt x="476" y="63" on="1"/>
        <pt x="473" y="12" on="1"/>
        <pt x="384" y="-10" on="0"/>
      </contour>
      <contour>
        <pt x="346" y="797" on="1"/>
        <pt x="507" y="931" on="1"/>
        <pt x="537" y="931" on="1"/>
        <pt x="634" y="797" on="1"/>
        <pt x="578" y="797" on="1"/>
        <pt x="517" y="883" on="1"/>
        <pt x="412" y="797" on="1"/>
      </contour>
    </TTGlyph>
    <TTGlyph name="Cdotaccent" xMin="115" yMin="-10" xMax="629" yMax="876">
      <contour>
        <pt x="305" y="-10" on="1"/>
        <pt x="115" y="-10" on="0"/>
        <pt x="115" y="189" on="1"/>
        <pt x="115" y="331" on="0"/>
        <pt x="168" y="462" on="1"/>
        <pt x="196" y="531" on="0"/>
        <pt x="275" y="638" on="0"/>
        <pt x="394" y="705" on="0"/>
        <pt x="464" y="705" on="1"/>
        <pt x="533" y="705" on="0"/>
        <pt x="605" y="688" on="1"/>
        <pt x="629" y="683" on="1"/>
        <pt x="615" y="633" on="1"/>
        <pt x="534" y="649" on="0"/>
        <pt x="393" y="649" on="0"/>
        <pt x="283" y="562" on="0"/>
        <pt x="250" y="493" on="1"/>
        <pt x="179" y="348" on="0"/>
        <pt x="179" y="191" on="1"/>
        <pt x="179" y="117" on="0"/>
        <pt x="244" y="46" on="0"/>
        <pt x="314" y="46" on="1"/>
        <pt x="389" y="46" on="0"/>
        <pt x="453" y="58" on="1"/>
        <pt x="476" y="63" on="1"/>
        <pt x="473" y="12" on="1"/>
        <pt x="384" y="-10" on="0"/>
      </contour>
      <contour>
        <pt x="461" y="798" on="1"/>
        <pt x="478" y="876" on="1"/>
        <pt x="528" y="876" on="1"/>
        <pt x="511" y="798" on="1"/>
      </contour>
    </TTGlyph>
    <TTGlyph name="D" xMin="81" yMin="0" xMax="649" yMax="695">
      <contour>
        <pt x="319" y="0" on="1"/>
        <pt x="81" y="0" on="1"/>
        <pt x="241" y="695" on="1"/>
        <pt x="466" y="695" on="1"/>
        <pt x="559" y="695" on="0"/>
        <pt x="649" y="596" on="0"/>
        <pt x="649" y="489" on="1"/>
        <pt x="649" y="351" on="0"/>
        <pt x="598" y="227" on="1"/>
        <pt x="542" y="87" on="0"/>
        <pt x="440" y="31" on="1"/>
        <pt x="385" y="0" on="0"/>
      </contour>
      <contour>
        <pt x="552" y="275" on="0"/>
        <pt x="585" y="422" on="0"/>
        <pt x="585" y="568" on="0"/>
        <pt x="524" y="640" on="0"/>
        <pt x="454" y="640" on="1"/>
        <pt x="290" y="640" on="1"/>
        <pt x="156" y="55" on="1"/>
        <pt x="329" y="55" on="1"/>
        <pt x="390" y="55" on="0"/>
        <pt x="491" y="142" on="0"/>
      </contour>
    </TTGlyph>
    <TTGlyph name="Dcaron" xMin="81" yMin="0" xMax="649" yMax="930">
      <contour>
        <pt x="319" y="0" on="1"/>
        <pt x="81" y="0" on="1"/>
        <pt x="241" y="695" on="1"/>
        <pt x="466" y="695" on="1"/>
        <pt x="559" y="695" on="0"/>
        <pt x="649" y="596" on="0"/>
        <pt x="649" y="489" on="1"/>
        <pt x="649" y="351" on="0"/>
        <pt x="598" y="227" on="1"/>
        <pt x="572" y="162" on="0"/>
        <pt x="496" y="62" on="0"/>
        <pt x="385" y="0" on="0"/>
      </contour>
      <contour>
        <pt x="585" y="568" on="0"/>
        <pt x="524" y="640" on="0"/>
        <pt x="454" y="640" on="1"/>
        <pt x="290" y="640" on="1"/>
        <pt x="156" y="55" on="1"/>
        <pt x="329" y="55" on="1"/>
        <pt x="390" y="55" on="0"/>
        <pt x="491" y="142" on="0"/>
        <pt x="552" y="275" on="0"/>
        <pt x="585" y="422" on="0"/>
      </contour>
      <contour>
        <pt x="621" y="930" on="1"/>
        <pt x="465" y="796" on="1"/>
        <pt x="429" y="796" on="1"/>
        <pt x="331" y="930" on="1"/>
        <pt x="390" y="930" on="1"/>
        <pt x="455" y="841" on="1"/>
        <pt x="558" y="930" on="1"/>
      </contour>
    </TTGlyph>
    <TTGlyph name="Dcroat" xMin="84" yMin="0" xMax="652" yMax="695">
      <contour>
        <pt x="322" y="0" on="1"/>
        <pt x="84" y="0" on="1"/>
        <pt x="157" y="318" on="1"/>
        <pt x="87" y="318" on="1"/>
        <pt x="100" y="380" on="1"/>
        <pt x="171" y="380" on="1"/>
        <pt x="244" y="695" on="1"/>
        <pt x="469" y="695" on="1"/>
        <pt x="562" y="695" on="0"/>
        <pt x="652" y="596" on="0"/>
        <pt x="652" y="489" on="1"/>
        <pt x="652" y="351" on="0"/>
        <pt x="602" y="227" on="1"/>
        <pt x="545" y="87" on="0"/>
        <pt x="444" y="31" on="1"/>
        <pt x="388" y="0" on="0"/>
      </contour>
      <contour>
        <pt x="555" y="275" on="0"/>
        <pt x="588" y="422" on="0"/>
        <pt x="588" y="568" on="0"/>
        <pt x="527" y="640" on="0"/>
        <pt x="457" y="640" on="1"/>
        <pt x="293" y="640" on="1"/>
        <pt x="233" y="380" on="1"/>
        <pt x="382" y="380" on="1"/>
        <pt x="368" y="318" on="1"/>
        <pt x="219" y="318" on="1"/>
        <pt x="159" y="55" on="1"/>
        <pt x="332" y="55" on="1"/>
        <pt x="393" y="55" on="0"/>
        <pt x="494" y="142" on="0"/>
      </contour>
    </TTGlyph>
    <TTGlyph name="Delta" xMin="86" yMin="0" xMax="534" yMax="660">
      <contour>
        <pt x="534" y="0" on="1"/>
        <pt x="86" y="0" on="1"/>
        <pt x="86" y="45" on="1"/>
        <pt x="253" y="660" on="1"/>
        <pt x="366" y="660" on="1"/>
        <pt x="534" y="45" on="1"/>
      </contour>
      <contour>
        <pt x="322" y="606" on="1"/>
        <pt x="297" y="606" on="1"/>
        <pt x="149" y="54" on="1"/>
        <pt x="470" y="54" on="1"/>
      </contour>
    </TTGlyph>
    <TTGlyph name="E" xMin="81" yMin="0" xMax="624" yMax="695">
      <contour>
        <pt x="81" y="0" on="1"/>
        <pt x="241" y="695" on="1"/>
        <pt x="624" y="695" on="1"/>
        <pt x="611" y="640" on="1"/>
        <pt x="290" y="640" on="1"/>
        <pt x="230" y="382" on="1"/>
        <pt x="496" y="382" on="1"/>
        <pt x="483" y="327" on="1"/>
        <pt x="218" y="327" on="1"/>
        <pt x="155" y="55" on="1"/>
        <pt x="476" y="55" on="1"/>
        <pt x="463" y="0" on="1"/>
      </contour>
    </TTGlyph>
    <TTGlyph name="Eacute" xMin="81" yMin="0" xMax="624" yMax="930">
      <contour>
        <pt x="383" y="790" on="1"/>
        <pt x="375" y="835" on="1"/>
        <pt x="594" y="930" on="1"/>
        <pt x="603" y="878" on="1"/>
      </contour>
      <contour>
        <pt x="81" y="0" on="1"/>
        <pt x="241" y="695" on="1"/>
        <pt x="624" y="695" on="1"/>
        <pt x="611" y="640" on="1"/>
        <pt x="290" y="640" on="1"/>
        <pt x="230" y="382" on="1"/>
        <pt x="496" y="382" on="1"/>
        <pt x="483" y="327" on="1"/>
        <pt x="218" y="327" on="1"/>
        <pt x="155" y="55" on="1"/>
        <pt x="476" y="55" on="1"/>
        <pt x="463" y="0" on="1"/>
      </contour>
    </TTGlyph>
    <TTGlyph name="Ebreve" xMin="81" yMin="0" xMax="624" yMax="922">
      <contour>
        <pt x="393" y="922" on="1"/>
        <pt x="391" y="910" on="0"/>
        <pt x="391" y="876" on="0"/>
        <pt x="419" y="847" on="0"/>
        <pt x="491" y="847" on="0"/>
        <pt x="548" y="889" on="0"/>
        <pt x="557" y="922" on="1"/>
        <pt x="610" y="922" on="1"/>
        <pt x="593" y="863" on="0"/>
        <pt x="508" y="799" on="0"/>
        <pt x="385" y="799" on="0"/>
        <pt x="357" y="830" on="1"/>
        <pt x="337" y="852" on="0"/>
        <pt x="337" y="890" on="1"/>
        <pt x="337" y="905" on="0"/>
        <pt x="340" y="922" on="1"/>
      </contour>
      <contour>
        <pt x="81" y="0" on="1"/>
        <pt x="241" y="695" on="1"/>
        <pt x="624" y="695" on="1"/>
        <pt x="611" y="640" on="1"/>
        <pt x="290" y="640" on="1"/>
        <pt x="230" y="382" on="1"/>
        <pt x="496" y="382" on="1"/>
        <pt x="483" y="327" on="1"/>
        <pt x="218" y="327" on="1"/>
        <pt x="155" y="55" on="1"/>
        <pt x="476" y="55" on="1"/>
        <pt x="463" y="0" on="1"/>
      </contour>
    </TTGlyph>
    <TTGlyph name="Ecaron" xMin="81" yMin="0" xMax="624" yMax="934">
      <contour>
        <pt x="617" y="934" on="1"/>
        <pt x="461" y="800" on="1"/>
        <pt x="425" y="800" on="1"/>
        <pt x="327" y="934" on="1"/>
        <pt x="386" y="934" on="1"/>
        <pt x="451" y="845" on="1"/>
        <pt x="554" y="934" on="1"/>
      </contour>
      <contour>
        <pt x="81" y="0" on="1"/>
        <pt x="241" y="695" on="1"/>
        <pt x="624" y="695" on="1"/>
        <pt x="611" y="640" on="1"/>
        <pt x="290" y="640" on="1"/>
        <pt x="230" y="382" on="1"/>
        <pt x="496" y="382" on="1"/>
        <pt x="483" y="327" on="1"/>
        <pt x="218" y="327" on="1"/>
        <pt x="155" y="55" on="1"/>
        <pt x="476" y="55" on="1"/>
        <pt x="463" y="0" on="1"/>
      </contour>
    </TTGlyph>
    <TTGlyph name="Ecircumflex" xMin="81" yMin="0" xMax="651" yMax="928">
      <contour>
        <pt x="363" y="794" on="1"/>
        <pt x="524" y="928" on="1"/>
        <pt x="554" y="928" on="1"/>
        <pt x="651" y="794" on="1"/>
        <pt x="595" y="794" on="1"/>
        <pt x="534" y="880" on="1"/>
        <pt x="429" y="794" on="1"/>
      </contour>
      <contour>
        <pt x="81" y="0" on="1"/>
        <pt x="241" y="695" on="1"/>
        <pt x="624" y="695" on="1"/>
        <pt x="611" y="640" on="1"/>
        <pt x="290" y="640" on="1"/>
        <pt x="230" y="382" on="1"/>
        <pt x="496" y="382" on="1"/>
        <pt x="483" y="327" on="1"/>
        <pt x="218" y="327" on="1"/>
        <pt x="155" y="55" on="1"/>
        <pt x="476" y="55" on="1"/>
        <pt x="463" y="0" on="1"/>
      </contour>
    </TTGlyph>
    <TTGlyph name="Edieresis" xMin="81" yMin="0" xMax="624" yMax="903">
      <contour>
        <pt x="343" y="820" on="1"/>
        <pt x="361" y="903" on="1"/>
        <pt x="411" y="903" on="1"/>
        <pt x="391" y="820" on="1"/>
      </contour>
      <contour>
        <pt x="527" y="820" on="1"/>
        <pt x="547" y="903" on="1"/>
        <pt x="596" y="903" on="1"/>
        <pt x="576" y="820" on="1"/>
      </contour>
      <contour>
        <pt x="81" y="0" on="1"/>
        <pt x="241" y="695" on="1"/>
        <pt x="624" y="695" on="1"/>
        <pt x="611" y="640" on="1"/>
        <pt x="290" y="640" on="1"/>
        <pt x="230" y="382" on="1"/>
        <pt x="496" y="382" on="1"/>
        <pt x="483" y="327" on="1"/>
        <pt x="218" y="327" on="1"/>
        <pt x="155" y="55" on="1"/>
        <pt x="476" y="55" on="1"/>
        <pt x="463" y="0" on="1"/>
      </contour>
    </TTGlyph>
    <TTGlyph name="Edotaccent" xMin="81" yMin="0" xMax="624" yMax="922">
      <contour>
        <pt x="430" y="844" on="1"/>
        <pt x="447" y="922" on="1"/>
        <pt x="497" y="922" on="1"/>
        <pt x="480" y="844" on="1"/>
      </contour>
      <contour>
        <pt x="81" y="0" on="1"/>
        <pt x="241" y="695" on="1"/>
        <pt x="624" y="695" on="1"/>
        <pt x="611" y="640" on="1"/>
        <pt x="290" y="640" on="1"/>
        <pt x="230" y="382" on="1"/>
        <pt x="496" y="382" on="1"/>
        <pt x="483" y="327" on="1"/>
        <pt x="218" y="327" on="1"/>
        <pt x="155" y="55" on="1"/>
        <pt x="476" y="55" on="1"/>
        <pt x="463" y="0" on="1"/>
      </contour>
    </TTGlyph>
    <TTGlyph name="Egrave" xMin="81" yMin="0" xMax="624" yMax="925">
      <contour>
        <pt x="377" y="925" on="1"/>
        <pt x="552" y="830" on="1"/>
        <pt x="526" y="787" on="1"/>
        <pt x="348" y="875" on="1"/>
      </contour>
      <contour>
        <pt x="81" y="0" on="1"/>
        <pt x="241" y="695" on="1"/>
        <pt x="624" y="695" on="1"/>
        <pt x="611" y="640" on="1"/>
        <pt x="290" y="640" on="1"/>
        <pt x="230" y="382" on="1"/>
        <pt x="496" y="382" on="1"/>
        <pt x="483" y="327" on="1"/>
        <pt x="218" y="327" on="1"/>
        <pt x="155" y="55" on="1"/>
        <pt x="476" y="55" on="1"/>
        <pt x="463" y="0" on="1"/>
      </contour>
    </TTGlyph>
    <TTGlyph name="Emacron" xMin="81" yMin="0" xMax="624" yMax="874">
      <contour>
        <pt x="313" y="828" on="1"/>
        <pt x="323" y="874" on="1"/>
        <pt x="609" y="874" on="1"/>
        <pt x="597" y="828" on="1"/>
      </contour>
      <contour>
        <pt x="81" y="0" on="1"/>
        <pt x="241" y="695" on="1"/>
        <pt x="624" y="695" on="1"/>
        <pt x="611" y="640" on="1"/>
        <pt x="290" y="640" on="1"/>
        <pt x="230" y="382" on="1"/>
        <pt x="496" y="382" on="1"/>
        <pt x="483" y="327" on="1"/>
        <pt x="218" y="327" on="1"/>
        <pt x="155" y="55" on="1"/>
        <pt x="476" y="55" on="1"/>
        <pt x="463" y="0" on="1"/>
      </contour>
    </TTGlyph>
    <TTGlyph name="Eng" xMin="81" yMin="-181" xMax="705" yMax="695">
      <contour>
        <pt x="81" y="0" on="1"/>
        <pt x="241" y="695" on="1"/>
        <pt x="358" y="695" on="1"/>
        <pt x="479" y="61" on="1"/>
        <pt x="500" y="61" on="1"/>
        <pt x="646" y="695" on="1"/>
        <pt x="705" y="695" on="1"/>
        <pt x="546" y="4" on="1"/>
        <pt x="532" y="-60" on="0"/>
        <pt x="510" y="-122" on="0"/>
        <pt x="465" y="-169" on="0"/>
        <pt x="403" y="-181" on="0"/>
        <pt x="346" y="-181" on="1"/>
        <pt x="356" y="-126" on="1"/>
        <pt x="421" y="-126" on="0"/>
        <pt x="466" y="-81" on="0"/>
        <pt x="485" y="0" on="1"/>
        <pt x="432" y="0" on="1"/>
        <pt x="308" y="636" on="1"/>
        <pt x="287" y="636" on="1"/>
        <pt x="139" y="0" on="1"/>
      </contour>
    </TTGlyph>
    <TTGlyph name="Eogonek" xMin="81" yMin="-202" xMax="624" yMax="695">
      <contour>
        <pt x="347" y="-126" on="1"/>
        <pt x="347" y="-148" on="0"/>
        <pt x="375" y="-148" on="1"/>
        <pt x="426" y="-142" on="1"/>
        <pt x="420" y="-193" on="1"/>
        <pt x="378" y="-202" on="0"/>
        <pt x="349" y="-202" on="1"/>
        <pt x="281" y="-202" on="0"/>
        <pt x="281" y="-83" on="0"/>
        <pt x="379" y="0" on="1"/>
        <pt x="81" y="0" on="1"/>
        <pt x="241" y="695" on="1"/>
        <pt x="624" y="695" on="1"/>
        <pt x="611" y="640" on="1"/>
        <pt x="290" y="640" on="1"/>
        <pt x="230" y="382" on="1"/>
        <pt x="496" y="382" on="1"/>
        <pt x="483" y="327" on="1"/>
        <pt x="218" y="327" on="1"/>
        <pt x="155" y="55" on="1"/>
        <pt x="476" y="55" on="1"/>
        <pt x="463" y="0" on="1"/>
        <pt x="441" y="0" on="1"/>
        <pt x="410" y="-24" on="0"/>
        <pt x="347" y="-101" on="0"/>
      </contour>
    </TTGlyph>
    <TTGlyph name="Eth" xMin="84" yMin="0" xMax="652" yMax="695">
      <contour>
        <pt x="322" y="0" on="1"/>
        <pt x="84" y="0" on="1"/>
        <pt x="157" y="318" on="1"/>
        <pt x="87" y="318" on="1"/>
        <pt x="100" y="380" on="1"/>
        <pt x="171" y="380" on="1"/>
        <pt x="244" y="695" on="1"/>
        <pt x="469" y="695" on="1"/>
        <pt x="562" y="695" on="0"/>
        <pt x="652" y="596" on="0"/>
        <pt x="652" y="489" on="1"/>
        <pt x="652" y="351" on="0"/>
        <pt x="602" y="227" on="1"/>
        <pt x="545" y="87" on="0"/>
        <pt x="444" y="31" on="1"/>
        <pt x="388" y="0" on="0"/>
      </contour>
      <contour>
        <pt x="555" y="275" on="0"/>
        <pt x="588" y="422" on="0"/>
        <pt x="588" y="568" on="0"/>
        <pt x="527" y="640" on="0"/>
        <pt x="457" y="640" on="1"/>
        <pt x="293" y="640" on="1"/>
        <pt x="233" y="380" on="1"/>
        <pt x="383" y="380" on="1"/>
        <pt x="368" y="318" on="1"/>
        <pt x="219" y="318" on="1"/>
        <pt x="159" y="55" on="1"/>
        <pt x="332" y="55" on="1"/>
        <pt x="393" y="55" on="0"/>
        <pt x="494" y="142" on="0"/>
      </contour>
    </TTGlyph>
    <TTGlyph name="Euro" xMin="102" yMin="-10" xMax="640" yMax="671">
      <contour>
        <pt x="332" y="-10" on="1"/>
        <pt x="151" y="-10" on="0"/>
        <pt x="151" y="180" on="1"/>
        <pt x="151" y="204" on="0"/>
        <pt x="152" y="216" on="1"/>
        <pt x="102" y="216" on="1"/>
        <pt x="114" y="266" on="1"/>
        <pt x="157" y="266" on="1"/>
        <pt x="166" y="333" on="0"/>
        <pt x="181" y="381" on="1"/>
        <pt x="140" y="381" on="1"/>
        <pt x="152" y="431" on="1"/>
        <pt x="198" y="431" on="1"/>
        <pt x="239" y="538" on="0"/>
        <pt x="383" y="671" on="0"/>
        <pt x="483" y="671" on="1"/>
        <pt x="545" y="671" on="0"/>
        <pt x="618" y="655" on="1"/>
        <pt x="640" y="650" on="1"/>
        <pt x="627" y="602" on="1"/>
        <pt x="550" y="618" on="0"/>
        <pt x="408" y="618" on="0"/>
        <pt x="297" y="516" on="0"/>
        <pt x="261" y="431" on="1"/>
        <pt x="544" y="431" on="1"/>
        <pt x="533" y="381" on="1"/>
        <pt x="243" y="381" on="1"/>
        <pt x="224" y="322" on="0"/>
        <pt x="217" y="266" on="1"/>
        <pt x="507" y="266" on="1"/>
        <pt x="496" y="216" on="1"/>
        <pt x="213" y="216" on="1"/>
        <pt x="212" y="204" on="0"/>
        <pt x="212" y="182" on="1"/>
        <pt x="212" y="111" on="0"/>
        <pt x="274" y="44" on="0"/>
        <pt x="341" y="44" on="1"/>
        <pt x="407" y="44" on="0"/>
        <pt x="473" y="56" on="1"/>
        <pt x="495" y="60" on="1"/>
        <pt x="492" y="11" on="1"/>
        <pt x="407" y="-10" on="0"/>
      </contour>
    </TTGlyph>
    <TTGlyph name="F" xMin="81" yMin="0" xMax="615" yMax="695">
      <contour>
        <pt x="81" y="0" on="1"/>
        <pt x="241" y="695" on="1"/>
        <pt x="615" y="695" on="1"/>
        <pt x="602" y="640" on="1"/>
        <pt x="290" y="640" on="1"/>
        <pt x="223" y="350" on="1"/>
        <pt x="491" y="350" on="1"/>
        <pt x="478" y="296" on="1"/>
        <pt x="210" y="296" on="1"/>
        <pt x="142" y="0" on="1"/>
      </contour>
    </TTGlyph>
    <TTGlyph name="G" xMin="116" yMin="-10" xMax="667" yMax="705">
      <contour>
        <pt x="320" y="-10" on="1"/>
        <pt x="116" y="-10" on="0"/>
        <pt x="116" y="182" on="1"/>
        <pt x="116" y="377" on="0"/>
        <pt x="200" y="534" on="1"/>
        <pt x="242" y="611" on="0"/>
        <pt x="381" y="705" on="0"/>
        <pt x="469" y="705" on="1"/>
        <pt x="553" y="705" on="0"/>
        <pt x="640" y="683" on="1"/>
        <pt x="667" y="676" on="1"/>
        <pt x="651" y="628" on="1"/>
        <pt x="550" y="650" on="0"/>
        <pt x="391" y="650" on="0"/>
        <pt x="279" y="560" on="0"/>
        <pt x="246" y="488" on="1"/>
        <pt x="180" y="342" on="0"/>
        <pt x="180" y="181" on="1"/>
        <pt x="180" y="45" on="0"/>
        <pt x="326" y="45" on="1"/>
        <pt x="382" y="45" on="0"/>
        <pt x="442" y="58" on="1"/>
        <pt x="462" y="63" on="1"/>
        <pt x="518" y="301" on="1"/>
        <pt x="403" y="301" on="1"/>
        <pt x="415" y="354" on="1"/>
        <pt x="592" y="354" on="1"/>
        <pt x="513" y="18" on="1"/>
        <pt x="420" y="-10" on="0"/>
      </contour>
    </TTGlyph>
    <TTGlyph name="Gbreve" xMin="116" yMin="-10" xMax="671" yMax="922">
      <contour>
        <pt x="442" y="922" on="1"/>
        <pt x="440" y="915" on="0"/>
        <pt x="440" y="873" on="0"/>
        <pt x="475" y="840" on="0"/>
        <pt x="548" y="840" on="0"/>
        <pt x="604" y="885" on="0"/>
        <pt x="614" y="922" on="1"/>
        <pt x="671" y="922" on="1"/>
        <pt x="654" y="860" on="0"/>
        <pt x="558" y="782" on="0"/>
        <pt x="439" y="782" on="0"/>
        <pt x="382" y="841" on="0"/>
        <pt x="381" y="886" on="1"/>
        <pt x="381" y="904" on="0"/>
        <pt x="384" y="922" on="1"/>
      </contour>
      <contour>
        <pt x="320" y="-10" on="1"/>
        <pt x="116" y="-10" on="0"/>
        <pt x="116" y="182" on="1"/>
        <pt x="116" y="377" on="0"/>
        <pt x="200" y="534" on="1"/>
        <pt x="242" y="611" on="0"/>
        <pt x="381" y="705" on="0"/>
        <pt x="469" y="705" on="1"/>
        <pt x="553" y="705" on="0"/>
        <pt x="640" y="683" on="1"/>
        <pt x="667" y="676" on="1"/>
        <pt x="651" y="628" on="1"/>
        <pt x="550" y="650" on="0"/>
        <pt x="391" y="650" on="0"/>
        <pt x="279" y="560" on="0"/>
        <pt x="246" y="488" on="1"/>
        <pt x="180" y="342" on="0"/>
        <pt x="180" y="181" on="1"/>
        <pt x="180" y="45" on="0"/>
        <pt x="326" y="45" on="1"/>
        <pt x="382" y="45" on="0"/>
        <pt x="442" y="58" on="1"/>
        <pt x="462" y="63" on="1"/>
        <pt x="518" y="301" on="1"/>
        <pt x="403" y="301" on="1"/>
        <pt x="415" y="354" on="1"/>
        <pt x="592" y="354" on="1"/>
        <pt x="513" y="18" on="1"/>
        <pt x="420" y="-10" on="0"/>
      </contour>
    </TTGlyph>
    <TTGlyph name="Gcircumflex" xMin="116" yMin="-10" xMax="667" yMax="930">
      <contour>
        <pt x="349" y="785" on="1"/>
        <pt x="500" y="930" on="1"/>
        <pt x="542" y="930" on="1"/>
        <pt x="628" y="785" on="1"/>
        <pt x="567" y="785" on="1"/>
        <pt x="513" y="877" on="1"/>
        <pt x="416" y="785" on="1"/>
      </contour>
      <contour>
        <pt x="320" y="-10" on="1"/>
        <pt x="116" y="-10" on="0"/>
        <pt x="116" y="182" on="1"/>
        <pt x="116" y="377" on="0"/>
        <pt x="200" y="534" on="1"/>
        <pt x="242" y="611" on="0"/>
        <pt x="381" y="705" on="0"/>
        <pt x="469" y="705" on="1"/>
        <pt x="553" y="705" on="0"/>
        <pt x="640" y="683" on="1"/>
        <pt x="667" y="676" on="1"/>
        <pt x="651" y="628" on="1"/>
        <pt x="550" y="650" on="0"/>
        <pt x="391" y="650" on="0"/>
        <pt x="279" y="560" on="0"/>
        <pt x="246" y="488" on="1"/>
        <pt x="180" y="342" on="0"/>
        <pt x="180" y="181" on="1"/>
        <pt x="180" y="45" on="0"/>
        <pt x="326" y="45" on="1"/>
        <pt x="382" y="45" on="0"/>
        <pt x="442" y="58" on="1"/>
        <pt x="462" y="63" on="1"/>
        <pt x="518" y="301" on="1"/>
        <pt x="403" y="301" on="1"/>
        <pt x="415" y="354" on="1"/>
        <pt x="592" y="354" on="1"/>
        <pt x="513" y="18" on="1"/>
        <pt x="420" y="-10" on="0"/>
      </contour>
    </TTGlyph>
    <TTGlyph name="Gcommaaccent" xMin="116" yMin="-276" xMax="667" yMax="705">
      <contour>
        <pt x="320" y="-10" on="1"/>
        <pt x="116" y="-10" on="0"/>
        <pt x="116" y="182" on="1"/>
        <pt x="116" y="377" on="0"/>
        <pt x="200" y="534" on="1"/>
        <pt x="242" y="611" on="0"/>
        <pt x="381" y="705" on="0"/>
        <pt x="469" y="705" on="1"/>
        <pt x="553" y="705" on="0"/>
        <pt x="640" y="683" on="1"/>
        <pt x="667" y="676" on="1"/>
        <pt x="651" y="628" on="1"/>
        <pt x="550" y="650" on="0"/>
        <pt x="391" y="650" on="0"/>
        <pt x="279" y="560" on="0"/>
        <pt x="246" y="488" on="1"/>
        <pt x="180" y="342" on="0"/>
        <pt x="180" y="181" on="1"/>
        <pt x="180" y="45" on="0"/>
        <pt x="326" y="45" on="1"/>
        <pt x="382" y="45" on="0"/>
        <pt x="442" y="58" on="1"/>
        <pt x="462" y="63" on="1"/>
        <pt x="518" y="301" on="1"/>
        <pt x="403" y="301" on="1"/>
        <pt x="415" y="354" on="1"/>
        <pt x="592" y="354" on="1"/>
        <pt x="513" y="18" on="1"/>
        <pt x="420" y="-10" on="0"/>
      </contour>
      <contour>
        <pt x="264" y="-73" on="1"/>
        <pt x="320" y="-73" on="1"/>
        <pt x="227" y="-276" on="1"/>
        <pt x="179" y="-276" on="1"/>
      </contour>
    </TTGlyph>
    <TTGlyph name="Gdotaccent" xMin="116" yMin="-10" xMax="667" yMax="891">
      <contour>
        <pt x="476" y="813" on="1"/>
        <pt x="494" y="891" on="1"/>
        <pt x="551" y="891" on="1"/>
        <pt x="533" y="813" on="1"/>
      </contour>
      <contour>
        <pt x="320" y="-10" on="1"/>
        <pt x="116" y="-10" on="0"/>
        <pt x="116" y="182" on="1"/>
        <pt x="116" y="377" on="0"/>
        <pt x="200" y="534" on="1"/>
        <pt x="242" y="611" on="0"/>
        <pt x="381" y="705" on="0"/>
        <pt x="469" y="705" on="1"/>
        <pt x="553" y="705" on="0"/>
        <pt x="640" y="683" on="1"/>
        <pt x="667" y="676" on="1"/>
        <pt x="651" y="628" on="1"/>
        <pt x="550" y="650" on="0"/>
        <pt x="391" y="650" on="0"/>
        <pt x="279" y="560" on="0"/>
        <pt x="246" y="488" on="1"/>
        <pt x="180" y="342" on="0"/>
        <pt x="180" y="181" on="1"/>
        <pt x="180" y="45" on="0"/>
        <pt x="326" y="45" on="1"/>
        <pt x="382" y="45" on="0"/>
        <pt x="442" y="58" on="1"/>
        <pt x="462" y="63" on="1"/>
        <pt x="518" y="301" on="1"/>
        <pt x="403" y="301" on="1"/>
        <pt x="415" y="354" on="1"/>
        <pt x="592" y="354" on="1"/>
        <pt x="513" y="18" on="1"/>
        <pt x="420" y="-10" on="0"/>
      </contour>
    </TTGlyph>
    <TTGlyph name="H" xMin="81" yMin="0" xMax="704" yMax="695">
      <contour>
        <pt x="482" y="0" on="1"/>
        <pt x="556" y="322" on="1"/>
        <pt x="216" y="322" on="1"/>
        <pt x="142" y="0" on="1"/>
        <pt x="81" y="0" on="1"/>
        <pt x="241" y="695" on="1"/>
        <pt x="303" y="695" on="1"/>
        <pt x="229" y="377" on="1"/>
        <pt x="569" y="377" on="1"/>
        <pt x="643" y="695" on="1"/>
        <pt x="704" y="695" on="1"/>
        <pt x="544" y="0" on="1"/>
      </contour>
    </TTGlyph>
    <TTGlyph name="Hbar" xMin="89" yMin="0" xMax="765" yMax="695">
      <contour>
        <pt x="123" y="508" on="1"/>
        <pt x="123" y="509" on="1"/>
        <pt x="135" y="565" on="1"/>
        <pt x="219" y="565" on="1"/>
        <pt x="249" y="695" on="1"/>
        <pt x="308" y="695" on="1"/>
        <pt x="278" y="565" on="1"/>
        <pt x="624" y="565" on="1"/>
        <pt x="654" y="695" on="1"/>
        <pt x="712" y="695" on="1"/>
        <pt x="682" y="565" on="1"/>
        <pt x="765" y="565" on="1"/>
        <pt x="750" y="508" on="1"/>
        <pt x="669" y="508" on="1"/>
        <pt x="552" y="0" on="1"/>
        <pt x="494" y="0" on="1"/>
        <pt x="567" y="320" on="1"/>
        <pt x="221" y="320" on="1"/>
        <pt x="148" y="0" on="1"/>
        <pt x="89" y="0" on="1"/>
        <pt x="206" y="508" on="1"/>
      </contour>
      <contour>
        <pt x="235" y="379" on="1"/>
        <pt x="581" y="379" on="1"/>
        <pt x="611" y="508" on="1"/>
        <pt x="265" y="508" on="1"/>
      </contour>
    </TTGlyph>
    <TTGlyph name="Hcircumflex" xMin="81" yMin="0" xMax="704" yMax="931">
      <contour>
        <pt x="482" y="0" on="1"/>
        <pt x="556" y="322" on="1"/>
        <pt x="216" y="322" on="1"/>
        <pt x="142" y="0" on="1"/>
        <pt x="81" y="0" on="1"/>
        <pt x="241" y="695" on="1"/>
        <pt x="303" y="695" on="1"/>
        <pt x="229" y="377" on="1"/>
        <pt x="569" y="377" on="1"/>
        <pt x="643" y="695" on="1"/>
        <pt x="704" y="695" on="1"/>
        <pt x="544" y="0" on="1"/>
      </contour>
      <contour>
        <pt x="342" y="797" on="1"/>
        <pt x="503" y="931" on="1"/>
        <pt x="533" y="931" on="1"/>
        <pt x="630" y="797" on="1"/>
        <pt x="574" y="797" on="1"/>
        <pt x="513" y="883" on="1"/>
        <pt x="408" y="797" on="1"/>
      </contour>
    </TTGlyph>
    <TTGlyph name="I" xMin="81" yMin="0" xMax="303" yMax="695">
      <contour>
        <pt x="81" y="0" on="1"/>
        <pt x="241" y="695" on="1"/>
        <pt x="303" y="695" on="1"/>
        <pt x="142" y="0" on="1"/>
      </contour>
    </TTGlyph>
    <TTGlyph name="Iacute" xMin="81" yMin="0" xMax="461" yMax="930">
      <contour>
        <pt x="241" y="790" on="1"/>
        <pt x="233" y="835" on="1"/>
        <pt x="452" y="930" on="1"/>
        <pt x="461" y="878" on="1"/>
      </contour>
      <contour>
        <pt x="81" y="0" on="1"/>
        <pt x="241" y="695" on="1"/>
        <pt x="303" y="695" on="1"/>
        <pt x="142" y="0" on="1"/>
      </contour>
    </TTGlyph>
    <TTGlyph name="Ibreve" xMin="81" yMin="0" xMax="457" yMax="921">
      <contour>
        <pt x="240" y="921" on="1"/>
        <pt x="238" y="909" on="0"/>
        <pt x="238" y="875" on="0"/>
        <pt x="266" y="846" on="0"/>
        <pt x="338" y="846" on="0"/>
        <pt x="395" y="888" on="0"/>
        <pt x="404" y="921" on="1"/>
        <pt x="457" y="921" on="1"/>
        <pt x="440" y="862" on="0"/>
        <pt x="355" y="798" on="0"/>
        <pt x="232" y="798" on="0"/>
        <pt x="204" y="829" on="1"/>
        <pt x="184" y="851" on="0"/>
        <pt x="184" y="889" on="1"/>
        <pt x="184" y="904" on="0"/>
        <pt x="187" y="921" on="1"/>
      </contour>
      <contour>
        <pt x="81" y="0" on="1"/>
        <pt x="241" y="695" on="1"/>
        <pt x="303" y="695" on="1"/>
        <pt x="142" y="0" on="1"/>
      </contour>
    </TTGlyph>
    <TTGlyph name="Icircumflex" xMin="81" yMin="0" xMax="434" yMax="928">
      <contour>
        <pt x="146" y="794" on="1"/>
        <pt x="307" y="928" on="1"/>
        <pt x="337" y="928" on="1"/>
        <pt x="434" y="794" on="1"/>
        <pt x="378" y="794" on="1"/>
        <pt x="317" y="880" on="1"/>
        <pt x="212" y="794" on="1"/>
      </contour>
      <contour>
        <pt x="81" y="0" on="1"/>
        <pt x="241" y="695" on="1"/>
        <pt x="303" y="695" on="1"/>
        <pt x="142" y="0" on="1"/>
      </contour>
    </TTGlyph>
    <TTGlyph name="Idieresis" xMin="81" yMin="0" xMax="430" yMax="906">
      <contour>
        <pt x="177" y="823" on="1"/>
        <pt x="195" y="906" on="1"/>
        <pt x="245" y="906" on="1"/>
        <pt x="225" y="823" on="1"/>
      </contour>
      <contour>
        <pt x="361" y="823" on="1"/>
        <pt x="381" y="906" on="1"/>
        <pt x="430" y="906" on="1"/>
        <pt x="410" y="823" on="1"/>
      </contour>
      <contour>
        <pt x="81" y="0" on="1"/>
        <pt x="241" y="695" on="1"/>
        <pt x="303" y="695" on="1"/>
        <pt x="142" y="0" on="1"/>
      </contour>
    </TTGlyph>
    <TTGlyph name="Idotaccent" xMin="81" yMin="0" xMax="341" yMax="922">
      <contour>
        <pt x="274" y="844" on="1"/>
        <pt x="291" y="922" on="1"/>
        <pt x="341" y="922" on="1"/>
        <pt x="324" y="844" on="1"/>
      </contour>
      <contour>
        <pt x="81" y="0" on="1"/>
        <pt x="241" y="695" on="1"/>
        <pt x="303" y="695" on="1"/>
        <pt x="142" y="0" on="1"/>
      </contour>
    </TTGlyph>
    <TTGlyph name="Igrave" xMin="81" yMin="0" xMax="355" yMax="925">
      <contour>
        <pt x="180" y="925" on="1"/>
        <pt x="355" y="830" on="1"/>
        <pt x="329" y="787" on="1"/>
        <pt x="151" y="875" on="1"/>
      </contour>
      <contour>
        <pt x="81" y="0" on="1"/>
        <pt x="241" y="695" on="1"/>
        <pt x="303" y="695" on="1"/>
        <pt x="142" y="0" on="1"/>
      </contour>
    </TTGlyph>
    <TTGlyph name="Imacron" xMin="81" yMin="0" xMax="450" yMax="884">
      <contour>
        <pt x="154" y="838" on="1"/>
        <pt x="164" y="884" on="1"/>
        <pt x="450" y="884" on="1"/>
        <pt x="438" y="838" on="1"/>
      </contour>
      <contour>
        <pt x="81" y="0" on="1"/>
        <pt x="241" y="695" on="1"/>
        <pt x="303" y="695" on="1"/>
        <pt x="142" y="0" on="1"/>
      </contour>
    </TTGlyph>
    <TTGlyph name="Iogonek" xMin="-24" yMin="-202" xMax="303" yMax="695">
      <contour>
        <pt x="44" y="-202" on="1"/>
        <pt x="-24" y="-202" on="0"/>
        <pt x="-24" y="-142" on="1"/>
        <pt x="-24" y="-108" on="0"/>
        <pt x="44" y="-24" on="0"/>
        <pt x="82" y="6" on="1"/>
        <pt x="241" y="695" on="1"/>
        <pt x="303" y="695" on="1"/>
        <pt x="142" y="0" on="1"/>
        <pt x="109" y="-23" on="0"/>
        <pt x="42" y="-100" on="0"/>
        <pt x="42" y="-126" on="1"/>
        <pt x="42" y="-148" on="0"/>
        <pt x="70" y="-148" on="1"/>
        <pt x="121" y="-142" on="1"/>
        <pt x="115" y="-193" on="1"/>
        <pt x="73" y="-202" on="0"/>
      </contour>
    </TTGlyph>
    <TTGlyph name="Itilde" xMin="81" yMin="0" xMax="466" yMax="916">
      <contour>
        <pt x="370" y="805" on="1"/>
        <pt x="347" y="805" on="0"/>
        <pt x="245" y="864" on="0"/>
        <pt x="234" y="864" on="1"/>
        <pt x="214" y="864" on="0"/>
        <pt x="160" y="826" on="1"/>
        <pt x="143" y="813" on="1"/>
        <pt x="141" y="857" on="1"/>
        <pt x="208" y="916" on="0"/>
        <pt x="269" y="916" on="0"/>
        <pt x="369" y="858" on="0"/>
        <pt x="380" y="858" on="1"/>
        <pt x="399" y="858" on="0"/>
        <pt x="447" y="894" on="1"/>
        <pt x="463" y="906" on="1"/>
        <pt x="466" y="864" on="1"/>
        <pt x="403" y="805" on="0"/>
      </contour>
      <contour>
        <pt x="81" y="0" on="1"/>
        <pt x="241" y="695" on="1"/>
        <pt x="303" y="695" on="1"/>
        <pt x="142" y="0" on="1"/>
      </contour>
    </TTGlyph>
    <TTGlyph name="J" xMin="7" yMin="-71" xMax="343" yMax="695">
      <contour>
        <pt x="343" y="695" on="1"/>
        <pt x="209" y="114" on="1"/>
        <pt x="187" y="22" on="0"/>
        <pt x="152" y="-41" on="0"/>
        <pt x="131" y="-51" on="1"/>
        <pt x="89" y="-71" on="0"/>
        <pt x="7" y="-71" on="1"/>
        <pt x="17" y="-16" on="1"/>
        <pt x="84" y="-15" on="0"/>
        <pt x="129" y="32" on="0"/>
        <pt x="149" y="121" on="1"/>
        <pt x="282" y="695" on="1"/>
      </contour>
    </TTGlyph>
    <TTGlyph name="Jcircumflex" xMin="7" yMin="-71" xMax="469" yMax="931">
      <contour>
        <pt x="343" y="695" on="1"/>
        <pt x="209" y="114" on="1"/>
        <pt x="187" y="22" on="0"/>
        <pt x="152" y="-41" on="0"/>
        <pt x="131" y="-51" on="1"/>
        <pt x="89" y="-71" on="0"/>
        <pt x="7" y="-71" on="1"/>
        <pt x="17" y="-16" on="1"/>
        <pt x="84" y="-15" on="0"/>
        <pt x="129" y="32" on="0"/>
        <pt x="149" y="121" on="1"/>
        <pt x="282" y="695" on="1"/>
      </contour>
      <contour>
        <pt x="181" y="797" on="1"/>
        <pt x="342" y="931" on="1"/>
        <pt x="372" y="931" on="1"/>
        <pt x="469" y="797" on="1"/>
        <pt x="413" y="797" on="1"/>
        <pt x="352" y="883" on="1"/>
        <pt x="247" y="797" on="1"/>
      </contour>
    </TTGlyph>
    <TTGlyph name="K" xMin="81" yMin="0" xMax="657" yMax="695">
      <contour>
        <pt x="432" y="0" on="1"/>
        <pt x="320" y="315" on="1"/>
        <pt x="214" y="313" on="1"/>
        <pt x="142" y="0" on="1"/>
        <pt x="81" y="0" on="1"/>
        <pt x="241" y="695" on="1"/>
        <pt x="303" y="695" on="1"/>
        <pt x="227" y="368" on="1"/>
        <pt x="325" y="370" on="1"/>
        <pt x="587" y="695" on="1"/>
        <pt x="657" y="695" on="1"/>
        <pt x="374" y="344" on="1"/>
        <pt x="497" y="0" on="1"/>
      </contour>
    </TTGlyph>
    <TTGlyph name="Kcommaaccent" xMin="81" yMin="-276" xMax="657" yMax="695">
      <contour>
        <pt x="233" y="-73" on="1"/>
        <pt x="289" y="-73" on="1"/>
        <pt x="196" y="-276" on="1"/>
        <pt x="148" y="-276" on="1"/>
      </contour>
      <contour>
        <pt x="432" y="0" on="1"/>
        <pt x="320" y="315" on="1"/>
        <pt x="214" y="313" on="1"/>
        <pt x="142" y="0" on="1"/>
        <pt x="81" y="0" on="1"/>
        <pt x="241" y="695" on="1"/>
        <pt x="303" y="695" on="1"/>
        <pt x="227" y="368" on="1"/>
        <pt x="325" y="370" on="1"/>
        <pt x="587" y="695" on="1"/>
        <pt x="657" y="695" on="1"/>
        <pt x="374" y="344" on="1"/>
        <pt x="497" y="0" on="1"/>
      </contour>
    </TTGlyph>
    <TTGlyph name="L" xMin="81" yMin="0" xMax="441" yMax="695">
      <contour>
        <pt x="429" y="0" on="1"/>
        <pt x="81" y="0" on="1"/>
        <pt x="241" y="695" on="1"/>
        <pt x="303" y="695" on="1"/>
        <pt x="155" y="55" on="1"/>
        <pt x="441" y="55" on="1"/>
      </contour>
    </TTGlyph>
    <TTGlyph name="Lacute" xMin="81" yMin="0" xMax="539" yMax="930">
      <contour>
        <pt x="319" y="790" on="1"/>
        <pt x="311" y="835" on="1"/>
        <pt x="530" y="930" on="1"/>
        <pt x="539" y="878" on="1"/>
      </contour>
      <contour>
        <pt x="429" y="0" on="1"/>
        <pt x="81" y="0" on="1"/>
        <pt x="241" y="695" on="1"/>
        <pt x="303" y="695" on="1"/>
        <pt x="155" y="55" on="1"/>
        <pt x="441" y="55" on="1"/>
      </contour>
    </TTGlyph>
    <TTGlyph name="Lcaron" xMin="81" yMin="0" xMax="545" yMax="695">
      <contour>
        <pt x="545" y="695" on="1"/>
        <pt x="492" y="467" on="1"/>
        <pt x="437" y="467" on="1"/>
        <pt x="490" y="695" on="1"/>
      </contour>
      <contour>
        <pt x="429" y="0" on="1"/>
        <pt x="81" y="0" on="1"/>
        <pt x="241" y="695" on="1"/>
        <pt x="303" y="695" on="1"/>
        <pt x="155" y="55" on="1"/>
        <pt x="441" y="55" on="1"/>
      </contour>
    </TTGlyph>
    <TTGlyph name="Lcommaaccent" xMin="81" yMin="-276" xMax="441" yMax="695">
      <contour>
        <pt x="218" y="-73" on="1"/>
        <pt x="274" y="-73" on="1"/>
        <pt x="181" y="-276" on="1"/>
        <pt x="133" y="-276" on="1"/>
      </contour>
      <contour>
        <pt x="429" y="0" on="1"/>
        <pt x="81" y="0" on="1"/>
        <pt x="241" y="695" on="1"/>
        <pt x="303" y="695" on="1"/>
        <pt x="155" y="55" on="1"/>
        <pt x="441" y="55" on="1"/>
      </contour>
    </TTGlyph>
    <TTGlyph name="Lslash" xMin="68" yMin="0" xMax="443" yMax="695">
      <contour>
        <pt x="431" y="0" on="1"/>
        <pt x="83" y="0" on="1"/>
        <pt x="148" y="283" on="1"/>
        <pt x="88" y="245" on="1"/>
        <pt x="88" y="246" on="1"/>
        <pt x="68" y="291" on="1"/>
        <pt x="163" y="351" on="1"/>
        <pt x="243" y="695" on="1"/>
        <pt x="305" y="695" on="1"/>
        <pt x="235" y="396" on="1"/>
        <pt x="396" y="496" on="1"/>
        <pt x="415" y="451" on="1"/>
        <pt x="220" y="328" on="1"/>
        <pt x="157" y="55" on="1"/>
        <pt x="443" y="55" on="1"/>
      </contour>
    </TTGlyph>
    <TTGlyph name="M" xMin="81" yMin="0" xMax="858" yMax="695">
      <contour>
        <pt x="81" y="0" on="1"/>
        <pt x="241" y="695" on="1"/>
        <pt x="350" y="695" on="1"/>
        <pt x="404" y="87" on="1"/>
        <pt x="748" y="695" on="1"/>
        <pt x="858" y="695" on="1"/>
        <pt x="697" y="0" on="1"/>
        <pt x="635" y="0" on="1"/>
        <pt x="784" y="640" on="1"/>
        <pt x="773" y="640" on="1"/>
        <pt x="426" y="23" on="1"/>
        <pt x="359" y="23" on="1"/>
        <pt x="301" y="640" on="1"/>
        <pt x="290" y="640" on="1"/>
        <pt x="142" y="0" on="1"/>
      </contour>
    </TTGlyph>
    <TTGlyph name="N" xMin="81" yMin="0" xMax="705" yMax="695">
      <contour>
        <pt x="81" y="0" on="1"/>
        <pt x="241" y="695" on="1"/>
        <pt x="357" y="695" on="1"/>
        <pt x="478" y="61" on="1"/>
        <pt x="499" y="61" on="1"/>
        <pt x="645" y="695" on="1"/>
        <pt x="705" y="695" on="1"/>
        <pt x="545" y="0" on="1"/>
        <pt x="433" y="0" on="1"/>
        <pt x="309" y="636" on="1"/>
        <pt x="287" y="636" on="1"/>
        <pt x="140" y="0" on="1"/>
      </contour>
    </TTGlyph>
    <TTGlyph name="Nacute" xMin="81" yMin="0" xMax="705" yMax="930">
      <contour>
        <pt x="405" y="790" on="1"/>
        <pt x="397" y="835" on="1"/>
        <pt x="616" y="930" on="1"/>
        <pt x="625" y="878" on="1"/>
      </contour>
      <contour>
        <pt x="81" y="0" on="1"/>
        <pt x="241" y="695" on="1"/>
        <pt x="357" y="695" on="1"/>
        <pt x="478" y="61" on="1"/>
        <pt x="499" y="61" on="1"/>
        <pt x="645" y="695" on="1"/>
        <pt x="705" y="695" on="1"/>
        <pt x="545" y="0" on="1"/>
        <pt x="433" y="0" on="1"/>
        <pt x="309" y="636" on="1"/>
        <pt x="287" y="636" on="1"/>
        <pt x="140" y="0" on="1"/>
      </contour>
    </TTGlyph>
    <TTGlyph name="Ncaron" xMin="81" yMin="0" xMax="705" yMax="926">
      <contour>
        <pt x="663" y="926" on="1"/>
        <pt x="507" y="792" on="1"/>
        <pt x="471" y="792" on="1"/>
        <pt x="373" y="926" on="1"/>
        <pt x="432" y="926" on="1"/>
        <pt x="497" y="837" on="1"/>
        <pt x="600" y="926" on="1"/>
      </contour>
      <contour>
        <pt x="81" y="0" on="1"/>
        <pt x="241" y="695" on="1"/>
        <pt x="357" y="695" on="1"/>
        <pt x="478" y="61" on="1"/>
        <pt x="499" y="61" on="1"/>
        <pt x="645" y="695" on="1"/>
        <pt x="705" y="695" on="1"/>
        <pt x="545" y="0" on="1"/>
        <pt x="433" y="0" on="1"/>
        <pt x="309" y="636" on="1"/>
        <pt x="287" y="636" on="1"/>
        <pt x="140" y="0" on="1"/>
      </contour>
    </TTGlyph>
    <TTGlyph name="Ncommaaccent" xMin="81" yMin="-276" xMax="705" yMax="695">
      <contour>
        <pt x="281" y="-73" on="1"/>
        <pt x="337" y="-73" on="1"/>
        <pt x="244" y="-276" on="1"/>
        <pt x="196" y="-276" on="1"/>
      </contour>
      <contour>
        <pt x="81" y="0" on="1"/>
        <pt x="241" y="695" on="1"/>
        <pt x="357" y="695" on="1"/>
        <pt x="478" y="61" on="1"/>
        <pt x="499" y="61" on="1"/>
        <pt x="645" y="695" on="1"/>
        <pt x="705" y="695" on="1"/>
        <pt x="545" y="0" on="1"/>
        <pt x="433" y="0" on="1"/>
        <pt x="309" y="636" on="1"/>
        <pt x="287" y="636" on="1"/>
        <pt x="140" y="0" on="1"/>
      </contour>
    </TTGlyph>
    <TTGlyph name="Ntilde" xMin="81" yMin="0" xMax="705" yMax="918">
      <contour>
        <pt x="571" y="807" on="1"/>
        <pt x="548" y="807" on="0"/>
        <pt x="446" y="866" on="0"/>
        <pt x="434" y="866" on="1"/>
        <pt x="415" y="866" on="0"/>
        <pt x="362" y="828" on="1"/>
        <pt x="344" y="815" on="1"/>
        <pt x="342" y="859" on="1"/>
        <pt x="409" y="918" on="0"/>
        <pt x="470" y="918" on="0"/>
        <pt x="570" y="860" on="0"/>
        <pt x="580" y="860" on="1"/>
        <pt x="600" y="860" on="0"/>
        <pt x="648" y="896" on="1"/>
        <pt x="664" y="908" on="1"/>
        <pt x="667" y="866" on="1"/>
        <pt x="604" y="807" on="0"/>
      </contour>
      <contour>
        <pt x="81" y="0" on="1"/>
        <pt x="241" y="695" on="1"/>
        <pt x="357" y="695" on="1"/>
        <pt x="478" y="61" on="1"/>
        <pt x="499" y="61" on="1"/>
        <pt x="645" y="695" on="1"/>
        <pt x="705" y="695" on="1"/>
        <pt x="545" y="0" on="1"/>
        <pt x="433" y="0" on="1"/>
        <pt x="309" y="636" on="1"/>
        <pt x="287" y="636" on="1"/>
        <pt x="140" y="0" on="1"/>
      </contour>
    </TTGlyph>
    <TTGlyph name="O" xMin="117" yMin="-10" xMax="673" yMax="705">
      <contour>
        <pt x="180" y="115" on="0"/>
        <pt x="250" y="45" on="0"/>
        <pt x="404" y="45" on="0"/>
        <pt x="457" y="87" on="1"/>
        <pt x="530" y="145" on="0"/>
        <pt x="609" y="377" on="0"/>
        <pt x="609" y="495" on="1"/>
        <pt x="609" y="575" on="0"/>
        <pt x="535" y="650" on="0"/>
        <pt x="391" y="650" on="0"/>
        <pt x="340" y="610" on="1"/>
        <pt x="265" y="552" on="0"/>
        <pt x="180" y="311" on="0"/>
        <pt x="180" y="199" on="1"/>
      </contour>
      <contour>
        <pt x="673" y="363" on="0"/>
        <pt x="587" y="120" on="0"/>
        <pt x="430" y="-10" on="0"/>
        <pt x="217" y="-10" on="0"/>
        <pt x="117" y="86" on="0"/>
        <pt x="117" y="324" on="0"/>
        <pt x="200" y="562" on="0"/>
        <pt x="357" y="705" on="0"/>
        <pt x="459" y="705" on="1"/>
        <pt x="673" y="705" on="0"/>
        <pt x="673" y="498" on="1"/>
      </contour>
    </TTGlyph>
    <TTGlyph name="OE" xMin="109" yMin="-10" xMax="984" yMax="707">
      <contour>
        <pt x="298" y="-10" on="1"/>
        <pt x="201" y="-10" on="0"/>
        <pt x="156" y="34" on="1"/>
        <pt x="110" y="80" on="0"/>
        <pt x="110" y="171" on="1"/>
        <pt x="110" y="238" on="0"/>
        <pt x="134" y="345" on="1"/>
        <pt x="178" y="528" on="0"/>
        <pt x="333" y="707" on="0"/>
        <pt x="467" y="707" on="1"/>
        <pt x="524" y="707" on="0"/>
        <pt x="604" y="697" on="1"/>
        <pt x="984" y="697" on="1"/>
        <pt x="971" y="636" on="1"/>
        <pt x="648" y="636" on="1"/>
        <pt x="587" y="385" on="1"/>
        <pt x="853" y="385" on="1"/>
        <pt x="840" y="325" on="1"/>
        <pt x="575" y="327" on="1"/>
        <pt x="512" y="61" on="1"/>
        <pt x="834" y="61" on="1"/>
        <pt x="819" y="-1" on="1"/>
        <pt x="441" y="-1" on="1"/>
        <pt x="338" y="-10" on="0"/>
      </contour>
      <contour>
        <pt x="172" y="187" on="1"/>
        <pt x="172" y="52" on="0"/>
        <pt x="306" y="52" on="1"/>
        <pt x="374" y="52" on="0"/>
        <pt x="452" y="60" on="1"/>
        <pt x="590" y="639" on="1"/>
        <pt x="534" y="646" on="0"/>
        <pt x="458" y="646" on="1"/>
        <pt x="349" y="646" on="0"/>
        <pt x="232" y="502" on="0"/>
        <pt x="196" y="346" on="1"/>
        <pt x="172" y="252" on="0"/>
      </contour>
    </TTGlyph>
    <TTGlyph name="Oacute" xMin="117" yMin="-10" xMax="673" yMax="930">
      <contour>
        <pt x="180" y="115" on="0"/>
        <pt x="250" y="45" on="0"/>
        <pt x="404" y="45" on="0"/>
        <pt x="457" y="87" on="1"/>
        <pt x="530" y="145" on="0"/>
        <pt x="609" y="377" on="0"/>
        <pt x="609" y="495" on="1"/>
        <pt x="609" y="575" on="0"/>
        <pt x="535" y="650" on="0"/>
        <pt x="391" y="650" on="0"/>
        <pt x="340" y="610" on="1"/>
        <pt x="265" y="552" on="0"/>
        <pt x="180" y="311" on="0"/>
        <pt x="180" y="199" on="1"/>
      </contour>
      <contour>
        <pt x="673" y="363" on="0"/>
        <pt x="587" y="120" on="0"/>
        <pt x="430" y="-10" on="0"/>
        <pt x="217" y="-10" on="0"/>
        <pt x="117" y="86" on="0"/>
        <pt x="117" y="324" on="0"/>
        <pt x="200" y="562" on="0"/>
        <pt x="357" y="705" on="0"/>
        <pt x="459" y="705" on="1"/>
        <pt x="673" y="705" on="0"/>
        <pt x="673" y="498" on="1"/>
      </contour>
      <contour>
        <pt x="433" y="790" on="1"/>
        <pt x="425" y="835" on="1"/>
        <pt x="644" y="930" on="1"/>
        <pt x="653" y="878" on="1"/>
      </contour>
    </TTGlyph>
    <TTGlyph name="Obreve" xMin="117" yMin="-10" xMax="673" yMax="922">
      <contour>
        <pt x="438" y="922" on="1"/>
        <pt x="436" y="910" on="0"/>
        <pt x="436" y="876" on="0"/>
        <pt x="464" y="847" on="0"/>
        <pt x="536" y="847" on="0"/>
        <pt x="593" y="889" on="0"/>
        <pt x="602" y="922" on="1"/>
        <pt x="655" y="922" on="1"/>
        <pt x="638" y="863" on="0"/>
        <pt x="553" y="799" on="0"/>
        <pt x="430" y="799" on="0"/>
        <pt x="402" y="830" on="1"/>
        <pt x="382" y="852" on="0"/>
        <pt x="382" y="890" on="1"/>
        <pt x="382" y="905" on="0"/>
        <pt x="385" y="922" on="1"/>
      </contour>
      <contour>
        <pt x="180" y="115" on="0"/>
        <pt x="250" y="45" on="0"/>
        <pt x="404" y="45" on="0"/>
        <pt x="457" y="87" on="1"/>
        <pt x="530" y="145" on="0"/>
        <pt x="609" y="377" on="0"/>
        <pt x="609" y="495" on="1"/>
        <pt x="609" y="575" on="0"/>
        <pt x="535" y="650" on="0"/>
        <pt x="391" y="650" on="0"/>
        <pt x="340" y="610" on="1"/>
        <pt x="265" y="552" on="0"/>
        <pt x="180" y="311" on="0"/>
        <pt x="180" y="199" on="1"/>
      </contour>
      <contour>
        <pt x="673" y="363" on="0"/>
        <pt x="587" y="120" on="0"/>
        <pt x="430" y="-10" on="0"/>
        <pt x="217" y="-10" on="0"/>
        <pt x="117" y="86" on="0"/>
        <pt x="117" y="324" on="0"/>
        <pt x="200" y="562" on="0"/>
        <pt x="357" y="705" on="0"/>
        <pt x="459" y="705" on="1"/>
        <pt x="673" y="705" on="0"/>
        <pt x="673" y="498" on="1"/>
      </contour>
    </TTGlyph>
    <TTGlyph name="Ocircumflex" xMin="117" yMin="-10" xMax="673" yMax="931">
      <contour>
        <pt x="180" y="115" on="0"/>
        <pt x="250" y="45" on="0"/>
        <pt x="404" y="45" on="0"/>
        <pt x="457" y="87" on="1"/>
        <pt x="530" y="145" on="0"/>
        <pt x="609" y="377" on="0"/>
        <pt x="609" y="495" on="1"/>
        <pt x="609" y="575" on="0"/>
        <pt x="535" y="650" on="0"/>
        <pt x="391" y="650" on="0"/>
        <pt x="340" y="610" on="1"/>
        <pt x="265" y="552" on="0"/>
        <pt x="180" y="311" on="0"/>
        <pt x="180" y="199" on="1"/>
      </contour>
      <contour>
        <pt x="673" y="363" on="0"/>
        <pt x="587" y="120" on="0"/>
        <pt x="430" y="-10" on="0"/>
        <pt x="217" y="-10" on="0"/>
        <pt x="117" y="86" on="0"/>
        <pt x="117" y="324" on="0"/>
        <pt x="200" y="562" on="0"/>
        <pt x="357" y="705" on="0"/>
        <pt x="459" y="705" on="1"/>
        <pt x="673" y="705" on="0"/>
        <pt x="673" y="498" on="1"/>
      </contour>
      <contour>
        <pt x="356" y="797" on="1"/>
        <pt x="517" y="931" on="1"/>
        <pt x="547" y="931" on="1"/>
        <pt x="644" y="797" on="1"/>
        <pt x="588" y="797" on="1"/>
        <pt x="527" y="883" on="1"/>
        <pt x="422" y="797" on="1"/>
      </contour>
    </TTGlyph>
    <TTGlyph name="Odieresis" xMin="117" yMin="-10" xMax="673" yMax="902">
      <contour>
        <pt x="383" y="820" on="1"/>
        <pt x="402" y="902" on="1"/>
        <pt x="458" y="902" on="1"/>
        <pt x="439" y="820" on="1"/>
      </contour>
      <contour>
        <pt x="569" y="820" on="1"/>
        <pt x="587" y="902" on="1"/>
        <pt x="642" y="902" on="1"/>
        <pt x="623" y="820" on="1"/>
      </contour>
      <contour>
        <pt x="180" y="115" on="0"/>
        <pt x="250" y="45" on="0"/>
        <pt x="404" y="45" on="0"/>
        <pt x="457" y="87" on="1"/>
        <pt x="530" y="145" on="0"/>
        <pt x="609" y="377" on="0"/>
        <pt x="609" y="495" on="1"/>
        <pt x="609" y="575" on="0"/>
        <pt x="535" y="650" on="0"/>
        <pt x="391" y="650" on="0"/>
        <pt x="340" y="610" on="1"/>
        <pt x="265" y="552" on="0"/>
        <pt x="180" y="311" on="0"/>
        <pt x="180" y="199" on="1"/>
      </contour>
      <contour>
        <pt x="673" y="363" on="0"/>
        <pt x="587" y="120" on="0"/>
        <pt x="430" y="-10" on="0"/>
        <pt x="217" y="-10" on="0"/>
        <pt x="117" y="86" on="0"/>
        <pt x="117" y="324" on="0"/>
        <pt x="200" y="562" on="0"/>
        <pt x="357" y="705" on="0"/>
        <pt x="459" y="705" on="1"/>
        <pt x="673" y="705" on="0"/>
        <pt x="673" y="498" on="1"/>
      </contour>
    </TTGlyph>
    <TTGlyph name="Ograve" xMin="117" yMin="-10" xMax="673" yMax="925">
      <contour>
        <pt x="417" y="925" on="1"/>
        <pt x="592" y="830" on="1"/>
        <pt x="566" y="787" on="1"/>
        <pt x="388" y="875" on="1"/>
      </contour>
      <contour>
        <pt x="180" y="115" on="0"/>
        <pt x="250" y="45" on="0"/>
        <pt x="404" y="45" on="0"/>
        <pt x="457" y="87" on="1"/>
        <pt x="530" y="145" on="0"/>
        <pt x="609" y="377" on="0"/>
        <pt x="609" y="495" on="1"/>
        <pt x="609" y="575" on="0"/>
        <pt x="535" y="650" on="0"/>
        <pt x="391" y="650" on="0"/>
        <pt x="340" y="610" on="1"/>
        <pt x="265" y="552" on="0"/>
        <pt x="180" y="311" on="0"/>
        <pt x="180" y="199" on="1"/>
      </contour>
      <contour>
        <pt x="673" y="363" on="0"/>
        <pt x="587" y="120" on="0"/>
        <pt x="430" y="-10" on="0"/>
        <pt x="217" y="-10" on="0"/>
        <pt x="117" y="86" on="0"/>
        <pt x="117" y="324" on="0"/>
        <pt x="200" y="562" on="0"/>
        <pt x="357" y="705" on="0"/>
        <pt x="459" y="705" on="1"/>
        <pt x="673" y="705" on="0"/>
        <pt x="673" y="498" on="1"/>
      </contour>
    </TTGlyph>
    <TTGlyph name="Ohungarumlaut" xMin="117" yMin="-10" xMax="748" yMax="922">
      <contour>
        <pt x="566" y="779" on="1"/>
        <pt x="538" y="807" on="1"/>
        <pt x="715" y="921" on="1"/>
        <pt x="748" y="892" on="1"/>
      </contour>
      <contour>
        <pt x="381" y="780" on="1"/>
        <pt x="351" y="807" on="1"/>
        <pt x="531" y="922" on="1"/>
        <pt x="562" y="892" on="1"/>
      </contour>
      <contour>
        <pt x="180" y="115" on="0"/>
        <pt x="250" y="45" on="0"/>
        <pt x="404" y="45" on="0"/>
        <pt x="457" y="87" on="1"/>
        <pt x="530" y="145" on="0"/>
        <pt x="609" y="377" on="0"/>
        <pt x="609" y="495" on="1"/>
        <pt x="609" y="575" on="0"/>
        <pt x="535" y="650" on="0"/>
        <pt x="391" y="650" on="0"/>
        <pt x="340" y="610" on="1"/>
        <pt x="265" y="552" on="0"/>
        <pt x="180" y="311" on="0"/>
        <pt x="180" y="199" on="1"/>
      </contour>
      <contour>
        <pt x="673" y="363" on="0"/>
        <pt x="587" y="120" on="0"/>
        <pt x="430" y="-10" on="0"/>
        <pt x="217" y="-10" on="0"/>
        <pt x="117" y="86" on="0"/>
        <pt x="117" y="324" on="0"/>
        <pt x="200" y="562" on="0"/>
        <pt x="357" y="705" on="0"/>
        <pt x="459" y="705" on="1"/>
        <pt x="673" y="705" on="0"/>
        <pt x="673" y="498" on="1"/>
      </contour>
    </TTGlyph>
    <TTGlyph name="Omacron" xMin="117" yMin="-10" xMax="673" yMax="874">
      <contour>
        <pt x="180" y="115" on="0"/>
        <pt x="250" y="45" on="0"/>
        <pt x="404" y="45" on="0"/>
        <pt x="457" y="87" on="1"/>
        <pt x="530" y="145" on="0"/>
        <pt x="609" y="377" on="0"/>
        <pt x="609" y="495" on="1"/>
        <pt x="609" y="575" on="0"/>
        <pt x="535" y="650" on="0"/>
        <pt x="391" y="650" on="0"/>
        <pt x="340" y="610" on="1"/>
        <pt x="265" y="552" on="0"/>
        <pt x="180" y="311" on="0"/>
        <pt x="180" y="199" on="1"/>
      </contour>
      <contour>
        <pt x="673" y="363" on="0"/>
        <pt x="587" y="120" on="0"/>
        <pt x="430" y="-10" on="0"/>
        <pt x="217" y="-10" on="0"/>
        <pt x="117" y="86" on="0"/>
        <pt x="117" y="324" on="0"/>
        <pt x="200" y="562" on="0"/>
        <pt x="357" y="705" on="0"/>
        <pt x="459" y="705" on="1"/>
        <pt x="673" y="705" on="0"/>
        <pt x="673" y="498" on="1"/>
      </contour>
      <contour>
        <pt x="360" y="828" on="1"/>
        <pt x="370" y="874" on="1"/>
        <pt x="656" y="874" on="1"/>
        <pt x="644" y="828" on="1"/>
      </contour>
    </TTGlyph>
    <TTGlyph name="Omega" xMin="95" yMin="-9" xMax="567" yMax="670">
      <contour>
        <pt x="95" y="45" on="1"/>
        <pt x="226" y="45" on="1"/>
        <pt x="213" y="67" on="0"/>
        <pt x="176" y="139" on="0"/>
        <pt x="114" y="315" on="0"/>
        <pt x="114" y="374" on="1"/>
        <pt x="114" y="529" on="0"/>
        <pt x="207" y="670" on="0"/>
        <pt x="455" y="670" on="0"/>
        <pt x="548" y="529" on="0"/>
        <pt x="548" y="374" on="1"/>
        <pt x="548" y="315" on="0"/>
        <pt x="492" y="150" on="0"/>
        <pt x="464" y="98" on="1"/>
        <pt x="435" y="45" on="1"/>
        <pt x="567" y="45" on="1"/>
        <pt x="567" y="-9" on="1"/>
        <pt x="373" y="-9" on="1"/>
        <pt x="373" y="37" on="1"/>
        <pt x="385" y="61" on="0"/>
        <pt x="422" y="138" on="0"/>
        <pt x="484" y="309" on="0"/>
        <pt x="484" y="357" on="1"/>
        <pt x="484" y="498" on="0"/>
        <pt x="425" y="615" on="0"/>
        <pt x="331" y="615" on="1"/>
        <pt x="256" y="615" on="0"/>
        <pt x="219" y="574" on="1"/>
        <pt x="188" y="541" on="0"/>
        <pt x="181" y="450" on="1"/>
        <pt x="178" y="413" on="0"/>
        <pt x="178" y="309" on="0"/>
        <pt x="233" y="149" on="0"/>
        <pt x="260" y="93" on="1"/>
        <pt x="288" y="37" on="1"/>
        <pt x="288" y="-9" on="1"/>
        <pt x="95" y="-9" on="1"/>
      </contour>
    </TTGlyph>
    <TTGlyph name="Oslash" xMin="72" yMin="-113" xMax="716" yMax="794">
      <contour>
        <pt x="162" y="42" on="1"/>
        <pt x="117" y="90" on="0"/>
        <pt x="117" y="324" on="0"/>
        <pt x="200" y="562" on="0"/>
        <pt x="357" y="705" on="0"/>
        <pt x="459" y="705" on="1"/>
        <pt x="543" y="705" on="0"/>
        <pt x="593" y="674" on="1"/>
        <pt x="675" y="794" on="1"/>
        <pt x="716" y="776" on="1"/>
        <pt x="627" y="646" on="1"/>
        <pt x="673" y="596" on="0"/>
        <pt x="673" y="498" on="1"/>
        <pt x="673" y="363" on="0"/>
        <pt x="587" y="120" on="0"/>
        <pt x="430" y="-10" on="0"/>
        <pt x="244" y="-10" on="0"/>
        <pt x="197" y="15" on="1"/>
        <pt x="109" y="-113" on="1"/>
        <pt x="72" y="-91" on="1"/>
      </contour>
      <contour>
        <pt x="559" y="624" on="1"/>
        <pt x="523" y="650" on="0"/>
        <pt x="391" y="650" on="0"/>
        <pt x="340" y="610" on="1"/>
        <pt x="265" y="552" on="0"/>
        <pt x="180" y="311" on="0"/>
        <pt x="180" y="199" on="1"/>
        <pt x="180" y="132" on="0"/>
        <pt x="200" y="98" on="1"/>
      </contour>
      <contour>
        <pt x="232" y="66" on="1"/>
        <pt x="266" y="45" on="0"/>
        <pt x="404" y="45" on="0"/>
        <pt x="457" y="87" on="1"/>
        <pt x="530" y="145" on="0"/>
        <pt x="609" y="377" on="0"/>
        <pt x="609" y="495" on="1"/>
        <pt x="609" y="553" on="0"/>
        <pt x="589" y="590" on="1"/>
      </contour>
    </TTGlyph>
    <TTGlyph name="Oslashacute" xMin="73" yMin="-113" xMax="717" yMax="930">
      <contour>
        <pt x="163" y="42" on="1"/>
        <pt x="118" y="90" on="0"/>
        <pt x="118" y="324" on="0"/>
        <pt x="201" y="562" on="0"/>
        <pt x="358" y="705" on="0"/>
        <pt x="460" y="705" on="1"/>
        <pt x="544" y="705" on="0"/>
        <pt x="594" y="674" on="1"/>
        <pt x="676" y="794" on="1"/>
        <pt x="717" y="776" on="1"/>
        <pt x="628" y="646" on="1"/>
        <pt x="674" y="596" on="0"/>
        <pt x="674" y="498" on="1"/>
        <pt x="674" y="363" on="0"/>
        <pt x="588" y="120" on="0"/>
        <pt x="431" y="-10" on="0"/>
        <pt x="245" y="-10" on="0"/>
        <pt x="198" y="15" on="1"/>
        <pt x="110" y="-113" on="1"/>
        <pt x="73" y="-91" on="1"/>
      </contour>
      <contour>
        <pt x="560" y="624" on="1"/>
        <pt x="524" y="650" on="0"/>
        <pt x="392" y="650" on="0"/>
        <pt x="341" y="610" on="1"/>
        <pt x="266" y="552" on="0"/>
        <pt x="181" y="311" on="0"/>
        <pt x="181" y="199" on="1"/>
        <pt x="181" y="132" on="0"/>
        <pt x="201" y="98" on="1"/>
      </contour>
      <contour>
        <pt x="233" y="66" on="1"/>
        <pt x="267" y="45" on="0"/>
        <pt x="405" y="45" on="0"/>
        <pt x="458" y="87" on="1"/>
        <pt x="531" y="145" on="0"/>
        <pt x="610" y="377" on="0"/>
        <pt x="610" y="495" on="1"/>
        <pt x="610" y="553" on="0"/>
        <pt x="590" y="590" on="1"/>
      </contour>
      <contour>
        <pt x="428" y="783" on="1"/>
        <pt x="419" y="835" on="1"/>
        <pt x="638" y="930" on="1"/>
        <pt x="648" y="872" on="1"/>
      </contour>
    </TTGlyph>
    <TTGlyph name="Otilde" xMin="117" yMin="-10" xMax="681" yMax="918">
      <contour>
        <pt x="585" y="807" on="1"/>
        <pt x="562" y="807" on="0"/>
        <pt x="460" y="866" on="0"/>
        <pt x="448" y="866" on="1"/>
        <pt x="429" y="866" on="0"/>
        <pt x="376" y="828" on="1"/>
        <pt x="358" y="815" on="1"/>
        <pt x="356" y="859" on="1"/>
        <pt x="423" y="918" on="0"/>
        <pt x="484" y="918" on="0"/>
        <pt x="584" y="860" on="0"/>
        <pt x="594" y="860" on="1"/>
        <pt x="614" y="860" on="0"/>
        <pt x="662" y="896" on="1"/>
        <pt x="678" y="908" on="1"/>
        <pt x="681" y="866" on="1"/>
        <pt x="618" y="807" on="0"/>
      </contour>
      <contour>
        <pt x="180" y="115" on="0"/>
        <pt x="250" y="45" on="0"/>
        <pt x="404" y="45" on="0"/>
        <pt x="457" y="87" on="1"/>
        <pt x="530" y="145" on="0"/>
        <pt x="609" y="377" on="0"/>
        <pt x="609" y="495" on="1"/>
        <pt x="609" y="575" on="0"/>
        <pt x="535" y="650" on="0"/>
        <pt x="391" y="650" on="0"/>
        <pt x="340" y="610" on="1"/>
        <pt x="265" y="552" on="0"/>
        <pt x="180" y="311" on="0"/>
        <pt x="180" y="199" on="1"/>
      </contour>
      <contour>
        <pt x="673" y="363" on="0"/>
        <pt x="587" y="120" on="0"/>
        <pt x="430" y="-10" on="0"/>
        <pt x="217" y="-10" on="0"/>
        <pt x="117" y="86" on="0"/>
        <pt x="117" y="324" on="0"/>
        <pt x="200" y="562" on="0"/>
        <pt x="357" y="705" on="0"/>
        <pt x="459" y="705" on="1"/>
        <pt x="673" y="705" on="0"/>
        <pt x="673" y="498" on="1"/>
      </contour>
    </TTGlyph>
    <TTGlyph name="P" xMin="81" yMin="0" xMax="626" yMax="695">
      <contour>
        <pt x="366" y="241" on="1"/>
        <pt x="198" y="241" on="1"/>
        <pt x="142" y="0" on="1"/>
        <pt x="81" y="0" on="1"/>
        <pt x="241" y="695" on="1"/>
        <pt x="465" y="695" on="1"/>
        <pt x="549" y="695" on="0"/>
        <pt x="626" y="617" on="0"/>
        <pt x="626" y="538" on="1"/>
        <pt x="626" y="407" on="0"/>
        <pt x="490" y="241" on="0"/>
      </contour>
      <contour>
        <pt x="376" y="296" on="1"/>
        <pt x="467" y="296" on="0"/>
        <pt x="562" y="434" on="0"/>
        <pt x="562" y="538" on="1"/>
        <pt x="562" y="589" on="0"/>
        <pt x="513" y="639" on="0"/>
        <pt x="457" y="639" on="1"/>
        <pt x="290" y="639" on="1"/>
        <pt x="211" y="296" on="1"/>
      </contour>
    </TTGlyph>
    <TTGlyph name="Q" xMin="117" yMin="-143" xMax="673" yMax="705">
      <contour>
        <pt x="328" y="-10" on="1"/>
        <pt x="217" y="-10" on="0"/>
        <pt x="117" y="86" on="0"/>
        <pt x="117" y="324" on="0"/>
        <pt x="200" y="562" on="0"/>
        <pt x="357" y="705" on="0"/>
        <pt x="459" y="705" on="1"/>
        <pt x="673" y="705" on="0"/>
        <pt x="673" y="498" on="1"/>
        <pt x="673" y="363" on="0"/>
        <pt x="630" y="242" on="1"/>
        <pt x="574" y="83" on="0"/>
        <pt x="458" y="21" on="1"/>
        <pt x="505" y="-124" on="1"/>
        <pt x="447" y="-143" on="1"/>
        <pt x="402" y="0" on="1"/>
        <pt x="364" y="-10" on="0"/>
      </contour>
      <contour>
        <pt x="180" y="115" on="0"/>
        <pt x="250" y="45" on="0"/>
        <pt x="404" y="45" on="0"/>
        <pt x="457" y="87" on="1"/>
        <pt x="530" y="145" on="0"/>
        <pt x="609" y="377" on="0"/>
        <pt x="609" y="495" on="1"/>
        <pt x="609" y="575" on="0"/>
        <pt x="535" y="650" on="0"/>
        <pt x="391" y="650" on="0"/>
        <pt x="340" y="610" on="1"/>
        <pt x="265" y="552" on="0"/>
        <pt x="180" y="311" on="0"/>
        <pt x="180" y="199" on="1"/>
      </contour>
    </TTGlyph>
    <TTGlyph name="R" xMin="81" yMin="0" xMax="629" yMax="695">
      <contour>
        <pt x="457" y="695" on="1"/>
        <pt x="544" y="695" on="0"/>
        <pt x="629" y="620" on="0"/>
        <pt x="629" y="535" on="1"/>
        <pt x="629" y="423" on="0"/>
        <pt x="517" y="294" on="0"/>
        <pt x="445" y="278" on="1"/>
        <pt x="526" y="0" on="1"/>
        <pt x="464" y="0" on="1"/>
        <pt x="387" y="270" on="1"/>
        <pt x="205" y="270" on="1"/>
        <pt x="142" y="0" on="1"/>
        <pt x="81" y="0" on="1"/>
        <pt x="241" y="695" on="1"/>
      </contour>
      <contour>
        <pt x="565" y="533" on="1"/>
        <pt x="565" y="592" on="0"/>
        <pt x="510" y="641" on="0"/>
        <pt x="449" y="641" on="1"/>
        <pt x="290" y="641" on="1"/>
        <pt x="217" y="324" on="1"/>
        <pt x="379" y="324" on="1"/>
        <pt x="463" y="324" on="0"/>
        <pt x="565" y="440" on="0"/>
      </contour>
    </TTGlyph>
    <TTGlyph name="Racute" xMin="81" yMin="0" xMax="629" yMax="930">
      <contour>
        <pt x="629" y="535" on="1"/>
        <pt x="629" y="423" on="0"/>
        <pt x="517" y="294" on="0"/>
        <pt x="445" y="278" on="1"/>
        <pt x="445" y="278" on="0"/>
        <pt x="526" y="0" on="1"/>
        <pt x="464" y="0" on="1"/>
        <pt x="387" y="270" on="1"/>
        <pt x="205" y="270" on="1"/>
        <pt x="142" y="0" on="1"/>
        <pt x="81" y="0" on="1"/>
        <pt x="241" y="695" on="1"/>
        <pt x="457" y="695" on="1"/>
        <pt x="544" y="695" on="0"/>
        <pt x="629" y="620" on="0"/>
      </contour>
      <contour>
        <pt x="565" y="533" on="1"/>
        <pt x="565" y="592" on="0"/>
        <pt x="510" y="641" on="0"/>
        <pt x="449" y="641" on="1"/>
        <pt x="290" y="641" on="1"/>
        <pt x="217" y="324" on="1"/>
        <pt x="379" y="324" on="1"/>
        <pt x="463" y="324" on="0"/>
        <pt x="565" y="440" on="0"/>
      </contour>
      <contour>
        <pt x="363" y="790" on="1"/>
        <pt x="355" y="835" on="1"/>
        <pt x="574" y="930" on="1"/>
        <pt x="583" y="878" on="1"/>
      </contour>
    </TTGlyph>
    <TTGlyph name="Rcaron" xMin="81" yMin="0" xMax="629" yMax="926">
      <contour>
        <pt x="609" y="926" on="1"/>
        <pt x="453" y="792" on="1"/>
        <pt x="417" y="792" on="1"/>
        <pt x="319" y="926" on="1"/>
        <pt x="378" y="926" on="1"/>
        <pt x="443" y="837" on="1"/>
        <pt x="546" y="926" on="1"/>
      </contour>
      <contour>
        <pt x="629" y="535" on="1"/>
        <pt x="629" y="423" on="0"/>
        <pt x="517" y="294" on="0"/>
        <pt x="445" y="278" on="1"/>
        <pt x="445" y="278" on="0"/>
        <pt x="526" y="0" on="1"/>
        <pt x="464" y="0" on="1"/>
        <pt x="387" y="270" on="1"/>
        <pt x="205" y="270" on="1"/>
        <pt x="142" y="0" on="1"/>
        <pt x="81" y="0" on="1"/>
        <pt x="241" y="695" on="1"/>
        <pt x="457" y="695" on="1"/>
        <pt x="544" y="695" on="0"/>
        <pt x="629" y="620" on="0"/>
      </contour>
      <contour>
        <pt x="565" y="533" on="1"/>
        <pt x="565" y="592" on="0"/>
        <pt x="510" y="641" on="0"/>
        <pt x="449" y="641" on="1"/>
        <pt x="290" y="641" on="1"/>
        <pt x="217" y="324" on="1"/>
        <pt x="379" y="324" on="1"/>
        <pt x="463" y="324" on="0"/>
        <pt x="565" y="440" on="0"/>
      </contour>
    </TTGlyph>
    <TTGlyph name="Rcommaaccent" xMin="81" yMin="-276" xMax="629" yMax="695">
      <contour>
        <pt x="172" y="-276" on="1"/>
        <pt x="257" y="-73" on="1"/>
        <pt x="313" y="-73" on="1"/>
        <pt x="220" y="-276" on="1"/>
      </contour>
      <contour>
        <pt x="457" y="695" on="1"/>
        <pt x="544" y="695" on="0"/>
        <pt x="629" y="620" on="0"/>
        <pt x="629" y="535" on="1"/>
        <pt x="629" y="423" on="0"/>
        <pt x="517" y="294" on="0"/>
        <pt x="445" y="278" on="1"/>
        <pt x="526" y="0" on="1"/>
        <pt x="464" y="0" on="1"/>
        <pt x="387" y="270" on="1"/>
        <pt x="205" y="270" on="1"/>
        <pt x="142" y="0" on="1"/>
        <pt x="81" y="0" on="1"/>
        <pt x="241" y="695" on="1"/>
      </contour>
      <contour>
        <pt x="565" y="533" on="1"/>
        <pt x="565" y="592" on="0"/>
        <pt x="510" y="641" on="0"/>
        <pt x="449" y="641" on="1"/>
        <pt x="290" y="641" on="1"/>
        <pt x="217" y="324" on="1"/>
        <pt x="379" y="324" on="1"/>
        <pt x="463" y="324" on="0"/>
        <pt x="565" y="440" on="0"/>
      </contour>
    </TTGlyph>
    <TTGlyph name="S" xMin="57" yMin="-10" xMax="591" yMax="705">
      <contour>
        <pt x="580" y="632" on="1"/>
        <pt x="476" y="650" on="0"/>
        <pt x="323" y="650" on="0"/>
        <pt x="228" y="568" on="0"/>
        <pt x="228" y="490" on="1"/>
        <pt x="228" y="447" on="0"/>
        <pt x="282" y="409" on="0"/>
        <pt x="439" y="357" on="0"/>
        <pt x="502" y="295" on="0"/>
        <pt x="502" y="230" on="1"/>
        <pt x="502" y="119" on="0"/>
        <pt x="369" y="-10" on="0"/>
        <pt x="256" y="-10" on="1"/>
        <pt x="180" y="-10" on="0"/>
        <pt x="86" y="8" on="1"/>
        <pt x="57" y="13" on="1"/>
        <pt x="68" y="63" on="1"/>
        <pt x="185" y="45" on="0"/>
        <pt x="345" y="45" on="0"/>
        <pt x="439" y="141" on="0"/>
        <pt x="439" y="226" on="1"/>
        <pt x="439" y="271" on="0"/>
        <pt x="393" y="310" on="0"/>
        <pt x="238" y="360" on="0"/>
        <pt x="165" y="422" on="0"/>
        <pt x="165" y="486" on="1"/>
        <pt x="165" y="590" on="0"/>
        <pt x="299" y="705" on="0"/>
        <pt x="411" y="705" on="1"/>
        <pt x="489" y="705" on="0"/>
        <pt x="566" y="686" on="1"/>
        <pt x="591" y="679" on="1"/>
      </contour>
    </TTGlyph>
    <TTGlyph name="Sacute" xMin="57" yMin="-10" xMax="591" yMax="930">
      <contour>
        <pt x="580" y="632" on="1"/>
        <pt x="476" y="650" on="0"/>
        <pt x="323" y="650" on="0"/>
        <pt x="228" y="568" on="0"/>
        <pt x="228" y="490" on="1"/>
        <pt x="228" y="447" on="0"/>
        <pt x="282" y="409" on="0"/>
        <pt x="439" y="357" on="0"/>
        <pt x="502" y="295" on="0"/>
        <pt x="502" y="230" on="1"/>
        <pt x="502" y="119" on="0"/>
        <pt x="369" y="-10" on="0"/>
        <pt x="256" y="-10" on="1"/>
        <pt x="180" y="-10" on="0"/>
        <pt x="86" y="8" on="1"/>
        <pt x="57" y="13" on="1"/>
        <pt x="68" y="63" on="1"/>
        <pt x="185" y="45" on="0"/>
        <pt x="345" y="45" on="0"/>
        <pt x="439" y="141" on="0"/>
        <pt x="439" y="226" on="1"/>
        <pt x="439" y="271" on="0"/>
        <pt x="393" y="310" on="0"/>
        <pt x="238" y="360" on="0"/>
        <pt x="165" y="422" on="0"/>
        <pt x="165" y="486" on="1"/>
        <pt x="165" y="590" on="0"/>
        <pt x="299" y="705" on="0"/>
        <pt x="411" y="705" on="1"/>
        <pt x="489" y="705" on="0"/>
        <pt x="566" y="686" on="1"/>
        <pt x="591" y="679" on="1"/>
      </contour>
      <contour>
        <pt x="354" y="790" on="1"/>
        <pt x="346" y="835" on="1"/>
        <pt x="565" y="930" on="1"/>
        <pt x="574" y="878" on="1"/>
      </contour>
    </TTGlyph>
    <TTGlyph name="Scaron" xMin="57" yMin="-10" xMax="616" yMax="930">
      <contour>
        <pt x="616" y="930" on="1"/>
        <pt x="460" y="796" on="1"/>
        <pt x="424" y="796" on="1"/>
        <pt x="326" y="930" on="1"/>
        <pt x="385" y="930" on="1"/>
        <pt x="450" y="841" on="1"/>
        <pt x="553" y="930" on="1"/>
      </contour>
      <contour>
        <pt x="580" y="632" on="1"/>
        <pt x="476" y="650" on="0"/>
        <pt x="323" y="650" on="0"/>
        <pt x="228" y="568" on="0"/>
        <pt x="228" y="490" on="1"/>
        <pt x="228" y="447" on="0"/>
        <pt x="282" y="409" on="0"/>
        <pt x="439" y="357" on="0"/>
        <pt x="502" y="295" on="0"/>
        <pt x="502" y="230" on="1"/>
        <pt x="502" y="119" on="0"/>
        <pt x="369" y="-10" on="0"/>
        <pt x="256" y="-10" on="1"/>
        <pt x="180" y="-10" on="0"/>
        <pt x="86" y="8" on="1"/>
        <pt x="57" y="13" on="1"/>
        <pt x="68" y="63" on="1"/>
        <pt x="185" y="45" on="0"/>
        <pt x="345" y="45" on="0"/>
        <pt x="439" y="141" on="0"/>
        <pt x="439" y="226" on="1"/>
        <pt x="439" y="271" on="0"/>
        <pt x="393" y="310" on="0"/>
        <pt x="238" y="360" on="0"/>
        <pt x="165" y="422" on="0"/>
        <pt x="165" y="486" on="1"/>
        <pt x="165" y="590" on="0"/>
        <pt x="299" y="705" on="0"/>
        <pt x="411" y="705" on="1"/>
        <pt x="489" y="705" on="0"/>
        <pt x="566" y="686" on="1"/>
        <pt x="591" y="679" on="1"/>
      </contour>
    </TTGlyph>
    <TTGlyph name="Scedilla" xMin="57" yMin="-207" xMax="591" yMax="705">
      <contour>
        <pt x="260" y="-48" on="1"/>
        <pt x="343" y="-48" on="0"/>
        <pt x="343" y="-102" on="1"/>
        <pt x="343" y="-112" on="0"/>
        <pt x="340" y="-124" on="1"/>
        <pt x="321" y="-207" on="0"/>
        <pt x="236" y="-207" on="1"/>
        <pt x="158" y="-201" on="1"/>
        <pt x="169" y="-157" on="1"/>
        <pt x="208" y="-161" on="0"/>
        <pt x="236" y="-161" on="1"/>
        <pt x="278" y="-161" on="0"/>
        <pt x="288" y="-122" on="1"/>
        <pt x="289" y="-116" on="0"/>
        <pt x="289" y="-111" on="1"/>
        <pt x="289" y="-86" on="0"/>
        <pt x="254" y="-86" on="1"/>
        <pt x="210" y="-86" on="1"/>
        <pt x="228" y="-9" on="1"/>
        <pt x="153" y="-7" on="0"/>
        <pt x="81" y="8" on="1"/>
        <pt x="57" y="13" on="1"/>
        <pt x="68" y="63" on="1"/>
        <pt x="185" y="45" on="0"/>
        <pt x="345" y="45" on="0"/>
        <pt x="439" y="141" on="0"/>
        <pt x="439" y="226" on="1"/>
        <pt x="439" y="271" on="0"/>
        <pt x="393" y="310" on="0"/>
        <pt x="238" y="360" on="0"/>
        <pt x="165" y="422" on="0"/>
        <pt x="165" y="486" on="1"/>
        <pt x="165" y="590" on="0"/>
        <pt x="299" y="705" on="0"/>
        <pt x="411" y="705" on="1"/>
        <pt x="489" y="705" on="0"/>
        <pt x="566" y="686" on="1"/>
        <pt x="591" y="679" on="1"/>
        <pt x="580" y="632" on="1"/>
        <pt x="476" y="650" on="0"/>
        <pt x="323" y="650" on="0"/>
        <pt x="228" y="568" on="0"/>
        <pt x="228" y="490" on="1"/>
        <pt x="228" y="447" on="0"/>
        <pt x="282" y="409" on="0"/>
        <pt x="439" y="357" on="0"/>
        <pt x="502" y="295" on="0"/>
        <pt x="502" y="230" on="1"/>
        <pt x="502" y="121" on="0"/>
        <pt x="374" y="-7" on="0"/>
        <pt x="265" y="-10" on="1"/>
        <pt x="255" y="-48" on="1"/>
      </contour>
    </TTGlyph>
    <TTGlyph name="Scircumflex" xMin="57" yMin="-10" xMax="591" yMax="931">
      <contour>
        <pt x="580" y="632" on="1"/>
        <pt x="476" y="650" on="0"/>
        <pt x="323" y="650" on="0"/>
        <pt x="228" y="568" on="0"/>
        <pt x="228" y="490" on="1"/>
        <pt x="228" y="447" on="0"/>
        <pt x="282" y="409" on="0"/>
        <pt x="439" y="357" on="0"/>
        <pt x="502" y="295" on="0"/>
        <pt x="502" y="230" on="1"/>
        <pt x="502" y="119" on="0"/>
        <pt x="369" y="-10" on="0"/>
        <pt x="256" y="-10" on="1"/>
        <pt x="180" y="-10" on="0"/>
        <pt x="86" y="8" on="1"/>
        <pt x="57" y="13" on="1"/>
        <pt x="68" y="63" on="1"/>
        <pt x="185" y="45" on="0"/>
        <pt x="345" y="45" on="0"/>
        <pt x="439" y="141" on="0"/>
        <pt x="439" y="226" on="1"/>
        <pt x="439" y="271" on="0"/>
        <pt x="393" y="310" on="0"/>
        <pt x="238" y="360" on="0"/>
        <pt x="165" y="422" on="0"/>
        <pt x="165" y="486" on="1"/>
        <pt x="165" y="590" on="0"/>
        <pt x="299" y="705" on="0"/>
        <pt x="411" y="705" on="1"/>
        <pt x="489" y="705" on="0"/>
        <pt x="566" y="686" on="1"/>
        <pt x="591" y="679" on="1"/>
      </contour>
      <contour>
        <pt x="288" y="797" on="1"/>
        <pt x="449" y="931" on="1"/>
        <pt x="479" y="931" on="1"/>
        <pt x="576" y="797" on="1"/>
        <pt x="520" y="797" on="1"/>
        <pt x="459" y="883" on="1"/>
        <pt x="354" y="797" on="1"/>
      </contour>
    </TTGlyph>
    <TTGlyph name="Scommaaccent" xMin="57" yMin="-276" xMax="591" yMax="705">
      <contour>
        <pt x="219" y="-73" on="1"/>
        <pt x="275" y="-73" on="1"/>
        <pt x="182" y="-276" on="1"/>
        <pt x="134" y="-276" on="1"/>
      </contour>
      <contour>
        <pt x="580" y="632" on="1"/>
        <pt x="476" y="650" on="0"/>
        <pt x="323" y="650" on="0"/>
        <pt x="228" y="568" on="0"/>
        <pt x="228" y="490" on="1"/>
        <pt x="228" y="447" on="0"/>
        <pt x="282" y="409" on="0"/>
        <pt x="439" y="357" on="0"/>
        <pt x="502" y="295" on="0"/>
        <pt x="502" y="230" on="1"/>
        <pt x="502" y="119" on="0"/>
        <pt x="369" y="-10" on="0"/>
        <pt x="256" y="-10" on="1"/>
        <pt x="180" y="-10" on="0"/>
        <pt x="86" y="8" on="1"/>
        <pt x="57" y="13" on="1"/>
        <pt x="68" y="63" on="1"/>
        <pt x="185" y="45" on="0"/>
        <pt x="345" y="45" on="0"/>
        <pt x="439" y="141" on="0"/>
        <pt x="439" y="226" on="1"/>
        <pt x="439" y="271" on="0"/>
        <pt x="393" y="310" on="0"/>
        <pt x="238" y="360" on="0"/>
        <pt x="165" y="422" on="0"/>
        <pt x="165" y="486" on="1"/>
        <pt x="165" y="590" on="0"/>
        <pt x="299" y="705" on="0"/>
        <pt x="411" y="705" on="1"/>
        <pt x="489" y="705" on="0"/>
        <pt x="566" y="686" on="1"/>
        <pt x="591" y="679" on="1"/>
      </contour>
    </TTGlyph>
    <TTGlyph name="T" xMin="157" yMin="0" xMax="620" yMax="695">
      <contour>
        <pt x="157" y="640" on="1"/>
        <pt x="170" y="695" on="1"/>
        <pt x="620" y="695" on="1"/>
        <pt x="607" y="640" on="1"/>
        <pt x="413" y="640" on="1"/>
        <pt x="265" y="0" on="1"/>
        <pt x="204" y="0" on="1"/>
        <pt x="351" y="640" on="1"/>
      </contour>
    </TTGlyph>
    <TTGlyph name="Tbar" xMin="118" yMin="0" xMax="622" yMax="695">
      <contour>
        <pt x="159" y="640" on="1"/>
        <pt x="172" y="695" on="1"/>
        <pt x="622" y="695" on="1"/>
        <pt x="609" y="640" on="1"/>
        <pt x="415" y="640" on="1"/>
        <pt x="351" y="364" on="1"/>
        <pt x="513" y="364" on="1"/>
        <pt x="498" y="307" on="1"/>
        <pt x="338" y="307" on="1"/>
        <pt x="267" y="0" on="1"/>
        <pt x="206" y="0" on="1"/>
        <pt x="276" y="307" on="1"/>
        <pt x="118" y="307" on="1"/>
        <pt x="131" y="364" on="1"/>
        <pt x="289" y="364" on="1"/>
        <pt x="353" y="640" on="1"/>
      </contour>
    </TTGlyph>
    <TTGlyph name="Tcaron" xMin="157" yMin="0" xMax="620" yMax="926">
      <contour>
        <pt x="580" y="926" on="1"/>
        <pt x="424" y="792" on="1"/>
        <pt x="388" y="792" on="1"/>
        <pt x="290" y="926" on="1"/>
        <pt x="349" y="926" on="1"/>
        <pt x="414" y="837" on="1"/>
        <pt x="517" y="926" on="1"/>
      </contour>
      <contour>
        <pt x="157" y="640" on="1"/>
        <pt x="170" y="695" on="1"/>
        <pt x="620" y="695" on="1"/>
        <pt x="607" y="640" on="1"/>
        <pt x="413" y="640" on="1"/>
        <pt x="265" y="0" on="1"/>
        <pt x="204" y="0" on="1"/>
        <pt x="351" y="640" on="1"/>
      </contour>
    </TTGlyph>
    <TTGlyph name="Tcedilla" xMin="144" yMin="-207" xMax="620" yMax="695">
      <contour>
        <pt x="246" y="-48" on="1"/>
        <pt x="329" y="-48" on="0"/>
        <pt x="329" y="-102" on="1"/>
        <pt x="329" y="-112" on="0"/>
        <pt x="326" y="-124" on="1"/>
        <pt x="307" y="-207" on="0"/>
        <pt x="222" y="-207" on="1"/>
        <pt x="144" y="-201" on="1"/>
        <pt x="155" y="-157" on="1"/>
        <pt x="194" y="-161" on="0"/>
        <pt x="222" y="-161" on="1"/>
        <pt x="264" y="-161" on="0"/>
        <pt x="274" y="-122" on="1"/>
        <pt x="275" y="-116" on="0"/>
        <pt x="275" y="-111" on="1"/>
        <pt x="275" y="-86" on="0"/>
        <pt x="240" y="-86" on="1"/>
        <pt x="196" y="-86" on="1"/>
        <pt x="217" y="0" on="1"/>
        <pt x="204" y="0" on="1"/>
        <pt x="351" y="640" on="1"/>
        <pt x="157" y="640" on="1"/>
        <pt x="170" y="695" on="1"/>
        <pt x="620" y="695" on="1"/>
        <pt x="607" y="640" on="1"/>
        <pt x="413" y="640" on="1"/>
        <pt x="265" y="0" on="1"/>
        <pt x="253" y="0" on="1"/>
        <pt x="241" y="-48" on="1"/>
      </contour>
    </TTGlyph>
    <TTGlyph name="Tcommaaccent" xMin="109" yMin="-276" xMax="620" yMax="695">
      <contour>
        <pt x="194" y="-73" on="1"/>
        <pt x="250" y="-73" on="1"/>
        <pt x="157" y="-276" on="1"/>
        <pt x="109" y="-276" on="1"/>
      </contour>
      <contour>
        <pt x="157" y="640" on="1"/>
        <pt x="170" y="695" on="1"/>
        <pt x="620" y="695" on="1"/>
        <pt x="607" y="640" on="1"/>
        <pt x="413" y="640" on="1"/>
        <pt x="265" y="0" on="1"/>
        <pt x="204" y="0" on="1"/>
        <pt x="351" y="640" on="1"/>
      </contour>
    </TTGlyph>
    <TTGlyph name="Thorn" xMin="79" yMin="0" xMax="605" yMax="697">
      <contour>
        <pt x="356" y="183" on="1"/>
        <pt x="490" y="183" on="0"/>
        <pt x="537" y="362" on="1"/>
        <pt x="546" y="397" on="0"/>
        <pt x="546" y="424" on="1"/>
        <pt x="546" y="524" on="0"/>
        <pt x="432" y="524" on="1"/>
        <pt x="263" y="525" on="1"/>
        <pt x="182" y="183" on="1"/>
      </contour>
      <contour>
        <pt x="343" y="125" on="1"/>
        <pt x="168" y="125" on="1"/>
        <pt x="139" y="0" on="1"/>
        <pt x="79" y="0" on="1"/>
        <pt x="243" y="697" on="1"/>
        <pt x="303" y="697" on="1"/>
        <pt x="276" y="582" on="1"/>
        <pt x="446" y="582" on="1"/>
        <pt x="548" y="582" on="0"/>
        <pt x="583" y="521" on="1"/>
        <pt x="605" y="483" on="0"/>
        <pt x="605" y="399" on="0"/>
        <pt x="597" y="362" on="1"/>
        <pt x="573" y="254" on="0"/>
        <pt x="444" y="125" on="0"/>
      </contour>
    </TTGlyph>
    <TTGlyph name="U" xMin="115" yMin="-10" xMax="678" yMax="695">
      <contour>
        <pt x="176" y="139" on="1"/>
        <pt x="176" y="46" on="0"/>
        <pt x="315" y="46" on="1"/>
        <pt x="399" y="46" on="0"/>
        <pt x="484" y="123" on="0"/>
        <pt x="503" y="206" on="1"/>
        <pt x="616" y="695" on="1"/>
        <pt x="678" y="695" on="1"/>
        <pt x="565" y="205" on="1"/>
        <pt x="539" y="95" on="0"/>
        <pt x="421" y="-10" on="0"/>
        <pt x="320" y="-10" on="1"/>
        <pt x="115" y="-10" on="0"/>
        <pt x="115" y="132" on="1"/>
        <pt x="115" y="177" on="0"/>
        <pt x="126" y="218" on="1"/>
        <pt x="236" y="695" on="1"/>
        <pt x="297" y="695" on="1"/>
        <pt x="186" y="213" on="1"/>
        <pt x="176" y="173" on="0"/>
      </contour>
    </TTGlyph>
    <TTGlyph name="Uacute" xMin="115" yMin="-10" xMax="678" yMax="930">
      <contour>
        <pt x="176" y="139" on="1"/>
        <pt x="176" y="46" on="0"/>
        <pt x="315" y="46" on="1"/>
        <pt x="399" y="46" on="0"/>
        <pt x="484" y="123" on="0"/>
        <pt x="503" y="206" on="1"/>
        <pt x="616" y="695" on="1"/>
        <pt x="678" y="695" on="1"/>
        <pt x="565" y="205" on="1"/>
        <pt x="539" y="95" on="0"/>
        <pt x="421" y="-10" on="0"/>
        <pt x="320" y="-10" on="1"/>
        <pt x="115" y="-10" on="0"/>
        <pt x="115" y="132" on="1"/>
        <pt x="115" y="177" on="0"/>
        <pt x="126" y="218" on="1"/>
        <pt x="236" y="695" on="1"/>
        <pt x="297" y="695" on="1"/>
        <pt x="186" y="213" on="1"/>
        <pt x="176" y="173" on="0"/>
      </contour>
      <contour>
        <pt x="391" y="790" on="1"/>
        <pt x="383" y="835" on="1"/>
        <pt x="602" y="930" on="1"/>
        <pt x="611" y="878" on="1"/>
      </contour>
    </TTGlyph>
    <TTGlyph name="Ubreve" xMin="115" yMin="-10" xMax="678" yMax="922">
      <contour>
        <pt x="414" y="922" on="1"/>
        <pt x="412" y="910" on="0"/>
        <pt x="412" y="876" on="0"/>
        <pt x="440" y="847" on="0"/>
        <pt x="512" y="847" on="0"/>
        <pt x="569" y="889" on="0"/>
        <pt x="578" y="922" on="1"/>
        <pt x="631" y="922" on="1"/>
        <pt x="614" y="863" on="0"/>
        <pt x="529" y="799" on="0"/>
        <pt x="406" y="799" on="0"/>
        <pt x="378" y="830" on="1"/>
        <pt x="358" y="852" on="0"/>
        <pt x="358" y="890" on="1"/>
        <pt x="358" y="905" on="0"/>
        <pt x="361" y="922" on="1"/>
      </contour>
      <contour>
        <pt x="176" y="173" on="0"/>
        <pt x="176" y="139" on="1"/>
        <pt x="176" y="46" on="0"/>
        <pt x="315" y="46" on="1"/>
        <pt x="399" y="46" on="0"/>
        <pt x="484" y="123" on="0"/>
        <pt x="503" y="206" on="1"/>
        <pt x="616" y="695" on="1"/>
        <pt x="678" y="695" on="1"/>
        <pt x="565" y="205" on="1"/>
        <pt x="539" y="95" on="0"/>
        <pt x="421" y="-10" on="0"/>
        <pt x="320" y="-10" on="1"/>
        <pt x="115" y="-10" on="0"/>
        <pt x="115" y="132" on="1"/>
        <pt x="115" y="177" on="0"/>
        <pt x="126" y="218" on="1"/>
        <pt x="236" y="695" on="1"/>
        <pt x="297" y="695" on="1"/>
        <pt x="186" y="213" on="1"/>
      </contour>
    </TTGlyph>
    <TTGlyph name="Ucircumflex" xMin="115" yMin="-10" xMax="678" yMax="931">
      <contour>
        <pt x="176" y="139" on="1"/>
        <pt x="176" y="46" on="0"/>
        <pt x="315" y="46" on="1"/>
        <pt x="399" y="46" on="0"/>
        <pt x="484" y="123" on="0"/>
        <pt x="503" y="206" on="1"/>
        <pt x="616" y="695" on="1"/>
        <pt x="678" y="695" on="1"/>
        <pt x="565" y="205" on="1"/>
        <pt x="539" y="95" on="0"/>
        <pt x="421" y="-10" on="0"/>
        <pt x="320" y="-10" on="1"/>
        <pt x="115" y="-10" on="0"/>
        <pt x="115" y="132" on="1"/>
        <pt x="115" y="177" on="0"/>
        <pt x="126" y="218" on="1"/>
        <pt x="236" y="695" on="1"/>
        <pt x="297" y="695" on="1"/>
        <pt x="186" y="213" on="1"/>
        <pt x="176" y="173" on="0"/>
      </contour>
      <contour>
        <pt x="329" y="797" on="1"/>
        <pt x="490" y="931" on="1"/>
        <pt x="520" y="931" on="1"/>
        <pt x="617" y="797" on="1"/>
        <pt x="561" y="797" on="1"/>
        <pt x="500" y="883" on="1"/>
        <pt x="395" y="797" on="1"/>
      </contour>
    </TTGlyph>
    <TTGlyph name="Udieresis" xMin="115" yMin="-10" xMax="678" yMax="902">
      <contour>
        <pt x="354" y="820" on="1"/>
        <pt x="373" y="902" on="1"/>
        <pt x="429" y="902" on="1"/>
        <pt x="410" y="820" on="1"/>
      </contour>
      <contour>
        <pt x="540" y="820" on="1"/>
        <pt x="558" y="902" on="1"/>
        <pt x="614" y="902" on="1"/>
        <pt x="594" y="820" on="1"/>
      </contour>
      <contour>
        <pt x="176" y="139" on="1"/>
        <pt x="176" y="46" on="0"/>
        <pt x="315" y="46" on="1"/>
        <pt x="399" y="46" on="0"/>
        <pt x="484" y="123" on="0"/>
        <pt x="503" y="206" on="1"/>
        <pt x="616" y="695" on="1"/>
        <pt x="678" y="695" on="1"/>
        <pt x="565" y="205" on="1"/>
        <pt x="539" y="95" on="0"/>
        <pt x="421" y="-10" on="0"/>
        <pt x="320" y="-10" on="1"/>
        <pt x="115" y="-10" on="0"/>
        <pt x="115" y="132" on="1"/>
        <pt x="115" y="177" on="0"/>
        <pt x="126" y="218" on="1"/>
        <pt x="236" y="695" on="1"/>
        <pt x="297" y="695" on="1"/>
        <pt x="186" y="213" on="1"/>
        <pt x="176" y="173" on="0"/>
      </contour>
    </TTGlyph>
    <TTGlyph name="Ugrave" xMin="115" yMin="-10" xMax="678" yMax="925">
      <contour>
        <pt x="393" y="925" on="1"/>
        <pt x="568" y="830" on="1"/>
        <pt x="542" y="787" on="1"/>
        <pt x="364" y="875" on="1"/>
      </contour>
      <contour>
        <pt x="176" y="139" on="1"/>
        <pt x="176" y="46" on="0"/>
        <pt x="315" y="46" on="1"/>
        <pt x="399" y="46" on="0"/>
        <pt x="484" y="123" on="0"/>
        <pt x="503" y="206" on="1"/>
        <pt x="616" y="695" on="1"/>
        <pt x="678" y="695" on="1"/>
        <pt x="565" y="205" on="1"/>
        <pt x="539" y="95" on="0"/>
        <pt x="421" y="-10" on="0"/>
        <pt x="320" y="-10" on="1"/>
        <pt x="115" y="-10" on="0"/>
        <pt x="115" y="132" on="1"/>
        <pt x="115" y="177" on="0"/>
        <pt x="126" y="218" on="1"/>
        <pt x="236" y="695" on="1"/>
        <pt x="297" y="695" on="1"/>
        <pt x="186" y="213" on="1"/>
        <pt x="176" y="173" on="0"/>
      </contour>
    </TTGlyph>
    <TTGlyph name="Uhungarumlaut" xMin="115" yMin="-10" xMax="714" yMax="902">
      <contour>
        <pt x="532" y="759" on="1"/>
        <pt x="504" y="787" on="1"/>
        <pt x="681" y="901" on="1"/>
        <pt x="714" y="872" on="1"/>
      </contour>
      <contour>
        <pt x="347" y="760" on="1"/>
        <pt x="317" y="787" on="1"/>
        <pt x="497" y="902" on="1"/>
        <pt x="528" y="872" on="1"/>
      </contour>
      <contour>
        <pt x="176" y="139" on="1"/>
        <pt x="176" y="46" on="0"/>
        <pt x="315" y="46" on="1"/>
        <pt x="399" y="46" on="0"/>
        <pt x="484" y="123" on="0"/>
        <pt x="503" y="206" on="1"/>
        <pt x="616" y="695" on="1"/>
        <pt x="678" y="695" on="1"/>
        <pt x="565" y="205" on="1"/>
        <pt x="539" y="95" on="0"/>
        <pt x="421" y="-10" on="0"/>
        <pt x="320" y="-10" on="1"/>
        <pt x="115" y="-10" on="0"/>
        <pt x="115" y="132" on="1"/>
        <pt x="115" y="177" on="0"/>
        <pt x="126" y="218" on="1"/>
        <pt x="236" y="695" on="1"/>
        <pt x="297" y="695" on="1"/>
        <pt x="186" y="213" on="1"/>
        <pt x="176" y="173" on="0"/>
      </contour>
    </TTGlyph>
    <TTGlyph name="Umacron" xMin="115" yMin="-10" xMax="678" yMax="874">
      <contour>
        <pt x="176" y="139" on="1"/>
        <pt x="176" y="46" on="0"/>
        <pt x="315" y="46" on="1"/>
        <pt x="399" y="46" on="0"/>
        <pt x="484" y="123" on="0"/>
        <pt x="503" y="206" on="1"/>
        <pt x="616" y="695" on="1"/>
        <pt x="678" y="695" on="1"/>
        <pt x="565" y="205" on="1"/>
        <pt x="539" y="95" on="0"/>
        <pt x="421" y="-10" on="0"/>
        <pt x="320" y="-10" on="1"/>
        <pt x="115" y="-10" on="0"/>
        <pt x="115" y="132" on="1"/>
        <pt x="115" y="177" on="0"/>
        <pt x="126" y="218" on="1"/>
        <pt x="236" y="695" on="1"/>
        <pt x="297" y="695" on="1"/>
        <pt x="186" y="213" on="1"/>
        <pt x="176" y="173" on="0"/>
      </contour>
      <contour>
        <pt x="338" y="828" on="1"/>
        <pt x="348" y="874" on="1"/>
        <pt x="634" y="874" on="1"/>
        <pt x="622" y="828" on="1"/>
      </contour>
    </TTGlyph>
    <TTGlyph name="Uogonek" xMin="115" yMin="-202" xMax="678" yMax="695">
      <contour>
        <pt x="176" y="139" on="1"/>
        <pt x="176" y="46" on="0"/>
        <pt x="315" y="46" on="1"/>
        <pt x="399" y="46" on="0"/>
        <pt x="484" y="123" on="0"/>
        <pt x="503" y="206" on="1"/>
        <pt x="616" y="695" on="1"/>
        <pt x="678" y="695" on="1"/>
        <pt x="565" y="205" on="1"/>
        <pt x="543" y="110" on="0"/>
        <pt x="450" y="7" on="0"/>
        <pt x="369" y="-5" on="1"/>
        <pt x="338" y="-31" on="0"/>
        <pt x="282" y="-102" on="0"/>
        <pt x="282" y="-126" on="1"/>
        <pt x="282" y="-148" on="0"/>
        <pt x="310" y="-148" on="1"/>
        <pt x="361" y="-142" on="1"/>
        <pt x="355" y="-193" on="1"/>
        <pt x="313" y="-202" on="0"/>
        <pt x="284" y="-202" on="1"/>
        <pt x="216" y="-202" on="0"/>
        <pt x="216" y="-142" on="1"/>
        <pt x="216" y="-88" on="0"/>
        <pt x="303" y="-10" on="1"/>
        <pt x="214" y="-8" on="0"/>
        <pt x="115" y="62" on="0"/>
        <pt x="115" y="132" on="1"/>
        <pt x="115" y="177" on="0"/>
        <pt x="126" y="218" on="1"/>
        <pt x="236" y="695" on="1"/>
        <pt x="297" y="695" on="1"/>
        <pt x="186" y="213" on="1"/>
        <pt x="176" y="173" on="0"/>
      </contour>
    </TTGlyph>
    <TTGlyph name="Uring" xMin="115" yMin="-10" xMax="678" yMax="938">
      <contour>
        <pt x="548" y="772" on="1"/>
        <pt x="516" y="747" on="0"/>
        <pt x="423" y="747" on="0"/>
        <pt x="402" y="772" on="1"/>
        <pt x="390" y="788" on="0"/>
        <pt x="390" y="825" on="0"/>
        <pt x="395" y="842" on="1"/>
        <pt x="408" y="889" on="0"/>
        <pt x="471" y="938" on="0"/>
        <pt x="560" y="938" on="0"/>
        <pt x="581" y="914" on="1"/>
        <pt x="594" y="899" on="0"/>
        <pt x="594" y="879" on="1"/>
        <pt x="594" y="809" on="0"/>
      </contour>
      <contour>
        <pt x="436" y="842" on="1"/>
        <pt x="434" y="834" on="0"/>
        <pt x="434" y="814" on="0"/>
        <pt x="452" y="790" on="0"/>
        <pt x="479" y="790" on="1"/>
        <pt x="536" y="790" on="0"/>
        <pt x="549" y="842" on="1"/>
        <pt x="550" y="849" on="0"/>
        <pt x="550" y="871" on="0"/>
        <pt x="530" y="895" on="0"/>
        <pt x="505" y="895" on="1"/>
        <pt x="448" y="895" on="0"/>
      </contour>
      <contour>
        <pt x="176" y="139" on="1"/>
        <pt x="176" y="46" on="0"/>
        <pt x="315" y="46" on="1"/>
        <pt x="399" y="46" on="0"/>
        <pt x="484" y="123" on="0"/>
        <pt x="503" y="206" on="1"/>
        <pt x="616" y="695" on="1"/>
        <pt x="678" y="695" on="1"/>
        <pt x="565" y="205" on="1"/>
        <pt x="539" y="95" on="0"/>
        <pt x="421" y="-10" on="0"/>
        <pt x="320" y="-10" on="1"/>
        <pt x="115" y="-10" on="0"/>
        <pt x="115" y="132" on="1"/>
        <pt x="115" y="177" on="0"/>
        <pt x="126" y="218" on="1"/>
        <pt x="236" y="695" on="1"/>
        <pt x="297" y="695" on="1"/>
        <pt x="186" y="213" on="1"/>
        <pt x="176" y="173" on="0"/>
      </contour>
    </TTGlyph>
    <TTGlyph name="Utilde" xMin="115" yMin="-10" xMax="678" yMax="919">
      <contour>
        <pt x="553" y="808" on="1"/>
        <pt x="530" y="808" on="0"/>
        <pt x="428" y="867" on="0"/>
        <pt x="416" y="867" on="1"/>
        <pt x="395" y="867" on="0"/>
        <pt x="344" y="829" on="1"/>
        <pt x="326" y="816" on="1"/>
        <pt x="324" y="860" on="1"/>
        <pt x="391" y="919" on="0"/>
        <pt x="452" y="919" on="0"/>
        <pt x="552" y="861" on="0"/>
        <pt x="562" y="861" on="1"/>
        <pt x="582" y="861" on="0"/>
        <pt x="630" y="897" on="1"/>
        <pt x="646" y="909" on="1"/>
        <pt x="649" y="867" on="1"/>
        <pt x="586" y="808" on="0"/>
      </contour>
      <contour>
        <pt x="176" y="139" on="1"/>
        <pt x="176" y="46" on="0"/>
        <pt x="315" y="46" on="1"/>
        <pt x="399" y="46" on="0"/>
        <pt x="484" y="123" on="0"/>
        <pt x="503" y="206" on="1"/>
        <pt x="616" y="695" on="1"/>
        <pt x="678" y="695" on="1"/>
        <pt x="565" y="205" on="1"/>
        <pt x="539" y="95" on="0"/>
        <pt x="421" y="-10" on="0"/>
        <pt x="320" y="-10" on="1"/>
        <pt x="115" y="-10" on="0"/>
        <pt x="115" y="132" on="1"/>
        <pt x="115" y="177" on="0"/>
        <pt x="126" y="218" on="1"/>
        <pt x="236" y="695" on="1"/>
        <pt x="297" y="695" on="1"/>
        <pt x="186" y="213" on="1"/>
        <pt x="176" y="173" on="0"/>
      </contour>
    </TTGlyph>
    <TTGlyph name="V" xMin="184" yMin="0" xMax="673" yMax="695">
      <contour>
        <pt x="611" y="695" on="1"/>
        <pt x="673" y="695" on="1"/>
        <pt x="338" y="0" on="1"/>
        <pt x="198" y="0" on="1"/>
        <pt x="184" y="695" on="1"/>
        <pt x="246" y="695" on="1"/>
        <pt x="255" y="55" on="1"/>
        <pt x="303" y="55" on="1"/>
      </contour>
    </TTGlyph>
    <TTGlyph name="W" xMin="164" yMin="0" xMax="945" yMax="695">
      <contour>
        <pt x="190" y="695" on="1"/>
        <pt x="251" y="695" on="1"/>
        <pt x="222" y="56" on="1"/>
        <pt x="252" y="56" on="1"/>
        <pt x="532" y="685" on="1"/>
        <pt x="598" y="685" on="1"/>
        <pt x="583" y="56" on="1"/>
        <pt x="611" y="56" on="1"/>
        <pt x="883" y="695" on="1"/>
        <pt x="945" y="695" on="1"/>
        <pt x="646" y="0" on="1"/>
        <pt x="529" y="0" on="1"/>
        <pt x="545" y="589" on="1"/>
        <pt x="284" y="0" on="1"/>
        <pt x="164" y="0" on="1"/>
      </contour>
    </TTGlyph>
    <TTGlyph name="Wacute" xMin="164" yMin="0" xMax="945" yMax="930">
      <contour>
        <pt x="505" y="790" on="1"/>
        <pt x="497" y="835" on="1"/>
        <pt x="716" y="930" on="1"/>
        <pt x="725" y="878" on="1"/>
      </contour>
      <contour>
        <pt x="190" y="695" on="1"/>
        <pt x="251" y="695" on="1"/>
        <pt x="222" y="56" on="1"/>
        <pt x="252" y="56" on="1"/>
        <pt x="532" y="685" on="1"/>
        <pt x="598" y="685" on="1"/>
        <pt x="583" y="56" on="1"/>
        <pt x="611" y="56" on="1"/>
        <pt x="883" y="695" on="1"/>
        <pt x="945" y="695" on="1"/>
        <pt x="646" y="0" on="1"/>
        <pt x="529" y="0" on="1"/>
        <pt x="545" y="589" on="1"/>
        <pt x="284" y="0" on="1"/>
        <pt x="164" y="0" on="1"/>
      </contour>
    </TTGlyph>
    <TTGlyph name="Wcircumflex" xMin="164" yMin="0" xMax="945" yMax="927">
      <contour>
        <pt x="438" y="793" on="1"/>
        <pt x="599" y="927" on="1"/>
        <pt x="629" y="927" on="1"/>
        <pt x="726" y="793" on="1"/>
        <pt x="670" y="793" on="1"/>
        <pt x="609" y="879" on="1"/>
        <pt x="504" y="793" on="1"/>
      </contour>
      <contour>
        <pt x="190" y="695" on="1"/>
        <pt x="251" y="695" on="1"/>
        <pt x="222" y="56" on="1"/>
        <pt x="252" y="56" on="1"/>
        <pt x="532" y="685" on="1"/>
        <pt x="598" y="685" on="1"/>
        <pt x="583" y="56" on="1"/>
        <pt x="611" y="56" on="1"/>
        <pt x="883" y="695" on="1"/>
        <pt x="945" y="695" on="1"/>
        <pt x="646" y="0" on="1"/>
        <pt x="529" y="0" on="1"/>
        <pt x="545" y="589" on="1"/>
        <pt x="284" y="0" on="1"/>
        <pt x="164" y="0" on="1"/>
      </contour>
    </TTGlyph>
    <TTGlyph name="Wdieresis" xMin="164" yMin="0" xMax="945" yMax="903">
      <contour>
        <pt x="472" y="820" on="1"/>
        <pt x="490" y="903" on="1"/>
        <pt x="540" y="903" on="1"/>
        <pt x="520" y="820" on="1"/>
      </contour>
      <contour>
        <pt x="656" y="820" on="1"/>
        <pt x="676" y="903" on="1"/>
        <pt x="725" y="903" on="1"/>
        <pt x="705" y="820" on="1"/>
      </contour>
      <contour>
        <pt x="190" y="695" on="1"/>
        <pt x="251" y="695" on="1"/>
        <pt x="222" y="56" on="1"/>
        <pt x="252" y="56" on="1"/>
        <pt x="532" y="685" on="1"/>
        <pt x="598" y="685" on="1"/>
        <pt x="583" y="56" on="1"/>
        <pt x="611" y="56" on="1"/>
        <pt x="883" y="695" on="1"/>
        <pt x="945" y="695" on="1"/>
        <pt x="646" y="0" on="1"/>
        <pt x="529" y="0" on="1"/>
        <pt x="545" y="589" on="1"/>
        <pt x="284" y="0" on="1"/>
        <pt x="164" y="0" on="1"/>
      </contour>
    </TTGlyph>
    <TTGlyph name="Wgrave" xMin="164" yMin="0" xMax="945" yMax="925">
      <contour>
        <pt x="506" y="925" on="1"/>
        <pt x="681" y="830" on="1"/>
        <pt x="655" y="787" on="1"/>
        <pt x="477" y="875" on="1"/>
      </contour>
      <contour>
        <pt x="190" y="695" on="1"/>
        <pt x="251" y="695" on="1"/>
        <pt x="222" y="56" on="1"/>
        <pt x="252" y="56" on="1"/>
        <pt x="532" y="685" on="1"/>
        <pt x="598" y="685" on="1"/>
        <pt x="583" y="56" on="1"/>
        <pt x="611" y="56" on="1"/>
        <pt x="883" y="695" on="1"/>
        <pt x="945" y="695" on="1"/>
        <pt x="646" y="0" on="1"/>
        <pt x="529" y="0" on="1"/>
        <pt x="545" y="589" on="1"/>
        <pt x="284" y="0" on="1"/>
        <pt x="164" y="0" on="1"/>
      </contour>
    </TTGlyph>
    <TTGlyph name="X" xMin="15" yMin="0" xMax="656" yMax="695">
      <contour>
        <pt x="248" y="695" on="1"/>
        <pt x="348" y="394" on="1"/>
        <pt x="587" y="695" on="1"/>
        <pt x="656" y="695" on="1"/>
        <pt x="373" y="343" on="1"/>
        <pt x="490" y="0" on="1"/>
        <pt x="427" y="0" on="1"/>
        <pt x="326" y="298" on="1"/>
        <pt x="84" y="0" on="1"/>
        <pt x="15" y="0" on="1"/>
        <pt x="300" y="348" on="1"/>
        <pt x="185" y="695" on="1"/>
      </contour>
    </TTGlyph>
    <TTGlyph name="Y" xMin="173" yMin="0" xMax="635" yMax="695">
      <contour>
        <pt x="635" y="695" on="1"/>
        <pt x="340" y="298" on="1"/>
        <pt x="270" y="0" on="1"/>
        <pt x="211" y="0" on="1"/>
        <pt x="281" y="304" on="1"/>
        <pt x="173" y="695" on="1"/>
        <pt x="235" y="695" on="1"/>
        <pt x="324" y="358" on="1"/>
        <pt x="569" y="695" on="1"/>
      </contour>
    </TTGlyph>
    <TTGlyph name="Yacute" xMin="173" yMin="0" xMax="635" yMax="930">
      <contour>
        <pt x="344" y="790" on="1"/>
        <pt x="336" y="835" on="1"/>
        <pt x="555" y="930" on="1"/>
        <pt x="564" y="878" on="1"/>
      </contour>
      <contour>
        <pt x="635" y="695" on="1"/>
        <pt x="340" y="298" on="1"/>
        <pt x="270" y="0" on="1"/>
        <pt x="211" y="0" on="1"/>
        <pt x="281" y="304" on="1"/>
        <pt x="173" y="695" on="1"/>
        <pt x="235" y="695" on="1"/>
        <pt x="324" y="358" on="1"/>
        <pt x="569" y="695" on="1"/>
      </contour>
    </TTGlyph>
    <TTGlyph name="Ycircumflex" xMin="173" yMin="0" xMax="635" yMax="927">
      <contour>
        <pt x="278" y="793" on="1"/>
        <pt x="439" y="927" on="1"/>
        <pt x="469" y="927" on="1"/>
        <pt x="566" y="793" on="1"/>
        <pt x="510" y="793" on="1"/>
        <pt x="449" y="879" on="1"/>
        <pt x="344" y="793" on="1"/>
      </contour>
      <contour>
        <pt x="635" y="695" on="1"/>
        <pt x="340" y="298" on="1"/>
        <pt x="270" y="0" on="1"/>
        <pt x="211" y="0" on="1"/>
        <pt x="281" y="304" on="1"/>
        <pt x="173" y="695" on="1"/>
        <pt x="235" y="695" on="1"/>
        <pt x="324" y="358" on="1"/>
        <pt x="569" y="695" on="1"/>
      </contour>
    </TTGlyph>
    <TTGlyph name="Ydieresis" xMin="173" yMin="0" xMax="635" yMax="902">
      <contour>
        <pt x="304" y="819" on="1"/>
        <pt x="322" y="902" on="1"/>
        <pt x="372" y="902" on="1"/>
        <pt x="352" y="819" on="1"/>
      </contour>
      <contour>
        <pt x="488" y="819" on="1"/>
        <pt x="508" y="902" on="1"/>
        <pt x="557" y="902" on="1"/>
        <pt x="537" y="819" on="1"/>
      </contour>
      <contour>
        <pt x="635" y="695" on="1"/>
        <pt x="340" y="298" on="1"/>
        <pt x="270" y="0" on="1"/>
        <pt x="211" y="0" on="1"/>
        <pt x="281" y="304" on="1"/>
        <pt x="173" y="695" on="1"/>
        <pt x="235" y="695" on="1"/>
        <pt x="324" y="358" on="1"/>
        <pt x="569" y="695" on="1"/>
      </contour>
    </TTGlyph>
    <TTGlyph name="Ygrave" xMin="173" yMin="0" xMax="635" yMax="925">
      <contour>
        <pt x="342" y="925" on="1"/>
        <pt x="517" y="830" on="1"/>
        <pt x="491" y="787" on="1"/>
        <pt x="313" y="875" on="1"/>
      </contour>
      <contour>
        <pt x="635" y="695" on="1"/>
        <pt x="340" y="298" on="1"/>
        <pt x="270" y="0" on="1"/>
        <pt x="211" y="0" on="1"/>
        <pt x="281" y="304" on="1"/>
        <pt x="173" y="695" on="1"/>
        <pt x="235" y="695" on="1"/>
        <pt x="324" y="358" on="1"/>
        <pt x="569" y="695" on="1"/>
      </contour>
    </TTGlyph>
    <TTGlyph name="Z" xMin="38" yMin="0" xMax="617" yMax="695">
      <contour>
        <pt x="188" y="640" on="1"/>
        <pt x="201" y="695" on="1"/>
        <pt x="617" y="695" on="1"/>
        <pt x="595" y="602" on="1"/>
        <pt x="123" y="79" on="1"/>
        <pt x="117" y="55" on="1"/>
        <pt x="467" y="55" on="1"/>
        <pt x="454" y="0" on="1"/>
        <pt x="38" y="0" on="1"/>
        <pt x="59" y="90" on="1"/>
        <pt x="530" y="612" on="1"/>
        <pt x="537" y="640" on="1"/>
      </contour>
    </TTGlyph>
    <TTGlyph name="Zacute" xMin="38" yMin="0" xMax="617" yMax="930">
      <contour>
        <pt x="340" y="790" on="1"/>
        <pt x="332" y="835" on="1"/>
        <pt x="551" y="930" on="1"/>
        <pt x="560" y="878" on="1"/>
      </contour>
      <contour>
        <pt x="188" y="640" on="1"/>
        <pt x="201" y="695" on="1"/>
        <pt x="617" y="695" on="1"/>
        <pt x="595" y="602" on="1"/>
        <pt x="123" y="79" on="1"/>
        <pt x="117" y="55" on="1"/>
        <pt x="467" y="55" on="1"/>
        <pt x="454" y="0" on="1"/>
        <pt x="38" y="0" on="1"/>
        <pt x="59" y="90" on="1"/>
        <pt x="530" y="612" on="1"/>
        <pt x="537" y="640" on="1"/>
      </contour>
    </TTGlyph>
    <TTGlyph name="Zcaron" xMin="38" yMin="0" xMax="617" yMax="925">
      <contour>
        <pt x="600" y="925" on="1"/>
        <pt x="444" y="791" on="1"/>
        <pt x="408" y="791" on="1"/>
        <pt x="310" y="925" on="1"/>
        <pt x="369" y="925" on="1"/>
        <pt x="434" y="836" on="1"/>
        <pt x="537" y="925" on="1"/>
      </contour>
      <contour>
        <pt x="188" y="640" on="1"/>
        <pt x="201" y="695" on="1"/>
        <pt x="617" y="695" on="1"/>
        <pt x="595" y="602" on="1"/>
        <pt x="123" y="79" on="1"/>
        <pt x="117" y="55" on="1"/>
        <pt x="467" y="55" on="1"/>
        <pt x="454" y="0" on="1"/>
        <pt x="38" y="0" on="1"/>
        <pt x="59" y="90" on="1"/>
        <pt x="530" y="612" on="1"/>
        <pt x="537" y="640" on="1"/>
      </contour>
    </TTGlyph>
    <TTGlyph name="Zdotaccent" xMin="38" yMin="0" xMax="617" yMax="922">
      <contour>
        <pt x="400" y="844" on="1"/>
        <pt x="417" y="922" on="1"/>
        <pt x="467" y="922" on="1"/>
        <pt x="450" y="844" on="1"/>
      </contour>
      <contour>
        <pt x="188" y="640" on="1"/>
        <pt x="201" y="695" on="1"/>
        <pt x="617" y="695" on="1"/>
        <pt x="595" y="602" on="1"/>
        <pt x="123" y="79" on="1"/>
        <pt x="117" y="55" on="1"/>
        <pt x="467" y="55" on="1"/>
        <pt x="454" y="0" on="1"/>
        <pt x="38" y="0" on="1"/>
        <pt x="59" y="90" on="1"/>
        <pt x="530" y="612" on="1"/>
        <pt x="537" y="640" on="1"/>
      </contour>
    </TTGlyph>
    <TTGlyph name="a" xMin="91" yMin="-10" xMax="536" yMax="510">
      <contour>
        <pt x="216" y="-10" on="1"/>
        <pt x="91" y="-10" on="0"/>
        <pt x="91" y="131" on="1"/>
        <pt x="91" y="262" on="0"/>
        <pt x="154" y="380" on="1"/>
        <pt x="184" y="437" on="0"/>
        <pt x="283" y="510" on="0"/>
        <pt x="342" y="510" on="1"/>
        <pt x="396" y="510" on="0"/>
        <pt x="501" y="492" on="1"/>
        <pt x="536" y="486" on="1"/>
        <pt x="460" y="161" on="1"/>
        <pt x="446" y="105" on="0"/>
        <pt x="436" y="27" on="1"/>
        <pt x="432" y="1" on="1"/>
        <pt x="374" y="-1" on="1"/>
        <pt x="389" y="92" on="0"/>
        <pt x="393" y="113" on="1"/>
        <pt x="389" y="108" on="0"/>
        <pt x="376" y="91" on="0"/>
        <pt x="337" y="49" on="0"/>
        <pt x="297" y="17" on="0"/>
        <pt x="241" y="-10" on="0"/>
      </contour>
      <contour>
        <pt x="467" y="442" on="1"/>
        <pt x="395" y="457" on="0"/>
        <pt x="284" y="457" on="0"/>
        <pt x="194" y="347" on="0"/>
        <pt x="153" y="202" on="0"/>
        <pt x="153" y="87" on="0"/>
        <pt x="190" y="43" on="0"/>
        <pt x="264" y="43" on="0"/>
        <pt x="350" y="113" on="0"/>
        <pt x="378" y="148" on="1"/>
        <pt x="406" y="184" on="1"/>
      </contour>
    </TTGlyph>
    <TTGlyph name="aacute" xMin="91" yMin="-10" xMax="560" yMax="741">
      <contour>
        <pt x="216" y="-10" on="1"/>
        <pt x="91" y="-10" on="0"/>
        <pt x="91" y="131" on="1"/>
        <pt x="91" y="262" on="0"/>
        <pt x="154" y="380" on="1"/>
        <pt x="184" y="437" on="0"/>
        <pt x="283" y="510" on="0"/>
        <pt x="342" y="510" on="1"/>
        <pt x="396" y="510" on="0"/>
        <pt x="501" y="492" on="1"/>
        <pt x="536" y="486" on="1"/>
        <pt x="460" y="161" on="1"/>
        <pt x="446" y="105" on="0"/>
        <pt x="436" y="27" on="1"/>
        <pt x="432" y="1" on="1"/>
        <pt x="374" y="-1" on="1"/>
        <pt x="389" y="92" on="0"/>
        <pt x="393" y="113" on="1"/>
        <pt x="389" y="108" on="0"/>
        <pt x="376" y="91" on="0"/>
        <pt x="337" y="49" on="0"/>
        <pt x="297" y="17" on="0"/>
        <pt x="241" y="-10" on="0"/>
      </contour>
      <contour>
        <pt x="467" y="442" on="1"/>
        <pt x="395" y="457" on="0"/>
        <pt x="284" y="457" on="0"/>
        <pt x="194" y="347" on="0"/>
        <pt x="153" y="202" on="0"/>
        <pt x="153" y="87" on="0"/>
        <pt x="190" y="43" on="0"/>
        <pt x="264" y="43" on="0"/>
        <pt x="350" y="113" on="0"/>
        <pt x="378" y="148" on="1"/>
        <pt x="406" y="184" on="1"/>
      </contour>
      <contour>
        <pt x="341" y="601" on="1"/>
        <pt x="335" y="647" on="1"/>
        <pt x="553" y="741" on="1"/>
        <pt x="560" y="688" on="1"/>
      </contour>
    </TTGlyph>
    <TTGlyph name="abreve" xMin="91" yMin="-10" xMax="582" yMax="727">
      <contour>
        <pt x="216" y="-10" on="1"/>
        <pt x="91" y="-10" on="0"/>
        <pt x="91" y="131" on="1"/>
        <pt x="91" y="262" on="0"/>
        <pt x="154" y="380" on="1"/>
        <pt x="184" y="437" on="0"/>
        <pt x="283" y="510" on="0"/>
        <pt x="342" y="510" on="1"/>
        <pt x="396" y="510" on="0"/>
        <pt x="501" y="492" on="1"/>
        <pt x="536" y="486" on="1"/>
        <pt x="460" y="161" on="1"/>
        <pt x="446" y="105" on="0"/>
        <pt x="436" y="27" on="1"/>
        <pt x="432" y="1" on="1"/>
        <pt x="374" y="-1" on="1"/>
        <pt x="389" y="92" on="0"/>
        <pt x="393" y="113" on="1"/>
        <pt x="389" y="108" on="0"/>
        <pt x="376" y="91" on="0"/>
        <pt x="337" y="49" on="0"/>
        <pt x="297" y="17" on="0"/>
        <pt x="241" y="-10" on="0"/>
      </contour>
      <contour>
        <pt x="467" y="442" on="1"/>
        <pt x="395" y="457" on="0"/>
        <pt x="284" y="457" on="0"/>
        <pt x="194" y="347" on="0"/>
        <pt x="153" y="202" on="0"/>
        <pt x="153" y="87" on="0"/>
        <pt x="190" y="43" on="0"/>
        <pt x="264" y="43" on="0"/>
        <pt x="350" y="113" on="0"/>
        <pt x="378" y="148" on="1"/>
        <pt x="406" y="184" on="1"/>
      </contour>
      <contour>
        <pt x="358" y="727" on="1"/>
        <pt x="355" y="714" on="0"/>
        <pt x="355" y="682" on="0"/>
        <pt x="366" y="666" on="1"/>
        <pt x="382" y="643" on="0"/>
        <pt x="424" y="643" on="1"/>
        <pt x="507" y="643" on="0"/>
        <pt x="530" y="727" on="1"/>
        <pt x="582" y="727" on="1"/>
        <pt x="544" y="594" on="0"/>
        <pt x="409" y="594" on="1"/>
        <pt x="347" y="594" on="0"/>
        <pt x="320" y="631" on="1"/>
        <pt x="303" y="656" on="0"/>
        <pt x="303" y="708" on="0"/>
        <pt x="307" y="727" on="1"/>
      </contour>
    </TTGlyph>
    <TTGlyph name="acircumflex" xMin="91" yMin="-10" xMax="536" yMax="735">
      <contour>
        <pt x="248" y="590" on="1"/>
        <pt x="399" y="735" on="1"/>
        <pt x="441" y="735" on="1"/>
        <pt x="528" y="590" on="1"/>
        <pt x="466" y="590" on="1"/>
        <pt x="412" y="682" on="1"/>
        <pt x="315" y="590" on="1"/>
      </contour>
      <contour>
        <pt x="216" y="-10" on="1"/>
        <pt x="91" y="-10" on="0"/>
        <pt x="91" y="131" on="1"/>
        <pt x="91" y="262" on="0"/>
        <pt x="154" y="380" on="1"/>
        <pt x="184" y="437" on="0"/>
        <pt x="283" y="510" on="0"/>
        <pt x="342" y="510" on="1"/>
        <pt x="396" y="510" on="0"/>
        <pt x="501" y="492" on="1"/>
        <pt x="536" y="486" on="1"/>
        <pt x="460" y="161" on="1"/>
        <pt x="446" y="105" on="0"/>
        <pt x="436" y="27" on="1"/>
        <pt x="432" y="1" on="1"/>
        <pt x="374" y="-1" on="1"/>
        <pt x="389" y="92" on="0"/>
        <pt x="393" y="113" on="1"/>
        <pt x="389" y="108" on="0"/>
        <pt x="376" y="91" on="0"/>
        <pt x="337" y="49" on="0"/>
        <pt x="297" y="17" on="0"/>
        <pt x="241" y="-10" on="0"/>
      </contour>
      <contour>
        <pt x="467" y="442" on="1"/>
        <pt x="395" y="457" on="0"/>
        <pt x="284" y="457" on="0"/>
        <pt x="194" y="347" on="0"/>
        <pt x="153" y="202" on="0"/>
        <pt x="153" y="87" on="0"/>
        <pt x="190" y="43" on="0"/>
        <pt x="264" y="43" on="0"/>
        <pt x="350" y="113" on="0"/>
        <pt x="378" y="148" on="1"/>
        <pt x="406" y="184" on="1"/>
      </contour>
    </TTGlyph>
    <TTGlyph name="acute" xMin="279" yMin="601" xMax="504" yMax="741">
      <contour>
        <pt x="285" y="601" on="1"/>
        <pt x="279" y="647" on="1"/>
        <pt x="497" y="741" on="1"/>
        <pt x="504" y="688" on="1"/>
      </contour>
    </TTGlyph>
    <TTGlyph name="acute.cap.001" xMin="323" yMin="790" xMax="551" yMax="930">
      <contour>
        <pt x="331" y="790" on="1"/>
        <pt x="323" y="835" on="1"/>
        <pt x="542" y="930" on="1"/>
        <pt x="551" y="878" on="1"/>
      </contour>
    </TTGlyph>
    <TTGlyph name="adieresis" xMin="91" yMin="-10" xMax="536" yMax="707">
      <contour>
        <pt x="272" y="625" on="1"/>
        <pt x="291" y="707" on="1"/>
        <pt x="347" y="707" on="1"/>
        <pt x="327" y="625" on="1"/>
      </contour>
      <contour>
        <pt x="458" y="625" on="1"/>
        <pt x="475" y="707" on="1"/>
        <pt x="531" y="707" on="1"/>
        <pt x="512" y="625" on="1"/>
      </contour>
      <contour>
        <pt x="216" y="-10" on="1"/>
        <pt x="91" y="-10" on="0"/>
        <pt x="91" y="131" on="1"/>
        <pt x="91" y="262" on="0"/>
        <pt x="154" y="380" on="1"/>
        <pt x="184" y="437" on="0"/>
        <pt x="283" y="510" on="0"/>
        <pt x="342" y="510" on="1"/>
        <pt x="396" y="510" on="0"/>
        <pt x="501" y="492" on="1"/>
        <pt x="536" y="486" on="1"/>
        <pt x="460" y="161" on="1"/>
        <pt x="446" y="105" on="0"/>
        <pt x="436" y="27" on="1"/>
        <pt x="432" y="1" on="1"/>
        <pt x="374" y="-1" on="1"/>
        <pt x="389" y="92" on="0"/>
        <pt x="393" y="113" on="1"/>
        <pt x="389" y="108" on="0"/>
        <pt x="376" y="91" on="0"/>
        <pt x="337" y="49" on="0"/>
        <pt x="297" y="17" on="0"/>
        <pt x="241" y="-10" on="0"/>
      </contour>
      <contour>
        <pt x="467" y="442" on="1"/>
        <pt x="395" y="457" on="0"/>
        <pt x="284" y="457" on="0"/>
        <pt x="194" y="347" on="0"/>
        <pt x="153" y="202" on="0"/>
        <pt x="153" y="87" on="0"/>
        <pt x="190" y="43" on="0"/>
        <pt x="264" y="43" on="0"/>
        <pt x="350" y="113" on="0"/>
        <pt x="378" y="148" on="1"/>
        <pt x="406" y="184" on="1"/>
      </contour>
    </TTGlyph>
    <TTGlyph name="ae" xMin="64" yMin="-10" xMax="791" yMax="509">
      <contour>
        <pt x="438" y="142" on="1"/>
        <pt x="438" y="47" on="0"/>
        <pt x="522" y="47" on="1"/>
        <pt x="579" y="47" on="0"/>
        <pt x="678" y="54" on="1"/>
        <pt x="707" y="56" on="1"/>
        <pt x="696" y="4" on="1"/>
        <pt x="592" y="-10" on="0"/>
        <pt x="517" y="-10" on="1"/>
        <pt x="423" y="-10" on="0"/>
        <pt x="392" y="46" on="1"/>
        <pt x="343" y="25" on="0"/>
        <pt x="209" y="-10" on="0"/>
        <pt x="165" y="-10" on="1"/>
        <pt x="103" y="-10" on="0"/>
        <pt x="80" y="34" on="1"/>
        <pt x="64" y="62" on="0"/>
        <pt x="64" y="91" on="1"/>
        <pt x="64" y="198" on="0"/>
        <pt x="127" y="244" on="1"/>
        <pt x="172" y="276" on="0"/>
        <pt x="322" y="299" on="0"/>
        <pt x="403" y="304" on="1"/>
        <pt x="419" y="352" on="0"/>
        <pt x="419" y="384" on="1"/>
        <pt x="419" y="450" on="0"/>
        <pt x="352" y="450" on="1"/>
        <pt x="303" y="450" on="0"/>
        <pt x="202" y="442" on="1"/>
        <pt x="173" y="439" on="1"/>
        <pt x="182" y="496" on="1"/>
        <pt x="294" y="509" on="0"/>
        <pt x="353" y="509" on="1"/>
        <pt x="466" y="509" on="0"/>
        <pt x="476" y="428" on="1"/>
        <pt x="538" y="509" on="0"/>
        <pt x="649" y="509" on="1"/>
        <pt x="788" y="509" on="0"/>
        <pt x="791" y="374" on="1"/>
        <pt x="791" y="321" on="0"/>
        <pt x="777" y="271" on="1"/>
        <pt x="764" y="223" on="1"/>
        <pt x="450" y="225" on="1"/>
        <pt x="438" y="174" on="0"/>
      </contour>
      <contour>
        <pt x="127" y="110" on="1"/>
        <pt x="127" y="46" on="0"/>
        <pt x="183" y="46" on="1"/>
        <pt x="253" y="46" on="0"/>
        <pt x="378" y="90" on="1"/>
        <pt x="374" y="110" on="0"/>
        <pt x="374" y="176" on="0"/>
        <pt x="393" y="252" on="1"/>
        <pt x="283" y="241" on="0"/>
        <pt x="241" y="235" on="1"/>
        <pt x="151" y="221" on="0"/>
        <pt x="132" y="143" on="1"/>
        <pt x="127" y="126" on="0"/>
      </contour>
      <contour>
        <pt x="732" y="360" on="1"/>
        <pt x="732" y="454" on="0"/>
        <pt x="636" y="454" on="1"/>
        <pt x="569" y="454" on="0"/>
        <pt x="483" y="369" on="0"/>
        <pt x="461" y="276" on="1"/>
        <pt x="719" y="274" on="1"/>
        <pt x="732" y="327" on="0"/>
      </contour>
    </TTGlyph>
    <TTGlyph name="aeacute" xMin="64" yMin="-10" xMax="791" yMax="741">
      <contour>
        <pt x="438" y="142" on="1"/>
        <pt x="438" y="47" on="0"/>
        <pt x="522" y="47" on="1"/>
        <pt x="579" y="47" on="0"/>
        <pt x="678" y="54" on="1"/>
        <pt x="707" y="56" on="1"/>
        <pt x="696" y="4" on="1"/>
        <pt x="592" y="-10" on="0"/>
        <pt x="517" y="-10" on="1"/>
        <pt x="423" y="-10" on="0"/>
        <pt x="392" y="46" on="1"/>
        <pt x="343" y="25" on="0"/>
        <pt x="209" y="-10" on="0"/>
        <pt x="165" y="-10" on="1"/>
        <pt x="103" y="-10" on="0"/>
        <pt x="80" y="34" on="1"/>
        <pt x="64" y="62" on="0"/>
        <pt x="64" y="91" on="1"/>
        <pt x="64" y="198" on="0"/>
        <pt x="127" y="244" on="1"/>
        <pt x="172" y="276" on="0"/>
        <pt x="322" y="299" on="0"/>
        <pt x="403" y="304" on="1"/>
        <pt x="419" y="352" on="0"/>
        <pt x="419" y="384" on="1"/>
        <pt x="419" y="450" on="0"/>
        <pt x="352" y="450" on="1"/>
        <pt x="303" y="450" on="0"/>
        <pt x="202" y="442" on="1"/>
        <pt x="173" y="439" on="1"/>
        <pt x="182" y="496" on="1"/>
        <pt x="294" y="509" on="0"/>
        <pt x="353" y="509" on="1"/>
        <pt x="466" y="509" on="0"/>
        <pt x="476" y="428" on="1"/>
        <pt x="538" y="509" on="0"/>
        <pt x="649" y="509" on="1"/>
        <pt x="788" y="509" on="0"/>
        <pt x="791" y="374" on="1"/>
        <pt x="791" y="321" on="0"/>
        <pt x="777" y="271" on="1"/>
        <pt x="764" y="223" on="1"/>
        <pt x="450" y="225" on="1"/>
        <pt x="438" y="174" on="0"/>
      </contour>
      <contour>
        <pt x="127" y="110" on="1"/>
        <pt x="127" y="46" on="0"/>
        <pt x="183" y="46" on="1"/>
        <pt x="253" y="46" on="0"/>
        <pt x="378" y="90" on="1"/>
        <pt x="374" y="110" on="0"/>
        <pt x="374" y="176" on="0"/>
        <pt x="393" y="252" on="1"/>
        <pt x="283" y="241" on="0"/>
        <pt x="241" y="235" on="1"/>
        <pt x="151" y="221" on="0"/>
        <pt x="132" y="143" on="1"/>
        <pt x="127" y="126" on="0"/>
      </contour>
      <contour>
        <pt x="732" y="360" on="1"/>
        <pt x="732" y="454" on="0"/>
        <pt x="636" y="454" on="1"/>
        <pt x="569" y="454" on="0"/>
        <pt x="483" y="369" on="0"/>
        <pt x="461" y="276" on="1"/>
        <pt x="719" y="274" on="1"/>
        <pt x="732" y="327" on="0"/>
      </contour>
      <contour>
        <pt x="441" y="601" on="1"/>
        <pt x="435" y="647" on="1"/>
        <pt x="653" y="741" on="1"/>
        <pt x="660" y="688" on="1"/>
      </contour>
    </TTGlyph>
    <TTGlyph name="agrave" xMin="91" yMin="-10" xMax="536" yMax="734">
      <contour>
        <pt x="216" y="-10" on="1"/>
        <pt x="91" y="-10" on="0"/>
        <pt x="91" y="131" on="1"/>
        <pt x="91" y="262" on="0"/>
        <pt x="154" y="380" on="1"/>
        <pt x="184" y="437" on="0"/>
        <pt x="283" y="510" on="0"/>
        <pt x="342" y="510" on="1"/>
        <pt x="396" y="510" on="0"/>
        <pt x="501" y="492" on="1"/>
        <pt x="536" y="486" on="1"/>
        <pt x="460" y="161" on="1"/>
        <pt x="446" y="105" on="0"/>
        <pt x="436" y="27" on="1"/>
        <pt x="432" y="1" on="1"/>
        <pt x="374" y="-1" on="1"/>
        <pt x="389" y="92" on="0"/>
        <pt x="393" y="113" on="1"/>
        <pt x="389" y="108" on="0"/>
        <pt x="376" y="91" on="0"/>
        <pt x="337" y="49" on="0"/>
        <pt x="297" y="17" on="0"/>
        <pt x="241" y="-10" on="0"/>
      </contour>
      <contour>
        <pt x="467" y="442" on="1"/>
        <pt x="395" y="457" on="0"/>
        <pt x="284" y="457" on="0"/>
        <pt x="194" y="347" on="0"/>
        <pt x="153" y="202" on="0"/>
        <pt x="153" y="87" on="0"/>
        <pt x="190" y="43" on="0"/>
        <pt x="264" y="43" on="0"/>
        <pt x="350" y="113" on="0"/>
        <pt x="378" y="148" on="1"/>
        <pt x="406" y="184" on="1"/>
      </contour>
      <contour>
        <pt x="335" y="734" on="1"/>
        <pt x="511" y="640" on="1"/>
        <pt x="483" y="599" on="1"/>
        <pt x="306" y="687" on="1"/>
      </contour>
    </TTGlyph>
    <TTGlyph name="amacron" xMin="91" yMin="-10" xMax="565" yMax="689">
      <contour>
        <pt x="216" y="-10" on="1"/>
        <pt x="91" y="-10" on="0"/>
        <pt x="91" y="131" on="1"/>
        <pt x="91" y="262" on="0"/>
        <pt x="154" y="380" on="1"/>
        <pt x="184" y="437" on="0"/>
        <pt x="283" y="510" on="0"/>
        <pt x="342" y="510" on="1"/>
        <pt x="396" y="510" on="0"/>
        <pt x="501" y="492" on="1"/>
        <pt x="536" y="486" on="1"/>
        <pt x="460" y="161" on="1"/>
        <pt x="446" y="105" on="0"/>
        <pt x="436" y="27" on="1"/>
        <pt x="432" y="1" on="1"/>
        <pt x="374" y="-1" on="1"/>
        <pt x="389" y="92" on="0"/>
        <pt x="393" y="113" on="1"/>
        <pt x="389" y="108" on="0"/>
        <pt x="376" y="91" on="0"/>
        <pt x="337" y="49" on="0"/>
        <pt x="297" y="17" on="0"/>
        <pt x="241" y="-10" on="0"/>
      </contour>
      <contour>
        <pt x="467" y="442" on="1"/>
        <pt x="395" y="457" on="0"/>
        <pt x="284" y="457" on="0"/>
        <pt x="194" y="347" on="0"/>
        <pt x="153" y="202" on="0"/>
        <pt x="153" y="87" on="0"/>
        <pt x="190" y="43" on="0"/>
        <pt x="264" y="43" on="0"/>
        <pt x="350" y="113" on="0"/>
        <pt x="378" y="148" on="1"/>
        <pt x="406" y="184" on="1"/>
      </contour>
      <contour>
        <pt x="287" y="642" on="1"/>
        <pt x="298" y="689" on="1"/>
        <pt x="565" y="689" on="1"/>
        <pt x="553" y="642" on="1"/>
      </contour>
    </TTGlyph>
    <TTGlyph name="ampersand" xMin="78" yMin="-10" xMax="631" yMax="705">
      <contour>
        <pt x="446" y="705" on="1"/>
        <pt x="580" y="705" on="0"/>
        <pt x="580" y="589" on="1"/>
        <pt x="580" y="511" on="0"/>
        <pt x="480" y="403" on="0"/>
        <pt x="379" y="365" on="1"/>
        <pt x="498" y="200" on="1"/>
        <pt x="536" y="262" on="0"/>
        <pt x="560" y="338" on="1"/>
        <pt x="619" y="338" on="1"/>
        <pt x="590" y="240" on="0"/>
        <pt x="533" y="157" on="1"/>
        <pt x="631" y="32" on="1"/>
        <pt x="589" y="-6" on="1"/>
        <pt x="496" y="113" on="1"/>
        <pt x="399" y="-10" on="0"/>
        <pt x="262" y="-10" on="1"/>
        <pt x="166" y="-10" on="0"/>
        <pt x="78" y="67" on="0"/>
        <pt x="78" y="248" on="0"/>
        <pt x="175" y="368" on="0"/>
        <pt x="286" y="410" on="1"/>
        <pt x="260" y="464" on="0"/>
        <pt x="260" y="507" on="1"/>
        <pt x="260" y="599" on="0"/>
        <pt x="359" y="705" on="0"/>
      </contour>
      <contour>
        <pt x="269" y="44" on="1"/>
        <pt x="386" y="44" on="0"/>
        <pt x="463" y="155" on="1"/>
        <pt x="311" y="368" on="1"/>
        <pt x="217" y="334" on="0"/>
        <pt x="141" y="232" on="0"/>
        <pt x="141" y="151" on="1"/>
        <pt x="141" y="44" on="0"/>
      </contour>
      <contour>
        <pt x="384" y="653" on="0"/>
        <pt x="322" y="571" on="0"/>
        <pt x="322" y="451" on="0"/>
        <pt x="354" y="404" on="1"/>
        <pt x="442" y="439" on="0"/>
        <pt x="518" y="524" on="0"/>
        <pt x="518" y="586" on="1"/>
        <pt x="518" y="653" on="0"/>
        <pt x="443" y="653" on="1"/>
      </contour>
    </TTGlyph>
    <TTGlyph name="aogonek" xMin="91" yMin="-202" xMax="536" yMax="510">
      <contour>
        <pt x="334" y="-202" on="1"/>
        <pt x="266" y="-202" on="0"/>
        <pt x="266" y="-142" on="1"/>
        <pt x="266" y="-107" on="0"/>
        <pt x="338" y="-19" on="0"/>
        <pt x="375" y="9" on="1"/>
        <pt x="376" y="14" on="0"/>
        <pt x="391" y="102" on="0"/>
        <pt x="393" y="113" on="1"/>
        <pt x="389" y="108" on="0"/>
        <pt x="376" y="91" on="0"/>
        <pt x="337" y="49" on="0"/>
        <pt x="297" y="17" on="0"/>
        <pt x="241" y="-10" on="0"/>
        <pt x="216" y="-10" on="1"/>
        <pt x="91" y="-10" on="0"/>
        <pt x="91" y="131" on="1"/>
        <pt x="91" y="262" on="0"/>
        <pt x="154" y="380" on="1"/>
        <pt x="184" y="437" on="0"/>
        <pt x="283" y="510" on="0"/>
        <pt x="342" y="510" on="1"/>
        <pt x="396" y="510" on="0"/>
        <pt x="501" y="492" on="1"/>
        <pt x="536" y="486" on="1"/>
        <pt x="460" y="161" on="1"/>
        <pt x="446" y="105" on="0"/>
        <pt x="436" y="27" on="1"/>
        <pt x="432" y="1" on="1"/>
        <pt x="427" y="1" on="1"/>
        <pt x="397" y="-22" on="0"/>
        <pt x="332" y="-101" on="0"/>
        <pt x="332" y="-126" on="1"/>
        <pt x="332" y="-148" on="0"/>
        <pt x="360" y="-148" on="1"/>
        <pt x="411" y="-142" on="1"/>
        <pt x="405" y="-193" on="1"/>
        <pt x="363" y="-202" on="0"/>
      </contour>
      <contour>
        <pt x="467" y="442" on="1"/>
        <pt x="395" y="457" on="0"/>
        <pt x="284" y="457" on="0"/>
        <pt x="194" y="347" on="0"/>
        <pt x="153" y="202" on="0"/>
        <pt x="153" y="87" on="0"/>
        <pt x="190" y="43" on="0"/>
        <pt x="264" y="43" on="0"/>
        <pt x="350" y="113" on="0"/>
        <pt x="378" y="148" on="1"/>
        <pt x="406" y="184" on="1"/>
      </contour>
    </TTGlyph>
    <TTGlyph name="approxequal" xMin="122" yMin="95" xMax="550" yMax="393">
      <contour>
        <pt x="437" y="271" on="1"/>
        <pt x="407" y="271" on="0"/>
        <pt x="257" y="337" on="0"/>
        <pt x="238" y="337" on="1"/>
        <pt x="204" y="337" on="0"/>
        <pt x="150" y="300" on="1"/>
        <pt x="133" y="288" on="1"/>
        <pt x="122" y="339" on="1"/>
        <pt x="184" y="393" on="0"/>
        <pt x="238" y="393" on="1"/>
        <pt x="267" y="393" on="0"/>
        <pt x="415" y="327" on="0"/>
        <pt x="434" y="327" on="1"/>
        <pt x="469" y="327" on="0"/>
        <pt x="522" y="363" on="1"/>
        <pt x="539" y="375" on="1"/>
        <pt x="550" y="325" on="1"/>
        <pt x="490" y="271" on="0"/>
      </contour>
      <contour>
        <pt x="437" y="95" on="1"/>
        <pt x="407" y="95" on="0"/>
        <pt x="257" y="161" on="0"/>
        <pt x="238" y="161" on="1"/>
        <pt x="204" y="161" on="0"/>
        <pt x="150" y="124" on="1"/>
        <pt x="133" y="112" on="1"/>
        <pt x="122" y="163" on="1"/>
        <pt x="184" y="217" on="0"/>
        <pt x="238" y="217" on="1"/>
        <pt x="267" y="217" on="0"/>
        <pt x="415" y="151" on="0"/>
        <pt x="434" y="151" on="1"/>
        <pt x="469" y="151" on="0"/>
        <pt x="522" y="187" on="1"/>
        <pt x="539" y="199" on="1"/>
        <pt x="550" y="149" on="1"/>
        <pt x="490" y="95" on="0"/>
      </contour>
    </TTGlyph>
    <TTGlyph name="aring" xMin="91" yMin="-10" xMax="536" yMax="759">
      <contour>
        <pt x="216" y="-10" on="1"/>
        <pt x="91" y="-10" on="0"/>
        <pt x="91" y="131" on="1"/>
        <pt x="91" y="262" on="0"/>
        <pt x="154" y="380" on="1"/>
        <pt x="184" y="437" on="0"/>
        <pt x="283" y="510" on="0"/>
        <pt x="342" y="510" on="1"/>
        <pt x="396" y="510" on="0"/>
        <pt x="501" y="492" on="1"/>
        <pt x="536" y="486" on="1"/>
        <pt x="460" y="161" on="1"/>
        <pt x="446" y="105" on="0"/>
        <pt x="436" y="27" on="1"/>
        <pt x="432" y="1" on="1"/>
        <pt x="374" y="-1" on="1"/>
        <pt x="389" y="92" on="0"/>
        <pt x="393" y="113" on="1"/>
        <pt x="389" y="108" on="0"/>
        <pt x="376" y="91" on="0"/>
        <pt x="337" y="49" on="0"/>
        <pt x="297" y="17" on="0"/>
        <pt x="241" y="-10" on="0"/>
      </contour>
      <contour>
        <pt x="467" y="442" on="1"/>
        <pt x="395" y="457" on="0"/>
        <pt x="284" y="457" on="0"/>
        <pt x="194" y="347" on="0"/>
        <pt x="153" y="202" on="0"/>
        <pt x="153" y="87" on="0"/>
        <pt x="190" y="43" on="0"/>
        <pt x="264" y="43" on="0"/>
        <pt x="350" y="113" on="0"/>
        <pt x="378" y="148" on="1"/>
        <pt x="406" y="184" on="1"/>
      </contour>
      <contour>
        <pt x="376" y="731" on="1"/>
        <pt x="407" y="759" on="0"/>
        <pt x="485" y="759" on="0"/>
        <pt x="517" y="720" on="0"/>
        <pt x="517" y="690" on="1"/>
        <pt x="517" y="635" on="0"/>
        <pt x="448" y="569" on="0"/>
        <pt x="361" y="569" on="0"/>
        <pt x="345" y="595" on="1"/>
        <pt x="334" y="612" on="0"/>
        <pt x="334" y="631" on="1"/>
        <pt x="334" y="693" on="0"/>
      </contour>
      <contour>
        <pt x="392" y="610" on="0"/>
        <pt x="436" y="610" on="0"/>
        <pt x="479" y="647" on="0"/>
        <pt x="479" y="680" on="1"/>
        <pt x="479" y="689" on="0"/>
        <pt x="461" y="716" on="0"/>
        <pt x="418" y="716" on="0"/>
        <pt x="374" y="681" on="0"/>
        <pt x="374" y="647" on="1"/>
        <pt x="374" y="638" on="0"/>
      </contour>
    </TTGlyph>
    <TTGlyph name="aringacute" xMin="91" yMin="-10" xMax="559" yMax="916">
      <contour>
        <pt x="340" y="771" on="1"/>
        <pt x="333" y="822" on="1"/>
        <pt x="551" y="916" on="1"/>
        <pt x="559" y="858" on="1"/>
      </contour>
      <contour>
        <pt x="216" y="-10" on="1"/>
        <pt x="91" y="-10" on="0"/>
        <pt x="91" y="131" on="1"/>
        <pt x="91" y="262" on="0"/>
        <pt x="154" y="380" on="1"/>
        <pt x="184" y="437" on="0"/>
        <pt x="283" y="510" on="0"/>
        <pt x="342" y="510" on="1"/>
        <pt x="396" y="510" on="0"/>
        <pt x="501" y="492" on="1"/>
        <pt x="536" y="486" on="1"/>
        <pt x="460" y="161" on="1"/>
        <pt x="446" y="105" on="0"/>
        <pt x="436" y="27" on="1"/>
        <pt x="432" y="1" on="1"/>
        <pt x="374" y="-1" on="1"/>
        <pt x="389" y="92" on="0"/>
        <pt x="393" y="113" on="1"/>
        <pt x="389" y="108" on="0"/>
        <pt x="376" y="91" on="0"/>
        <pt x="337" y="49" on="0"/>
        <pt x="297" y="17" on="0"/>
        <pt x="241" y="-10" on="0"/>
      </contour>
      <contour>
        <pt x="467" y="442" on="1"/>
        <pt x="395" y="457" on="0"/>
        <pt x="284" y="457" on="0"/>
        <pt x="194" y="347" on="0"/>
        <pt x="153" y="202" on="0"/>
        <pt x="153" y="87" on="0"/>
        <pt x="190" y="43" on="0"/>
        <pt x="264" y="43" on="0"/>
        <pt x="350" y="113" on="0"/>
        <pt x="378" y="148" on="1"/>
        <pt x="406" y="184" on="1"/>
      </contour>
      <contour>
        <pt x="345" y="711" on="1"/>
        <pt x="376" y="739" on="0"/>
        <pt x="454" y="739" on="0"/>
        <pt x="486" y="700" on="0"/>
        <pt x="486" y="670" on="1"/>
        <pt x="486" y="615" on="0"/>
        <pt x="417" y="549" on="0"/>
        <pt x="330" y="549" on="0"/>
        <pt x="314" y="575" on="1"/>
        <pt x="303" y="592" on="0"/>
        <pt x="303" y="611" on="1"/>
        <pt x="303" y="673" on="0"/>
      </contour>
      <contour>
        <pt x="361" y="590" on="0"/>
        <pt x="405" y="590" on="0"/>
        <pt x="448" y="627" on="0"/>
        <pt x="448" y="660" on="1"/>
        <pt x="448" y="669" on="0"/>
        <pt x="430" y="696" on="0"/>
        <pt x="387" y="696" on="0"/>
        <pt x="343" y="661" on="0"/>
        <pt x="343" y="627" on="1"/>
        <pt x="343" y="618" on="0"/>
      </contour>
    </TTGlyph>
    <TTGlyph name="asciicircum" xMin="131" yMin="320" xMax="561" yMax="660">
      <contour>
        <pt x="496" y="320" on="1"/>
        <pt x="343" y="600" on="1"/>
        <pt x="196" y="320" on="1"/>
        <pt x="131" y="320" on="1"/>
        <pt x="315" y="660" on="1"/>
        <pt x="370" y="660" on="1"/>
        <pt x="561" y="320" on="1"/>
      </contour>
    </TTGlyph>
    <TTGlyph name="asciitilde" xMin="128" yMin="201" xMax="554" yMax="323">
      <contour>
        <pt x="441" y="201" on="1"/>
        <pt x="411" y="201" on="0"/>
        <pt x="262" y="267" on="0"/>
        <pt x="244" y="267" on="1"/>
        <pt x="210" y="267" on="0"/>
        <pt x="156" y="230" on="1"/>
        <pt x="139" y="218" on="1"/>
        <pt x="128" y="269" on="1"/>
        <pt x="190" y="323" on="0"/>
        <pt x="243" y="323" on="1"/>
        <pt x="272" y="323" on="0"/>
        <pt x="420" y="257" on="0"/>
        <pt x="438" y="257" on="1"/>
        <pt x="473" y="257" on="0"/>
        <pt x="526" y="293" on="1"/>
        <pt x="543" y="305" on="1"/>
        <pt x="554" y="255" on="1"/>
        <pt x="494" y="201" on="0"/>
      </contour>
    </TTGlyph>
    <TTGlyph name="asterisk" xMin="177" yMin="374" xMax="488" yMax="700">
      <contour>
        <pt x="488" y="514" on="1"/>
        <pt x="354" y="514" on="1"/>
        <pt x="395" y="387" on="1"/>
        <pt x="353" y="374" on="1"/>
        <pt x="311" y="502" on="1"/>
        <pt x="203" y="423" on="1"/>
        <pt x="177" y="458" on="1"/>
        <pt x="286" y="537" on="1"/>
        <pt x="178" y="616" on="1"/>
        <pt x="205" y="652" on="1"/>
        <pt x="313" y="573" on="1"/>
        <pt x="354" y="700" on="1"/>
        <pt x="397" y="686" on="1"/>
        <pt x="356" y="558" on="1"/>
        <pt x="488" y="558" on="1"/>
      </contour>
    </TTGlyph>
    <TTGlyph name="at" xMin="88" yMin="-200" xMax="973" yMax="719">
      <contour>
        <pt x="639" y="719" on="1"/>
        <pt x="732" y="719" on="0"/>
        <pt x="867" y="675" on="0"/>
        <pt x="904" y="637" on="1"/>
        <pt x="973" y="566" on="0"/>
        <pt x="973" y="444" on="1"/>
        <pt x="973" y="381" on="0"/>
        <pt x="930" y="200" on="0"/>
        <pt x="880" y="75" on="0"/>
        <pt x="819" y="12" on="0"/>
        <pt x="760" y="-10" on="0"/>
        <pt x="718" y="-10" on="1"/>
        <pt x="632" y="-10" on="0"/>
        <pt x="623" y="49" on="1"/>
        <pt x="505" y="-10" on="0"/>
        <pt x="432" y="-10" on="1"/>
        <pt x="383" y="-10" on="0"/>
        <pt x="326" y="31" on="0"/>
        <pt x="313" y="100" on="0"/>
        <pt x="313" y="116" on="1"/>
        <pt x="313" y="161" on="0"/>
        <pt x="321" y="209" on="1"/>
        <pt x="374" y="510" on="0"/>
        <pt x="575" y="510" on="1"/>
        <pt x="629" y="510" on="0"/>
        <pt x="758" y="486" on="1"/>
        <pt x="739" y="413" on="0"/>
        <pt x="675" y="122" on="0"/>
        <pt x="675" y="63" on="0"/>
        <pt x="700" y="47" on="0"/>
        <pt x="767" y="47" on="0"/>
        <pt x="817" y="81" on="0"/>
        <pt x="873" y="198" on="0"/>
        <pt x="913" y="371" on="0"/>
        <pt x="916" y="429" on="0"/>
        <pt x="916" y="479" on="0"/>
        <pt x="893" y="565" on="0"/>
        <pt x="862" y="596" on="1"/>
        <pt x="795" y="665" on="0"/>
        <pt x="628" y="665" on="1"/>
        <pt x="437" y="665" on="0"/>
        <pt x="222" y="478" on="0"/>
        <pt x="169" y="263" on="1"/>
        <pt x="148" y="178" on="0"/>
        <pt x="148" y="111" on="1"/>
        <pt x="148" y="-145" on="0"/>
        <pt x="449" y="-145" on="1"/>
        <pt x="585" y="-136" on="1"/>
        <pt x="575" y="-190" on="1"/>
        <pt x="480" y="-200" on="0"/>
        <pt x="435" y="-200" on="1"/>
        <pt x="334" y="-200" on="0"/>
        <pt x="190" y="-144" on="0"/>
        <pt x="117" y="-54" on="0"/>
        <pt x="89" y="59" on="0"/>
        <pt x="89" y="121" on="0"/>
        <pt x="93" y="194" on="0"/>
        <pt x="109" y="263" on="1"/>
        <pt x="167" y="511" on="0"/>
        <pt x="416" y="719" on="0"/>
      </contour>
      <contour>
        <pt x="448" y="46" on="1"/>
        <pt x="513" y="46" on="0"/>
        <pt x="615" y="101" on="1"/>
        <pt x="620" y="158" on="0"/>
        <pt x="688" y="442" on="1"/>
        <pt x="632" y="457" on="0"/>
        <pt x="571" y="457" on="1"/>
        <pt x="494" y="457" on="0"/>
        <pt x="407" y="332" on="0"/>
        <pt x="381" y="208" on="1"/>
        <pt x="372" y="166" on="0"/>
        <pt x="372" y="135" on="1"/>
        <pt x="372" y="46" on="0"/>
        <pt x="446" y="46" on="1"/>
        <pt x="447" y="46" on="0"/>
      </contour>
    </TTGlyph>
    <TTGlyph name="at.cap" xMin="101" yMin="-105" xMax="986" yMax="814">
      <contour>
        <pt x="652" y="814" on="1"/>
        <pt x="745" y="814" on="0"/>
        <pt x="880" y="770" on="0"/>
        <pt x="917" y="732" on="1"/>
        <pt x="986" y="661" on="0"/>
        <pt x="986" y="539" on="1"/>
        <pt x="986" y="476" on="0"/>
        <pt x="943" y="295" on="0"/>
        <pt x="893" y="170" on="0"/>
        <pt x="832" y="107" on="0"/>
        <pt x="773" y="85" on="0"/>
        <pt x="731" y="85" on="1"/>
        <pt x="645" y="85" on="0"/>
        <pt x="636" y="144" on="1"/>
        <pt x="518" y="85" on="0"/>
        <pt x="445" y="85" on="1"/>
        <pt x="396" y="85" on="0"/>
        <pt x="339" y="126" on="0"/>
        <pt x="326" y="195" on="0"/>
        <pt x="326" y="211" on="1"/>
        <pt x="326" y="256" on="0"/>
        <pt x="334" y="304" on="1"/>
        <pt x="387" y="605" on="0"/>
        <pt x="588" y="605" on="1"/>
        <pt x="642" y="605" on="0"/>
        <pt x="771" y="581" on="1"/>
        <pt x="752" y="508" on="0"/>
        <pt x="688" y="217" on="0"/>
        <pt x="688" y="158" on="0"/>
        <pt x="713" y="142" on="0"/>
        <pt x="780" y="142" on="0"/>
        <pt x="830" y="176" on="0"/>
        <pt x="886" y="293" on="0"/>
        <pt x="926" y="466" on="0"/>
        <pt x="929" y="524" on="0"/>
        <pt x="929" y="574" on="0"/>
        <pt x="906" y="660" on="0"/>
        <pt x="875" y="692" on="1"/>
        <pt x="808" y="760" on="0"/>
        <pt x="641" y="760" on="1"/>
        <pt x="450" y="760" on="0"/>
        <pt x="235" y="573" on="0"/>
        <pt x="182" y="358" on="1"/>
        <pt x="161" y="273" on="0"/>
        <pt x="161" y="206" on="1"/>
        <pt x="161" y="-50" on="0"/>
        <pt x="462" y="-50" on="1"/>
        <pt x="598" y="-41" on="1"/>
        <pt x="588" y="-95" on="1"/>
        <pt x="493" y="-105" on="0"/>
        <pt x="448" y="-105" on="1"/>
        <pt x="347" y="-105" on="0"/>
        <pt x="203" y="-49" on="0"/>
        <pt x="130" y="41" on="0"/>
        <pt x="102" y="154" on="0"/>
        <pt x="102" y="216" on="0"/>
        <pt x="106" y="289" on="0"/>
        <pt x="122" y="358" on="1"/>
        <pt x="180" y="606" on="0"/>
        <pt x="429" y="814" on="0"/>
      </contour>
      <contour>
        <pt x="461" y="141" on="1"/>
        <pt x="526" y="141" on="0"/>
        <pt x="628" y="196" on="1"/>
        <pt x="633" y="253" on="0"/>
        <pt x="701" y="537" on="1"/>
        <pt x="645" y="552" on="0"/>
        <pt x="584" y="552" on="1"/>
        <pt x="507" y="552" on="0"/>
        <pt x="420" y="427" on="0"/>
        <pt x="394" y="303" on="1"/>
        <pt x="385" y="261" on="0"/>
        <pt x="385" y="230" on="1"/>
        <pt x="385" y="141" on="0"/>
        <pt x="459" y="141" on="1"/>
        <pt x="460" y="141" on="0"/>
      </contour>
    </TTGlyph>
    <TTGlyph name="atilde" xMin="91" yMin="-10" xMax="571" yMax="722">
      <contour>
        <pt x="216" y="-10" on="1"/>
        <pt x="91" y="-10" on="0"/>
        <pt x="91" y="131" on="1"/>
        <pt x="91" y="262" on="0"/>
        <pt x="154" y="380" on="1"/>
        <pt x="184" y="437" on="0"/>
        <pt x="283" y="510" on="0"/>
        <pt x="342" y="510" on="1"/>
        <pt x="396" y="510" on="0"/>
        <pt x="501" y="492" on="1"/>
        <pt x="536" y="486" on="1"/>
        <pt x="460" y="161" on="1"/>
        <pt x="446" y="105" on="0"/>
        <pt x="436" y="27" on="1"/>
        <pt x="432" y="1" on="1"/>
        <pt x="374" y="-1" on="1"/>
        <pt x="389" y="92" on="0"/>
        <pt x="393" y="113" on="1"/>
        <pt x="389" y="108" on="0"/>
        <pt x="376" y="91" on="0"/>
        <pt x="337" y="49" on="0"/>
        <pt x="297" y="17" on="0"/>
        <pt x="241" y="-10" on="0"/>
      </contour>
      <contour>
        <pt x="467" y="442" on="1"/>
        <pt x="395" y="457" on="0"/>
        <pt x="284" y="457" on="0"/>
        <pt x="194" y="347" on="0"/>
        <pt x="153" y="202" on="0"/>
        <pt x="153" y="87" on="0"/>
        <pt x="190" y="43" on="0"/>
        <pt x="264" y="43" on="0"/>
        <pt x="350" y="113" on="0"/>
        <pt x="378" y="148" on="1"/>
        <pt x="406" y="184" on="1"/>
      </contour>
      <contour>
        <pt x="483" y="620" on="1"/>
        <pt x="464" y="620" on="0"/>
        <pt x="368" y="669" on="0"/>
        <pt x="357" y="669" on="1"/>
        <pt x="337" y="669" on="0"/>
        <pt x="292" y="636" on="1"/>
        <pt x="277" y="625" on="1"/>
        <pt x="275" y="672" on="1"/>
        <pt x="335" y="722" on="0"/>
        <pt x="369" y="722" on="1"/>
        <pt x="391" y="722" on="0"/>
        <pt x="483" y="673" on="0"/>
        <pt x="492" y="673" on="1"/>
        <pt x="510" y="673" on="0"/>
        <pt x="553" y="704" on="1"/>
        <pt x="567" y="714" on="1"/>
        <pt x="571" y="668" on="1"/>
        <pt x="517" y="620" on="0"/>
      </contour>
    </TTGlyph>
    <TTGlyph name="b" xMin="71" yMin="-10" xMax="516" yMax="722">
      <contour>
        <pt x="386" y="510" on="1"/>
        <pt x="460" y="510" on="0"/>
        <pt x="516" y="432" on="0"/>
        <pt x="516" y="359" on="1"/>
        <pt x="516" y="271" on="0"/>
        <pt x="480" y="176" on="1"/>
        <pt x="436" y="63" on="0"/>
        <pt x="359" y="16" on="1"/>
        <pt x="315" y="-10" on="0"/>
        <pt x="272" y="-10" on="1"/>
        <pt x="195" y="-10" on="0"/>
        <pt x="102" y="8" on="1"/>
        <pt x="71" y="14" on="1"/>
        <pt x="235" y="722" on="1"/>
        <pt x="295" y="722" on="1"/>
        <pt x="226" y="427" on="1"/>
        <pt x="235" y="436" on="0"/>
        <pt x="266" y="464" on="0"/>
        <pt x="350" y="510" on="0"/>
      </contour>
      <contour>
        <pt x="141" y="57" on="1"/>
        <pt x="216" y="43" on="0"/>
        <pt x="313" y="43" on="0"/>
        <pt x="393" y="118" on="0"/>
        <pt x="414" y="172" on="1"/>
        <pt x="454" y="280" on="0"/>
        <pt x="454" y="406" on="0"/>
        <pt x="421" y="456" on="0"/>
        <pt x="369" y="456" on="1"/>
        <pt x="339" y="456" on="0"/>
        <pt x="260" y="409" on="0"/>
        <pt x="236" y="386" on="1"/>
        <pt x="211" y="362" on="1"/>
      </contour>
    </TTGlyph>
    <TTGlyph name="backslash" xMin="189" yMin="0" xMax="383" yMax="701">
      <contour>
        <pt x="383" y="10" on="1"/>
        <pt x="320" y="0" on="1"/>
        <pt x="189" y="691" on="1"/>
        <pt x="252" y="701" on="1"/>
      </contour>
    </TTGlyph>
    <TTGlyph name="bar" xMin="180" yMin="-225" xMax="240" yMax="722">
      <contour>
        <pt x="180" y="-225" on="1"/>
        <pt x="180" y="722" on="1"/>
        <pt x="240" y="722" on="1"/>
        <pt x="240" y="-225" on="1"/>
      </contour>
    </TTGlyph>
    <TTGlyph name="braceleft" xMin="88" yMin="-126" xMax="461" yMax="751">
      <contour>
        <pt x="221" y="223" on="1"/>
        <pt x="221" y="204" on="0"/>
        <pt x="173" y="35" on="0"/>
        <pt x="173" y="4" on="1"/>
        <pt x="173" y="-70" on="0"/>
        <pt x="269" y="-70" on="1"/>
        <pt x="254" y="-126" on="1"/>
        <pt x="113" y="-122" on="0"/>
        <pt x="113" y="-13" on="1"/>
        <pt x="113" y="20" on="0"/>
        <pt x="161" y="191" on="0"/>
        <pt x="161" y="215" on="1"/>
        <pt x="161" y="264" on="0"/>
        <pt x="88" y="288" on="1"/>
        <pt x="100" y="338" on="1"/>
        <pt x="165" y="355" on="0"/>
        <pt x="213" y="406" on="0"/>
        <pt x="224" y="460" on="1"/>
        <pt x="227" y="473" on="0"/>
        <pt x="232" y="504" on="1"/>
        <pt x="245" y="578" on="0"/>
        <pt x="252" y="598" on="1"/>
        <pt x="277" y="677" on="0"/>
        <pt x="372" y="747" on="0"/>
        <pt x="461" y="751" on="1"/>
        <pt x="451" y="696" on="1"/>
        <pt x="382" y="692" on="0"/>
        <pt x="314" y="631" on="0"/>
        <pt x="301" y="569" on="1"/>
        <pt x="301" y="567" on="0"/>
        <pt x="283" y="465" on="0"/>
        <pt x="279" y="451" on="1"/>
        <pt x="265" y="389" on="0"/>
        <pt x="212" y="329" on="0"/>
        <pt x="158" y="311" on="1"/>
        <pt x="221" y="286" on="0"/>
      </contour>
    </TTGlyph>
    <TTGlyph name="braceleft.cap" xMin="95" yMin="-96" xMax="468" yMax="781">
      <contour>
        <pt x="228" y="253" on="1"/>
        <pt x="228" y="235" on="0"/>
        <pt x="180" y="64" on="0"/>
        <pt x="180" y="34" on="1"/>
        <pt x="180" y="-40" on="0"/>
        <pt x="276" y="-40" on="1"/>
        <pt x="261" y="-96" on="1"/>
        <pt x="120" y="-92" on="0"/>
        <pt x="120" y="17" on="1"/>
        <pt x="120" y="50" on="0"/>
        <pt x="168" y="221" on="0"/>
        <pt x="168" y="245" on="1"/>
        <pt x="168" y="294" on="0"/>
        <pt x="95" y="318" on="1"/>
        <pt x="107" y="368" on="1"/>
        <pt x="172" y="385" on="0"/>
        <pt x="220" y="436" on="0"/>
        <pt x="231" y="490" on="1"/>
        <pt x="234" y="503" on="0"/>
        <pt x="240" y="534" on="1"/>
        <pt x="252" y="608" on="0"/>
        <pt x="259" y="628" on="1"/>
        <pt x="284" y="707" on="0"/>
        <pt x="379" y="777" on="0"/>
        <pt x="468" y="781" on="1"/>
        <pt x="458" y="726" on="1"/>
        <pt x="389" y="722" on="0"/>
        <pt x="321" y="661" on="0"/>
        <pt x="308" y="599" on="1"/>
        <pt x="308" y="597" on="0"/>
        <pt x="290" y="495" on="0"/>
        <pt x="286" y="481" on="1"/>
        <pt x="272" y="419" on="0"/>
        <pt x="219" y="359" on="0"/>
        <pt x="165" y="341" on="1"/>
        <pt x="228" y="316" on="0"/>
      </contour>
    </TTGlyph>
    <TTGlyph name="braceright" xMin="1" yMin="-128" xMax="374" yMax="749">
      <contour>
        <pt x="241" y="400" on="1"/>
        <pt x="241" y="418" on="0"/>
        <pt x="289" y="588" on="0"/>
        <pt x="289" y="619" on="1"/>
        <pt x="289" y="693" on="0"/>
        <pt x="193" y="693" on="1"/>
        <pt x="208" y="749" on="1"/>
        <pt x="349" y="745" on="0"/>
        <pt x="349" y="636" on="1"/>
        <pt x="349" y="603" on="0"/>
        <pt x="301" y="432" on="0"/>
        <pt x="301" y="408" on="1"/>
        <pt x="301" y="359" on="0"/>
        <pt x="374" y="335" on="1"/>
        <pt x="362" y="285" on="1"/>
        <pt x="297" y="268" on="0"/>
        <pt x="249" y="217" on="0"/>
        <pt x="238" y="163" on="1"/>
        <pt x="235" y="150" on="0"/>
        <pt x="230" y="118" on="1"/>
        <pt x="217" y="45" on="0"/>
        <pt x="210" y="25" on="1"/>
        <pt x="185" y="-54" on="0"/>
        <pt x="90" y="-124" on="0"/>
        <pt x="1" y="-128" on="1"/>
        <pt x="11" y="-73" on="1"/>
        <pt x="80" y="-69" on="0"/>
        <pt x="148" y="-8" on="0"/>
        <pt x="161" y="54" on="1"/>
        <pt x="161" y="56" on="0"/>
        <pt x="179" y="158" on="0"/>
        <pt x="183" y="172" on="1"/>
        <pt x="197" y="234" on="0"/>
        <pt x="250" y="294" on="0"/>
        <pt x="304" y="312" on="1"/>
        <pt x="241" y="336" on="0"/>
      </contour>
    </TTGlyph>
    <TTGlyph name="braceright.cap" xMin="9" yMin="-98" xMax="382" yMax="779">
      <contour>
        <pt x="249" y="430" on="1"/>
        <pt x="249" y="448" on="0"/>
        <pt x="297" y="618" on="0"/>
        <pt x="297" y="649" on="1"/>
        <pt x="297" y="723" on="0"/>
        <pt x="201" y="723" on="1"/>
        <pt x="216" y="779" on="1"/>
        <pt x="357" y="775" on="0"/>
        <pt x="357" y="666" on="1"/>
        <pt x="357" y="633" on="0"/>
        <pt x="309" y="462" on="0"/>
        <pt x="309" y="438" on="1"/>
        <pt x="309" y="389" on="0"/>
        <pt x="382" y="365" on="1"/>
        <pt x="370" y="315" on="1"/>
        <pt x="305" y="298" on="0"/>
        <pt x="257" y="247" on="0"/>
        <pt x="246" y="193" on="1"/>
        <pt x="243" y="180" on="0"/>
        <pt x="238" y="148" on="1"/>
        <pt x="225" y="75" on="0"/>
        <pt x="218" y="55" on="1"/>
        <pt x="193" y="-24" on="0"/>
        <pt x="98" y="-94" on="0"/>
        <pt x="9" y="-98" on="1"/>
        <pt x="19" y="-43" on="1"/>
        <pt x="88" y="-39" on="0"/>
        <pt x="156" y="22" on="0"/>
        <pt x="169" y="84" on="1"/>
        <pt x="169" y="86" on="0"/>
        <pt x="187" y="188" on="0"/>
        <pt x="191" y="202" on="1"/>
        <pt x="205" y="264" on="0"/>
        <pt x="258" y="324" on="0"/>
        <pt x="312" y="342" on="1"/>
        <pt x="249" y="366" on="0"/>
      </contour>
    </TTGlyph>
    <TTGlyph name="bracketleft" xMin="34" yMin="-122" xMax="425" yMax="747">
      <contour>
        <pt x="238" y="747" on="1"/>
        <pt x="425" y="747" on="1"/>
        <pt x="413" y="694" on="1"/>
        <pt x="286" y="694" on="1"/>
        <pt x="107" y="-69" on="1"/>
        <pt x="234" y="-69" on="1"/>
        <pt x="220" y="-122" on="1"/>
        <pt x="34" y="-122" on="1"/>
      </contour>
    </TTGlyph>
    <TTGlyph name="bracketleft.cap" xMin="41" yMin="-92" xMax="432" yMax="777">
      <contour>
        <pt x="245" y="777" on="1"/>
        <pt x="432" y="777" on="1"/>
        <pt x="420" y="724" on="1"/>
        <pt x="293" y="724" on="1"/>
        <pt x="114" y="-39" on="1"/>
        <pt x="241" y="-39" on="1"/>
        <pt x="227" y="-92" on="1"/>
        <pt x="41" y="-92" on="1"/>
      </contour>
    </TTGlyph>
    <TTGlyph name="bracketright" xMin="3" yMin="-121" xMax="394" yMax="748">
      <contour>
        <pt x="190" y="-121" on="1"/>
        <pt x="3" y="-121" on="1"/>
        <pt x="15" y="-68" on="1"/>
        <pt x="142" y="-68" on="1"/>
        <pt x="321" y="695" on="1"/>
        <pt x="194" y="695" on="1"/>
        <pt x="208" y="748" on="1"/>
        <pt x="394" y="748" on="1"/>
      </contour>
    </TTGlyph>
    <TTGlyph name="bracketright.cap" xMin="9" yMin="-91" xMax="400" yMax="778">
      <contour>
        <pt x="196" y="-91" on="1"/>
        <pt x="9" y="-91" on="1"/>
        <pt x="21" y="-38" on="1"/>
        <pt x="148" y="-38" on="1"/>
        <pt x="327" y="725" on="1"/>
        <pt x="200" y="725" on="1"/>
        <pt x="214" y="778" on="1"/>
        <pt x="400" y="778" on="1"/>
      </contour>
    </TTGlyph>
    <TTGlyph name="breve" xMin="239" yMin="594" xMax="519" yMax="727">
      <contour>
        <pt x="295" y="727" on="1"/>
        <pt x="292" y="714" on="0"/>
        <pt x="292" y="682" on="0"/>
        <pt x="302" y="666" on="1"/>
        <pt x="319" y="643" on="0"/>
        <pt x="361" y="643" on="1"/>
        <pt x="444" y="643" on="0"/>
        <pt x="467" y="727" on="1"/>
        <pt x="519" y="727" on="1"/>
        <pt x="481" y="594" on="0"/>
        <pt x="346" y="594" on="1"/>
        <pt x="284" y="594" on="0"/>
        <pt x="258" y="631" on="1"/>
        <pt x="240" y="656" on="0"/>
        <pt x="240" y="708" on="0"/>
        <pt x="244" y="727" on="1"/>
      </contour>
    </TTGlyph>
    <TTGlyph name="breve.cap" xMin="288" yMin="799" xMax="562" yMax="922">
      <contour>
        <pt x="345" y="922" on="1"/>
        <pt x="343" y="910" on="0"/>
        <pt x="343" y="876" on="0"/>
        <pt x="371" y="847" on="0"/>
        <pt x="443" y="847" on="0"/>
        <pt x="500" y="889" on="0"/>
        <pt x="509" y="922" on="1"/>
        <pt x="562" y="922" on="1"/>
        <pt x="545" y="863" on="0"/>
        <pt x="460" y="799" on="0"/>
        <pt x="337" y="799" on="0"/>
        <pt x="309" y="830" on="1"/>
        <pt x="289" y="852" on="0"/>
        <pt x="289" y="890" on="1"/>
        <pt x="289" y="905" on="0"/>
        <pt x="292" y="922" on="1"/>
      </contour>
    </TTGlyph>
    <TTGlyph name="brokenbar" xMin="184" yMin="-225" xMax="244" yMax="722">
      <contour>
        <pt x="184" y="722" on="1"/>
        <pt x="244" y="722" on="1"/>
        <pt x="244" y="347" on="1"/>
        <pt x="184" y="347" on="1"/>
      </contour>
      <contour>
        <pt x="184" y="152" on="1"/>
        <pt x="244" y="152" on="1"/>
        <pt x="244" y="-225" on="1"/>
        <pt x="184" y="-225" on="1"/>
      </contour>
    </TTGlyph>
    <TTGlyph name="bullet" xMin="179" yMin="107" xMax="429" yMax="395">
      <contour>
        <pt x="179" y="107" on="1"/>
        <pt x="179" y="395" on="1"/>
        <pt x="429" y="395" on="1"/>
        <pt x="429" y="107" on="1"/>
      </contour>
    </TTGlyph>
    <TTGlyph name="c" xMin="95" yMin="-10" xMax="477" yMax="510">
      <contour>
        <pt x="460" y="498" on="1"/>
        <pt x="477" y="494" on="1"/>
        <pt x="462" y="446" on="1"/>
        <pt x="400" y="457" on="0"/>
        <pt x="356" y="457" on="1"/>
        <pt x="290" y="457" on="0"/>
        <pt x="244" y="410" on="1"/>
        <pt x="156" y="322" on="0"/>
        <pt x="156" y="147" on="1"/>
        <pt x="156" y="95" on="0"/>
        <pt x="208" y="43" on="0"/>
        <pt x="266" y="43" on="1"/>
        <pt x="301" y="43" on="0"/>
        <pt x="360" y="55" on="1"/>
        <pt x="379" y="59" on="1"/>
        <pt x="376" y="11" on="1"/>
        <pt x="308" y="-10" on="0"/>
        <pt x="248" y="-10" on="1"/>
        <pt x="95" y="-10" on="0"/>
        <pt x="95" y="137" on="1"/>
        <pt x="95" y="288" on="0"/>
        <pt x="158" y="395" on="1"/>
        <pt x="190" y="448" on="0"/>
        <pt x="293" y="510" on="0"/>
        <pt x="407" y="510" on="0"/>
      </contour>
    </TTGlyph>
    <TTGlyph name="cacute" xMin="95" yMin="-10" xMax="519" yMax="741">
      <contour>
        <pt x="460" y="498" on="1"/>
        <pt x="477" y="494" on="1"/>
        <pt x="462" y="446" on="1"/>
        <pt x="400" y="457" on="0"/>
        <pt x="356" y="457" on="1"/>
        <pt x="290" y="457" on="0"/>
        <pt x="244" y="410" on="1"/>
        <pt x="156" y="322" on="0"/>
        <pt x="156" y="147" on="1"/>
        <pt x="156" y="95" on="0"/>
        <pt x="208" y="43" on="0"/>
        <pt x="266" y="43" on="1"/>
        <pt x="301" y="43" on="0"/>
        <pt x="360" y="55" on="1"/>
        <pt x="379" y="59" on="1"/>
        <pt x="376" y="11" on="1"/>
        <pt x="308" y="-10" on="0"/>
        <pt x="248" y="-10" on="1"/>
        <pt x="95" y="-10" on="0"/>
        <pt x="95" y="137" on="1"/>
        <pt x="95" y="288" on="0"/>
        <pt x="158" y="395" on="1"/>
        <pt x="190" y="448" on="0"/>
        <pt x="293" y="510" on="0"/>
        <pt x="407" y="510" on="0"/>
      </contour>
      <contour>
        <pt x="300" y="601" on="1"/>
        <pt x="294" y="647" on="1"/>
        <pt x="512" y="741" on="1"/>
        <pt x="519" y="688" on="1"/>
      </contour>
    </TTGlyph>
    <TTGlyph name="caron" xMin="424" yMin="590" xMax="697" yMax="735">
      <contour>
        <pt x="541" y="590" on="1"/>
        <pt x="509" y="590" on="1"/>
        <pt x="424" y="735" on="1"/>
        <pt x="479" y="735" on="1"/>
        <pt x="536" y="640" on="1"/>
        <pt x="635" y="735" on="1"/>
        <pt x="697" y="735" on="1"/>
      </contour>
    </TTGlyph>
    <TTGlyph name="caron.cap" xMin="281" yMin="796" xMax="571" yMax="930">
      <contour>
        <pt x="571" y="930" on="1"/>
        <pt x="415" y="796" on="1"/>
        <pt x="379" y="796" on="1"/>
        <pt x="281" y="930" on="1"/>
        <pt x="340" y="930" on="1"/>
        <pt x="405" y="841" on="1"/>
        <pt x="508" y="930" on="1"/>
      </contour>
    </TTGlyph>
    <TTGlyph name="ccaron" xMin="95" yMin="-10" xMax="543" yMax="735">
      <contour>
        <pt x="387" y="590" on="1"/>
        <pt x="355" y="590" on="1"/>
        <pt x="270" y="735" on="1"/>
        <pt x="325" y="735" on="1"/>
        <pt x="382" y="640" on="1"/>
        <pt x="481" y="735" on="1"/>
        <pt x="543" y="735" on="1"/>
      </contour>
      <contour>
        <pt x="460" y="498" on="1"/>
        <pt x="477" y="494" on="1"/>
        <pt x="462" y="446" on="1"/>
        <pt x="400" y="457" on="0"/>
        <pt x="356" y="457" on="1"/>
        <pt x="290" y="457" on="0"/>
        <pt x="244" y="410" on="1"/>
        <pt x="156" y="322" on="0"/>
        <pt x="156" y="147" on="1"/>
        <pt x="156" y="95" on="0"/>
        <pt x="208" y="43" on="0"/>
        <pt x="266" y="43" on="1"/>
        <pt x="301" y="43" on="0"/>
        <pt x="360" y="55" on="1"/>
        <pt x="379" y="59" on="1"/>
        <pt x="376" y="11" on="1"/>
        <pt x="308" y="-10" on="0"/>
        <pt x="248" y="-10" on="1"/>
        <pt x="95" y="-10" on="0"/>
        <pt x="95" y="137" on="1"/>
        <pt x="95" y="288" on="0"/>
        <pt x="158" y="395" on="1"/>
        <pt x="190" y="448" on="0"/>
        <pt x="293" y="510" on="0"/>
        <pt x="407" y="510" on="0"/>
      </contour>
    </TTGlyph>
    <TTGlyph name="ccedilla" xMin="95" yMin="-207" xMax="477" yMax="510">
      <contour>
        <pt x="240" y="-48" on="1"/>
        <pt x="323" y="-48" on="0"/>
        <pt x="323" y="-102" on="1"/>
        <pt x="323" y="-112" on="0"/>
        <pt x="320" y="-124" on="1"/>
        <pt x="301" y="-207" on="0"/>
        <pt x="216" y="-207" on="1"/>
        <pt x="138" y="-201" on="1"/>
        <pt x="149" y="-157" on="1"/>
        <pt x="188" y="-161" on="0"/>
        <pt x="216" y="-161" on="1"/>
        <pt x="258" y="-161" on="0"/>
        <pt x="268" y="-122" on="1"/>
        <pt x="269" y="-116" on="0"/>
        <pt x="269" y="-111" on="1"/>
        <pt x="269" y="-86" on="0"/>
        <pt x="234" y="-86" on="1"/>
        <pt x="190" y="-86" on="1"/>
        <pt x="209" y="-7" on="1"/>
        <pt x="95" y="11" on="0"/>
        <pt x="95" y="137" on="1"/>
        <pt x="95" y="288" on="0"/>
        <pt x="158" y="395" on="1"/>
        <pt x="190" y="448" on="0"/>
        <pt x="293" y="510" on="0"/>
        <pt x="358" y="510" on="1"/>
        <pt x="407" y="510" on="0"/>
        <pt x="460" y="498" on="1"/>
        <pt x="477" y="494" on="1"/>
        <pt x="462" y="446" on="1"/>
        <pt x="400" y="457" on="0"/>
        <pt x="356" y="457" on="1"/>
        <pt x="290" y="457" on="0"/>
        <pt x="244" y="410" on="1"/>
        <pt x="156" y="322" on="0"/>
        <pt x="156" y="147" on="1"/>
        <pt x="156" y="95" on="0"/>
        <pt x="208" y="43" on="0"/>
        <pt x="266" y="43" on="1"/>
        <pt x="301" y="43" on="0"/>
        <pt x="360" y="55" on="1"/>
        <pt x="379" y="59" on="1"/>
        <pt x="376" y="11" on="1"/>
        <pt x="308" y="-10" on="0"/>
        <pt x="248" y="-10" on="1"/>
        <pt x="245" y="-10" on="1"/>
        <pt x="235" y="-48" on="1"/>
      </contour>
    </TTGlyph>
    <TTGlyph name="ccircumflex" xMin="95" yMin="-10" xMax="503" yMax="735">
      <contour>
        <pt x="460" y="498" on="1"/>
        <pt x="477" y="494" on="1"/>
        <pt x="462" y="446" on="1"/>
        <pt x="400" y="457" on="0"/>
        <pt x="356" y="457" on="1"/>
        <pt x="290" y="457" on="0"/>
        <pt x="244" y="410" on="1"/>
        <pt x="156" y="322" on="0"/>
        <pt x="156" y="147" on="1"/>
        <pt x="156" y="95" on="0"/>
        <pt x="208" y="43" on="0"/>
        <pt x="266" y="43" on="1"/>
        <pt x="301" y="43" on="0"/>
        <pt x="360" y="55" on="1"/>
        <pt x="379" y="59" on="1"/>
        <pt x="376" y="11" on="1"/>
        <pt x="308" y="-10" on="0"/>
        <pt x="248" y="-10" on="1"/>
        <pt x="95" y="-10" on="0"/>
        <pt x="95" y="137" on="1"/>
        <pt x="95" y="288" on="0"/>
        <pt x="158" y="395" on="1"/>
        <pt x="190" y="448" on="0"/>
        <pt x="293" y="510" on="0"/>
        <pt x="407" y="510" on="0"/>
      </contour>
      <contour>
        <pt x="234" y="590" on="1"/>
        <pt x="385" y="735" on="1"/>
        <pt x="416" y="735" on="1"/>
        <pt x="503" y="590" on="1"/>
        <pt x="447" y="590" on="1"/>
        <pt x="393" y="682" on="1"/>
        <pt x="296" y="590" on="1"/>
      </contour>
    </TTGlyph>
    <TTGlyph name="cdotaccent" xMin="95" yMin="-10" xMax="477" yMax="688">
      <contour>
        <pt x="460" y="498" on="1"/>
        <pt x="477" y="494" on="1"/>
        <pt x="462" y="446" on="1"/>
        <pt x="400" y="457" on="0"/>
        <pt x="356" y="457" on="1"/>
        <pt x="290" y="457" on="0"/>
        <pt x="244" y="410" on="1"/>
        <pt x="156" y="322" on="0"/>
        <pt x="156" y="147" on="1"/>
        <pt x="156" y="95" on="0"/>
        <pt x="208" y="43" on="0"/>
        <pt x="266" y="43" on="1"/>
        <pt x="301" y="43" on="0"/>
        <pt x="360" y="55" on="1"/>
        <pt x="379" y="59" on="1"/>
        <pt x="376" y="11" on="1"/>
        <pt x="308" y="-10" on="0"/>
        <pt x="248" y="-10" on="1"/>
        <pt x="95" y="-10" on="0"/>
        <pt x="95" y="137" on="1"/>
        <pt x="95" y="288" on="0"/>
        <pt x="158" y="395" on="1"/>
        <pt x="190" y="448" on="0"/>
        <pt x="293" y="510" on="0"/>
        <pt x="407" y="510" on="0"/>
      </contour>
      <contour>
        <pt x="341" y="610" on="1"/>
        <pt x="360" y="688" on="1"/>
        <pt x="411" y="688" on="1"/>
        <pt x="393" y="610" on="1"/>
      </contour>
    </TTGlyph>
    <TTGlyph name="cedilla" xMin="317" yMin="-207" xMax="502" yMax="5">
      <contour>
        <pt x="419" y="-48" on="1"/>
        <pt x="502" y="-48" on="0"/>
        <pt x="502" y="-102" on="1"/>
        <pt x="502" y="-112" on="0"/>
        <pt x="499" y="-124" on="1"/>
        <pt x="480" y="-207" on="0"/>
        <pt x="395" y="-207" on="1"/>
        <pt x="317" y="-201" on="1"/>
        <pt x="328" y="-157" on="1"/>
        <pt x="367" y="-161" on="0"/>
        <pt x="395" y="-161" on="1"/>
        <pt x="437" y="-161" on="0"/>
        <pt x="447" y="-122" on="1"/>
        <pt x="448" y="-116" on="0"/>
        <pt x="448" y="-111" on="1"/>
        <pt x="448" y="-86" on="0"/>
        <pt x="413" y="-86" on="1"/>
        <pt x="369" y="-86" on="1"/>
        <pt x="391" y="5" on="1"/>
        <pt x="428" y="5" on="1"/>
        <pt x="414" y="-48" on="1"/>
      </contour>
    </TTGlyph>
    <TTGlyph name="cent" xMin="157" yMin="-82" xMax="535" yMax="585">
      <contour>
        <pt x="158" y="162" on="1"/>
        <pt x="158" y="199" on="0"/>
        <pt x="170" y="248" on="1"/>
        <pt x="197" y="351" on="0"/>
        <pt x="308" y="459" on="0"/>
        <pt x="386" y="461" on="1"/>
        <pt x="415" y="585" on="1"/>
        <pt x="467" y="585" on="1"/>
        <pt x="437" y="461" on="1"/>
        <pt x="535" y="451" on="1"/>
        <pt x="519" y="397" on="1"/>
        <pt x="435" y="405" on="0"/>
        <pt x="399" y="405" on="1"/>
        <pt x="269" y="405" on="0"/>
        <pt x="230" y="248" on="1"/>
        <pt x="219" y="196" on="0"/>
        <pt x="219" y="135" on="0"/>
        <pt x="270" y="95" on="0"/>
        <pt x="326" y="95" on="1"/>
        <pt x="454" y="102" on="1"/>
        <pt x="442" y="49" on="1"/>
        <pt x="379" y="41" on="0"/>
        <pt x="339" y="41" on="1"/>
        <pt x="310" y="-82" on="1"/>
        <pt x="258" y="-82" on="1"/>
        <pt x="287" y="38" on="1"/>
        <pt x="158" y="40" on="0"/>
      </contour>
    </TTGlyph>
    <TTGlyph name="circumflex" xMin="392" yMin="590" xMax="661" yMax="735">
      <contour>
        <pt x="392" y="590" on="1"/>
        <pt x="543" y="735" on="1"/>
        <pt x="574" y="735" on="1"/>
        <pt x="661" y="590" on="1"/>
        <pt x="605" y="590" on="1"/>
        <pt x="551" y="682" on="1"/>
        <pt x="454" y="590" on="1"/>
      </contour>
    </TTGlyph>
    <TTGlyph name="circumflex.cap.001" xMin="252" yMin="797" xMax="540" yMax="931">
      <contour>
        <pt x="252" y="797" on="1"/>
        <pt x="413" y="931" on="1"/>
        <pt x="443" y="931" on="1"/>
        <pt x="540" y="797" on="1"/>
        <pt x="484" y="797" on="1"/>
        <pt x="423" y="883" on="1"/>
        <pt x="318" y="797" on="1"/>
      </contour>
    </TTGlyph>
    <TTGlyph name="colon" xMin="56" yMin="0" xMax="218" yMax="438">
      <contour>
        <pt x="134" y="338" on="1"/>
        <pt x="157" y="438" on="1"/>
        <pt x="218" y="438" on="1"/>
        <pt x="195" y="338" on="1"/>
      </contour>
      <contour>
        <pt x="56" y="0" on="1"/>
        <pt x="79" y="100" on="1"/>
        <pt x="140" y="100" on="1"/>
        <pt x="117" y="0" on="1"/>
      </contour>
    </TTGlyph>
    <TTGlyph name="comma" xMin="-2" yMin="-129" xMax="158" yMax="100">
      <contour>
        <pt x="47" y="-129" on="1"/>
        <pt x="-2" y="-129" on="1"/>
        <pt x="92" y="100" on="1"/>
        <pt x="158" y="100" on="1"/>
      </contour>
    </TTGlyph>
    <TTGlyph name="commaaccent" xMin="-37" yMin="-276" xMax="104" yMax="-73">
      <contour>
        <pt x="-37" y="-276" on="1"/>
        <pt x="48" y="-73" on="1"/>
        <pt x="104" y="-73" on="1"/>
        <pt x="11" y="-276" on="1"/>
      </contour>
    </TTGlyph>
    <TTGlyph name="copyright" xMin="162" yMin="164" xMax="683" yMax="704">
      <contour>
        <pt x="162" y="320" on="0"/>
        <pt x="162" y="548" on="0"/>
        <pt x="310" y="704" on="0"/>
        <pt x="535" y="704" on="0"/>
        <pt x="683" y="547" on="0"/>
        <pt x="683" y="319" on="0"/>
        <pt x="536" y="164" on="0"/>
        <pt x="310" y="164" on="0"/>
      </contour>
      <contour>
        <pt x="202" y="530" on="0"/>
        <pt x="202" y="338" on="0"/>
        <pt x="328" y="203" on="0"/>
        <pt x="517" y="203" on="0"/>
        <pt x="644" y="337" on="0"/>
        <pt x="644" y="530" on="0"/>
        <pt x="516" y="665" on="0"/>
        <pt x="328" y="665" on="0"/>
      </contour>
      <contour>
        <pt x="424" y="278" on="1"/>
        <pt x="361" y="278" on="0"/>
        <pt x="311" y="354" on="0"/>
        <pt x="311" y="513" on="0"/>
        <pt x="361" y="590" on="0"/>
        <pt x="425" y="590" on="1"/>
        <pt x="465" y="590" on="0"/>
        <pt x="491" y="584" on="1"/>
        <pt x="501" y="581" on="1"/>
        <pt x="498" y="535" on="1"/>
        <pt x="459" y="542" on="0"/>
        <pt x="386" y="542" on="0"/>
        <pt x="360" y="492" on="0"/>
        <pt x="360" y="378" on="0"/>
        <pt x="388" y="326" on="0"/>
        <pt x="427" y="326" on="1"/>
        <pt x="498" y="333" on="1"/>
        <pt x="501" y="288" on="1"/>
        <pt x="462" y="278" on="0"/>
      </contour>
    </TTGlyph>
    <TTGlyph name="currency" xMin="123" yMin="37" xMax="552" yMax="467">
      <contour>
        <pt x="393" y="75" on="0"/>
        <pt x="281" y="75" on="0"/>
        <pt x="235" y="108" on="1"/>
        <pt x="165" y="37" on="1"/>
        <pt x="123" y="80" on="1"/>
        <pt x="193" y="149" on="1"/>
        <pt x="160" y="195" on="0"/>
        <pt x="160" y="308" on="0"/>
        <pt x="193" y="354" on="1"/>
        <pt x="123" y="424" on="1"/>
        <pt x="165" y="467" on="1"/>
        <pt x="235" y="396" on="1"/>
        <pt x="281" y="428" on="0"/>
        <pt x="393" y="428" on="0"/>
        <pt x="439" y="396" on="1"/>
        <pt x="510" y="467" on="1"/>
        <pt x="552" y="424" on="1"/>
        <pt x="481" y="353" on="1"/>
        <pt x="513" y="307" on="0"/>
        <pt x="513" y="195" on="0"/>
        <pt x="481" y="150" on="1"/>
        <pt x="552" y="80" on="1"/>
        <pt x="510" y="37" on="1"/>
        <pt x="439" y="108" on="1"/>
      </contour>
      <contour>
        <pt x="288" y="133" on="0"/>
        <pt x="388" y="133" on="0"/>
        <pt x="456" y="202" on="0"/>
        <pt x="456" y="301" on="0"/>
        <pt x="388" y="370" on="0"/>
        <pt x="288" y="370" on="0"/>
        <pt x="218" y="302" on="0"/>
        <pt x="218" y="202" on="0"/>
      </contour>
    </TTGlyph>
    <TTGlyph name="d" xMin="91" yMin="-10" xMax="591" yMax="722">
      <contour>
        <pt x="213" y="-10" on="1"/>
        <pt x="91" y="-10" on="0"/>
        <pt x="91" y="129" on="1"/>
        <pt x="91" y="217" on="0"/>
        <pt x="148" y="388" on="0"/>
        <pt x="265" y="509" on="0"/>
        <pt x="340" y="509" on="1"/>
        <pt x="390" y="509" on="0"/>
        <pt x="456" y="496" on="1"/>
        <pt x="477" y="492" on="1"/>
        <pt x="531" y="722" on="1"/>
        <pt x="591" y="722" on="1"/>
        <pt x="423" y="0" on="1"/>
        <pt x="365" y="0" on="1"/>
        <pt x="387" y="98" on="1"/>
        <pt x="336" y="30" on="0"/>
        <pt x="267" y="2" on="1"/>
        <pt x="239" y="-10" on="0"/>
      </contour>
      <contour>
        <pt x="466" y="442" on="1"/>
        <pt x="399" y="457" on="0"/>
        <pt x="283" y="457" on="0"/>
        <pt x="194" y="346" on="0"/>
        <pt x="153" y="200" on="0"/>
        <pt x="153" y="129" on="1"/>
        <pt x="153" y="43" on="0"/>
        <pt x="231" y="43" on="1"/>
        <pt x="264" y="43" on="0"/>
        <pt x="350" y="107" on="0"/>
        <pt x="377" y="140" on="1"/>
        <pt x="404" y="172" on="1"/>
      </contour>
    </TTGlyph>
    <TTGlyph name="dagger" xMin="129" yMin="-76" xMax="527" yMax="690">
      <contour>
        <pt x="129" y="435" on="1"/>
        <pt x="143" y="498" on="1"/>
        <pt x="306" y="496" on="1"/>
        <pt x="352" y="690" on="1"/>
        <pt x="408" y="690" on="1"/>
        <pt x="364" y="498" on="1"/>
        <pt x="527" y="498" on="1"/>
        <pt x="513" y="435" on="1"/>
        <pt x="348" y="437" on="1"/>
        <pt x="227" y="-76" on="1"/>
        <pt x="172" y="-76" on="1"/>
        <pt x="291" y="435" on="1"/>
      </contour>
    </TTGlyph>
    <TTGlyph name="daggerdbl" xMin="75" yMin="-76" xMax="550" yMax="690">
      <contour>
        <pt x="194" y="-76" on="1"/>
        <pt x="239" y="116" on="1"/>
        <pt x="75" y="116" on="1"/>
        <pt x="89" y="177" on="1"/>
        <pt x="253" y="176" on="1"/>
        <pt x="314" y="435" on="1"/>
        <pt x="152" y="435" on="1"/>
        <pt x="166" y="498" on="1"/>
        <pt x="329" y="496" on="1"/>
        <pt x="375" y="690" on="1"/>
        <pt x="431" y="690" on="1"/>
        <pt x="386" y="498" on="1"/>
        <pt x="550" y="498" on="1"/>
        <pt x="535" y="435" on="1"/>
        <pt x="371" y="437" on="1"/>
        <pt x="310" y="177" on="1"/>
        <pt x="474" y="177" on="1"/>
        <pt x="459" y="116" on="1"/>
        <pt x="295" y="118" on="1"/>
        <pt x="250" y="-76" on="1"/>
      </contour>
    </TTGlyph>
    <TTGlyph name="dcaron" xMin="91" yMin="-10" xMax="700" yMax="722">
      <contour>
        <pt x="700" y="695" on="1"/>
        <pt x="647" y="467" on="1"/>
        <pt x="592" y="467" on="1"/>
        <pt x="646" y="695" on="1"/>
      </contour>
      <contour>
        <pt x="213" y="-10" on="1"/>
        <pt x="91" y="-10" on="0"/>
        <pt x="91" y="129" on="1"/>
        <pt x="91" y="217" on="0"/>
        <pt x="148" y="388" on="0"/>
        <pt x="265" y="509" on="0"/>
        <pt x="340" y="509" on="1"/>
        <pt x="390" y="509" on="0"/>
        <pt x="456" y="496" on="1"/>
        <pt x="477" y="492" on="1"/>
        <pt x="531" y="722" on="1"/>
        <pt x="591" y="722" on="1"/>
        <pt x="423" y="0" on="1"/>
        <pt x="365" y="0" on="1"/>
        <pt x="387" y="98" on="1"/>
        <pt x="336" y="30" on="0"/>
        <pt x="267" y="2" on="1"/>
        <pt x="239" y="-10" on="0"/>
      </contour>
      <contour>
        <pt x="466" y="442" on="1"/>
        <pt x="399" y="457" on="0"/>
        <pt x="283" y="457" on="0"/>
        <pt x="194" y="346" on="0"/>
        <pt x="153" y="200" on="0"/>
        <pt x="153" y="129" on="1"/>
        <pt x="153" y="43" on="0"/>
        <pt x="231" y="43" on="1"/>
        <pt x="264" y="43" on="0"/>
        <pt x="350" y="107" on="0"/>
        <pt x="377" y="140" on="1"/>
        <pt x="404" y="172" on="1"/>
      </contour>
    </TTGlyph>
    <TTGlyph name="dcroat" xMin="91" yMin="-10" xMax="631" yMax="722">
      <contour>
        <pt x="213" y="-10" on="1"/>
        <pt x="91" y="-10" on="0"/>
        <pt x="91" y="129" on="1"/>
        <pt x="91" y="217" on="0"/>
        <pt x="148" y="388" on="0"/>
        <pt x="265" y="509" on="0"/>
        <pt x="340" y="509" on="1"/>
        <pt x="390" y="509" on="0"/>
        <pt x="456" y="496" on="1"/>
        <pt x="477" y="492" on="1"/>
        <pt x="502" y="599" on="1"/>
        <pt x="352" y="599" on="1"/>
        <pt x="364" y="656" on="1"/>
        <pt x="515" y="656" on="1"/>
        <pt x="531" y="722" on="1"/>
        <pt x="591" y="722" on="1"/>
        <pt x="575" y="656" on="1"/>
        <pt x="631" y="656" on="1"/>
        <pt x="618" y="599" on="1"/>
        <pt x="562" y="599" on="1"/>
        <pt x="423" y="0" on="1"/>
        <pt x="365" y="0" on="1"/>
        <pt x="387" y="98" on="1"/>
        <pt x="336" y="30" on="0"/>
        <pt x="267" y="2" on="1"/>
        <pt x="239" y="-10" on="0"/>
      </contour>
      <contour>
        <pt x="466" y="442" on="1"/>
        <pt x="399" y="457" on="0"/>
        <pt x="283" y="457" on="0"/>
        <pt x="194" y="346" on="0"/>
        <pt x="153" y="200" on="0"/>
        <pt x="153" y="129" on="1"/>
        <pt x="153" y="43" on="0"/>
        <pt x="231" y="43" on="1"/>
        <pt x="264" y="43" on="0"/>
        <pt x="350" y="107" on="0"/>
        <pt x="377" y="140" on="1"/>
        <pt x="404" y="172" on="1"/>
      </contour>
    </TTGlyph>
</ttFont>
